<svg xmlns="http://www.w3.org/2000/svg" xmlns:xlink="http://www.w3.org/1999/xlink" xmlns:lucid="lucid" width="1420" height="1051"><g transform="translate(-337 0)" lucid:page-tab-id="HWEp-vi-RSFO"><path d="M0 0h2347.52v1360H0z" fill="#fff"/><path d="M640 20h240v60H640z" fill="none"/><use xlink:href="#a" transform="matrix(1,0,0,1,640,20) translate(88.5 33.6)"/><use xlink:href="#b" transform="matrix(1,0,0,1,640,20) translate(132.5 33.6)"/><path d="M900 629.73h240v60H900z" fill="none"/><use xlink:href="#c" transform="matrix(1,0,0,1,900,629.7333333333333) translate(106.5 33.6)"/><path d="M560 220h240v60H560z" fill="none"/><use xlink:href="#d" transform="matrix(1,0,0,1,560,220) translate(106.5 33.6)"/><path d="M860 22.28h240v60H860z" fill="none"/><use xlink:href="#c" transform="matrix(1,0,0,1,860,22.284107113018877) translate(106.5 33.6)"/><path d="M1037.6 116.93h240v60h-240z" fill="none"/><use xlink:href="#c" transform="matrix(1,0,0,1,1037.6,116.93333333333342) translate(106.5 33.6)"/><path d="M1035 198.53h190v148h-190z" stroke="#333" stroke-width="2" fill="#fff"/><path d="M1035 236.13h190" stroke="#333" stroke-width="2" fill="none"/><use xlink:href="#e" transform="matrix(1,0,0,1,1043,206.53333333333336) translate(-0.375 14.6)"/><use xlink:href="#f" transform="matrix(1,0,0,1,1047,244.13333333333335) translate(57.55 18.69999999999999)"/><use xlink:href="#g" transform="matrix(1,0,0,1,1047,244.13333333333335) translate(58.599999999999994 40.29999999999999)"/><use xlink:href="#h" transform="matrix(1,0,0,1,1047,244.13333333333335) translate(48.05 61.89999999999999)"/><use xlink:href="#i" transform="matrix(1,0,0,1,1047,244.13333333333335) translate(34.099999999999994 83.5)"/><use xlink:href="#j" transform="matrix(1,0,0,1,1047,244.13333333333335) translate(73 83.5)"/><use xlink:href="#k" transform="matrix(1,0,0,1,1047,244.13333333333335) translate(116.9 83.5)"/><path d="M620 271.53h160v75H620z" stroke="#333" stroke-width="2" fill="#fff"/><path d="M620 309.13h160" stroke="#333" stroke-width="2" fill="none"/><use xlink:href="#l" transform="matrix(1,0,0,1,628,279.53333333333336) translate(26.574999999999996 14.6)"/><path d="M1360 231.98h180v75h-180z" stroke="#333" stroke-width="2" fill="#fff"/><path d="M1360 269.58h180" stroke="#333" stroke-width="2" fill="none"/><use xlink:href="#m" transform="matrix(1,0,0,1,1368,239.97963316649344) translate(44.074999999999996 14.6)"/><use xlink:href="#n" transform="matrix(1,0,0,1,1368,239.97963316649344) translate(79.025 14.6)"/><path d="M630 417.5h140v75H630z" stroke="#333" stroke-width="2" fill="#fff"/><path d="M630 455.1h140" stroke="#333" stroke-width="2" fill="none"/><use xlink:href="#o" transform="matrix(1,0,0,1,638,425.5) translate(36.224999999999994 14.6)"/><use xlink:href="#p" transform="matrix(1,0,0,1,642,463.1) translate(18.575000000000003 14.6)"/><path d="M880 563h180v75H880z" stroke="#333" stroke-width="2" fill="#fff"/><path d="M880 600.6h180" stroke="#333" stroke-width="2" fill="none"/><use xlink:href="#q" transform="matrix(1,0,0,1,888,571) translate(11.649999999999991 14.6)"/><use xlink:href="#r" transform="matrix(1,0,0,1,888,571) translate(76.5 14.6)"/><use xlink:href="#s" transform="matrix(1,0,0,1,888,571) translate(111.45 14.6)"/><use xlink:href="#p" transform="matrix(1,0,0,1,892,608.6) translate(38.575 14.6)"/><path d="M910 740h160v94H910z" stroke="#333" stroke-width="2" fill="#fff"/><path d="M910 777.6h160" stroke="#333" stroke-width="2" fill="none"/><use xlink:href="#t" transform="matrix(1,0,0,1,918,748) translate(34.55 14.6)"/><path d="M800 936h160v75H800z" stroke="#333" stroke-width="2" fill="#fff"/><path d="M800 973.6h160" stroke="#333" stroke-width="2" fill="none"/><use xlink:href="#u" transform="matrix(1,0,0,1,808,944) translate(15.574999999999996 14.6)"/><path d="M1020 22.28h220v100h-220z" stroke="#333" stroke-width="2" fill="#fff"/><path d="M1020 59.88h220" stroke="#333" stroke-width="2" fill="none"/><use xlink:href="#m" transform="matrix(1,0,0,1,1028,30.284107113018877) translate(52.55 14.6)"/><use xlink:href="#v" transform="matrix(1,0,0,1,1028,30.284107113018877) translate(87.5 14.6)"/><use xlink:href="#w" transform="matrix(1,0,0,1,1032,67.88410711301887) translate(64.075 15.799999999999999)"/><use xlink:href="#x" transform="matrix(1,0,0,1,1032,67.88410711301887) translate(58.05 37.4)"/><path d="M1130 123.78v73.75" stroke="#333" fill="none"/><path d="M1130.5 123.8h-1v-.52h1z" stroke="#333" stroke-width=".05" fill="#333"/><path d="M1115 197.03h30M1226.5 269.48H1359" stroke="#333" fill="none"/><path d="M1226.5 269.98h-.5v-1h.5z" stroke="#333" stroke-width=".05" fill="#333"/><path d="M1358.5 284.48v-30M700 348.03v68.47" stroke="#333" fill="none"/><path d="M700.5 348.05h-1v-.52h1z" stroke="#333" stroke-width=".05" fill="#333"/><path d="M685 416h30M990 639.5V739" stroke="#333" fill="none"/><path d="M990.5 639.5h-1v-.5h1z" stroke="#333" stroke-width=".05" fill="#333"/><path d="M975 738.5h30" stroke="#333" fill="none"/><path d="M1020 936h160v75h-160z" stroke="#333" stroke-width="2" fill="#fff"/><path d="M1020 973.6h160" stroke="#333" stroke-width="2" fill="none"/><use xlink:href="#y" transform="matrix(1,0,0,1,1028,944) translate(19.124999999999993 14.6)"/><path d="M990 835.5V873a12 12 0 0 1-12 12h-86a12 12 0 0 0-12 12v38" stroke="#333" fill="none"/><path d="M990.5 835.5h-1v-.5h1z" stroke="#333" stroke-width=".05" fill="#333"/><path d="M865 934.5h30M990 835.5V873a12 12 0 0 0 12 12h85a12 12 0 0 1 12 12v38" stroke="#333" fill="none"/><path d="M990.5 835.5h-1v-.5h1z" stroke="#333" stroke-width=".05" fill="#333"/><path d="M1084 934.5h30M1450 308.48V775a12 12 0 0 1-12 12h-367" stroke="#333" fill="none"/><path d="M1450.5 308.5h-1v-.52h1z" stroke="#333" stroke-width=".05" fill="#333"/><path d="M1071.5 772v30M1018.5 72.28H712a12 12 0 0 0-12 12v186.25" stroke="#333" fill="none"/><path d="M1019 72.78h-.5v-1h.5z" stroke="#333" stroke-width=".05" fill="#333"/><path d="M685 270.03h30M700 494v154a12 12 0 0 0 12 12h225.87a12 12 0 0 1 12 12v67" stroke="#333" fill="none"/><path d="M700.5 494h-1v-.5h1z" stroke="#333" stroke-width=".05" fill="#333"/><path d="M934.87 738.5h30" stroke="#333" fill="none"/><path d="M1160 375h180v80h-180z" stroke="#333" stroke-width="2" fill="#fff"/><path d="M1160 412.6h180" stroke="#333" stroke-width="2" fill="none"/><use xlink:href="#z" transform="matrix(1,0,0,1,1168,383) translate(26.099999999999994 14.6)"/><use xlink:href="#A" transform="matrix(1,0,0,1,1168,383) translate(97.95 14.6)"/><path d="M900 375h180v80H900z" stroke="#333" stroke-width="2" fill="#fff"/><path d="M900 412.6h180" stroke="#333" stroke-width="2" fill="none"/><use xlink:href="#B" transform="matrix(1,0,0,1,908,383) translate(18.174999999999997 14.6)"/><path d="M1341.5 415h27.5a12 12 0 0 0 12-12v-63.47a12 12 0 0 0-12-12h-120" stroke="#333" fill="none"/><path d="M1341.5 415.5h-.5v-1h.5z" stroke="#333" stroke-width=".05" fill="#333"/><path d="M1226.98 327.53l21.52-12.72v25.46z" stroke="#333" fill="#fff"/><path d="M898.5 415H871a12 12 0 0 1-12-12v-65.27a12 12 0 0 1 12-12h140" stroke="#333" fill="none"/><path d="M899 415.5h-.5v-1h.5z" stroke="#333" stroke-width=".05" fill="#333"/><path d="M1033.02 325.73l-21.52 12.73V313z" stroke="#333" fill="#fff"/><path d="M380 640h180v80H380z" stroke="#333" stroke-width="2" fill="#fff"/><path d="M380 677.6h180" stroke="#333" stroke-width="2" fill="none"/><use xlink:href="#C" transform="matrix(1,0,0,1,388,648) translate(60.05 14.6)"/><path d="M380 747h180v80H380z" stroke="#333" stroke-width="2" fill="#fff"/><path d="M380 784.6h180" stroke="#333" stroke-width="2" fill="none"/><use xlink:href="#D" transform="matrix(1,0,0,1,388,755) translate(36.62499999999999 14.6)"/><use xlink:href="#n" transform="matrix(1,0,0,1,388,755) translate(86.475 14.6)"/><path d="M380 856h180v80H380z" stroke="#333" stroke-width="2" fill="#fff"/><path d="M380 893.6h180" stroke="#333" stroke-width="2" fill="none"/><use xlink:href="#E" transform="matrix(1,0,0,1,388,864) translate(33.12499999999999 14.6)"/><use xlink:href="#n" transform="matrix(1,0,0,1,388,864) translate(89.975 14.6)"/><path d="M561.5 680H723a12 12 0 0 1 12 12v52.96a12 12 0 0 0 12 12h139" stroke="#333" fill="none"/><path d="M561.5 680.5h-.5v-1h.5z" stroke="#333" stroke-width=".05" fill="#333"/><path d="M908.02 756.96l-21.52 12.72v-25.45z" stroke="#333" fill="#fff"/><path d="M561.5 787H886" stroke="#333" fill="none"/><path d="M561.5 787.5h-.5v-1h.5z" stroke="#333" stroke-width=".05" fill="#333"/><path d="M908.02 787l-21.52 12.73v-25.46z" stroke="#333" fill="#fff"/><path d="M561.5 896H723a12 12 0 0 0 12-12v-57.4a12 12 0 0 1 12-12h139" stroke="#333" fill="none"/><path d="M561.5 896.5h-.5v-1h.5z" stroke="#333" stroke-width=".05" fill="#333"/><path d="M908.02 814.6L886.5 827.3v-25.45z" stroke="#333" fill="#fff"/><path d="M1480 520h180v118h-180z" stroke="#333" stroke-width="2" fill="#fff"/><path d="M1480 557.6h180" stroke="#333" stroke-width="2" fill="none"/><use xlink:href="#m" transform="matrix(1,0,0,1,1488,528) translate(44.074999999999996 14.6)"/><use xlink:href="#n" transform="matrix(1,0,0,1,1488,528) translate(79.025 14.6)"/><use xlink:href="#F" transform="matrix(1,0,0,1,1492,565.6) translate(68.05 14.500000000000002)"/><use xlink:href="#G" transform="matrix(1,0,0,1,1492,565.6) translate(47.599999999999994 36.1)"/><use xlink:href="#H" transform="matrix(1,0,0,1,1492,565.6) translate(78 57.7)"/><path d="M1470 793h200v119h-200z" stroke="#333" stroke-width="2" fill="#fff"/><path d="M1470 852.2h200" stroke="#333" stroke-width="2" fill="none"/><use xlink:href="#I" transform="matrix(1,0,0,1,1478,801) translate(20.32499999999999 14.799999999999999)"/><use xlink:href="#J" transform="matrix(1,0,0,1,1478,801) translate(62.92499999999999 14.799999999999999)"/><use xlink:href="#K" transform="matrix(1,0,0,1,1478,801) translate(61.074999999999996 36.4)"/><path d="M1570 791.5V669.37" stroke="#333" fill="none"/><path d="M1570.5 792h-1v-.5h1z" stroke="#333" stroke-width=".05" fill="#333"/><path d="M1570 639.7l14.85 14.86L1570 669.7l-14.85-15.14z" stroke="#333" fill="#333"/><path d="M1478.5 611.73h-217.28a12 12 0 0 1-12-12V486.37" stroke="#333" fill="none"/><path d="M1479 612.23h-.5v-1h.5z" stroke="#333" stroke-width=".05" fill="#333"/><path d="M1249.22 456.7l14.85 14.86-14.85 15.15-14.85-15.14z" stroke="#333" fill="#333"/><path d="M1478.5 548.23h-435.3a12 12 0 0 1-12-12v-49.86" stroke="#333" fill="none"/><path d="M1479 548.73h-.5v-1h.5z" stroke="#333" stroke-width=".05" fill="#333"/><path d="M1031.2 456.7l14.85 14.86-14.85 15.15-14.85-15.14z" stroke="#333" fill="#333"/><path d="M1035 169.93h161v55.35h-161z" fill="#fff" fill-opacity="0"/><use xlink:href="#d" transform="matrix(1,0,0,1,1040,174.93333333333342) translate(62 14.4)"/><path d="M933.6 458.53h240v60h-240z" fill="none"/><use xlink:href="#L" transform="matrix(1,0,0,1,933.5999999999999,458.53333333333336) translate(115 33.6)"/><path d="M1340 503h240v60h-240z" fill="none"/><use xlink:href="#L" transform="matrix(1,0,0,1,1340,503) translate(115 33.6)"/><path d="M1152.27 458.53h240v60h-240z" fill="none"/><use xlink:href="#L" transform="matrix(1,0,0,1,1152.2666666666667,458.53333333333336) translate(115 33.6)"/><path d="M1340 571.5h240v60h-240z" fill="none"/><use xlink:href="#L" transform="matrix(1,0,0,1,1340,571.5) translate(115 33.6)"/><path d="M1480 640h240v60h-240z" fill="none"/><use xlink:href="#L" transform="matrix(1,0,0,1,1480,640) translate(115 33.6)"/><path d="M1470 740h240v60h-240z" fill="none"/><use xlink:href="#L" transform="matrix(1,0,0,1,1470,740) translate(115 33.6)"/><path d="M900 689.73h240v60H900z" fill="none"/><use xlink:href="#c" transform="matrix(1,0,0,1,900,689.7333333333333) translate(106.5 33.6)"/><path d="M880 822.5h240v60H880z" fill="none"/><use xlink:href="#L" transform="matrix(1,0,0,1,880,822.5) translate(115 33.6)"/><path d="M740 884.27h240v60H740z" fill="none"/><use xlink:href="#L" transform="matrix(1,0,0,1,740,884.2666666666667) translate(115 33.6)"/><path d="M995.5 884.27h240v60h-240z" fill="none"/><use xlink:href="#L" transform="matrix(1,0,0,1,995.5,884.2666666666667) translate(115 33.6)"/><path d="M560 480h240v60H560z" fill="none"/><use xlink:href="#L" transform="matrix(1,0,0,1,560,480) translate(115 33.6)"/><path d="M813.17 689.47h240v60h-240z" fill="none"/><use xlink:href="#L" transform="matrix(1,0,0,1,813.1701864320752,689.4666666666667) translate(115 33.6)"/><path d="M560 340h240v60H560z" fill="none"/><use xlink:href="#c" transform="matrix(1,0,0,1,560,340) translate(106.5 33.6)"/><path d="M600 375h240v60H600z" fill="none"/><use xlink:href="#c" transform="matrix(1,0,0,1,600,375) translate(106.5 33.6)"/><path d="M1120 225.28h240v60h-240z" fill="none"/><use xlink:href="#L" transform="matrix(1,0,0,1,1120,225.28410711301893) translate(115 33.6)"/><path d="M1220 260h240v60h-240z" fill="none"/><use xlink:href="#L" transform="matrix(1,0,0,1,1220,260) translate(115 33.6)"/><path d="M1061.5 600.5h27.5a12 12 0 0 1 12 12V667a12 12 0 0 0 12 12h389.93a12 12 0 0 0 12-12v-28" stroke="#333" fill="none"/><path d="M1061.5 601h-.5v-1h.5z" stroke="#333" stroke-width=".05" fill="#333"/><path d="M1529.93 639.5h-30" stroke="#333" fill="none"/><path d="M1340 300h240v60h-240z" fill="none"/><use xlink:href="#L" transform="matrix(1,0,0,1,1340,300) translate(115 33.6)"/><path d="M980 740.93h240v60H980z" fill="none"/><use xlink:href="#L" transform="matrix(1,0,0,1,980,740.9333333333334) translate(115 33.6)"/><path d="M1220 936h172.27v75H1220z" stroke="#333" stroke-width="2" fill="#fff"/><path d="M1220 973.6h172.27" stroke="#333" stroke-width="2" fill="none"/><use xlink:href="#M" transform="matrix(1,0,0,1,1228,944) translate(56.55 14.6)"/><path d="M1306.13 934.5v-99.57a12 12 0 0 0-12-12H1071" stroke="#333" fill="none"/><path d="M1306.63 935h-1v-.5h1z" stroke="#333" stroke-width=".05" fill="#333"/><path d="M1071.5 807.93v30" stroke="#333" fill="none"/><path d="M1080 812.6h240v60h-240z" fill="none"/><use xlink:href="#N" transform="matrix(1,0,0,1,1080,812.6) translate(82.025 33.6)"/><path d="M960 130.4h240v60H960z" fill="none"/><use xlink:href="#a" transform="matrix(1,0,0,1,960,130.40872022317612) translate(88.5 33.6)"/><use xlink:href="#b" transform="matrix(1,0,0,1,960,130.40872022317612) translate(132.5 33.6)"/><path d="M530 360h240v60H530z" fill="none"/><use xlink:href="#O" transform="matrix(1,0,0,1,530,360) translate(77.525 33.6)"/><path d="M1173.6 638h240v60h-240z" fill="none"/><g><use xlink:href="#P" transform="matrix(1,0,0,1,1173.6,638) translate(76.55 33.6)"/></g><path d="M797.6 839.8h240v60h-240z" fill="none"/><g><use xlink:href="#Q" transform="matrix(1,0,0,1,797.5999999999999,839.7983401060579) translate(78.025 33.6)"/></g><path d="M940 839.8h240v60H940z" fill="none"/><g><use xlink:href="#Q" transform="matrix(1,0,0,1,940,839.7983401060579) translate(78.025 33.6)"/></g><path d="M1480 689.73h240v60h-240z" fill="none"/><g><use xlink:href="#R" transform="matrix(1,0,0,1,1480,689.7333333333333) translate(93.025 33.6)"/></g><path d="M1173.6 200h240v60h-240z" fill="none"/><g><use xlink:href="#O" transform="matrix(1,0,0,1,1173.6,200) translate(77.525 33.6)"/></g><path d="M663.98 645.4h240v60h-240z" fill="none"/><g><use xlink:href="#S" transform="matrix(1,0,0,1,663.9750555056245,645.4009996805261) translate(89.05 33.6)"/></g><path d="M912.27 660h240v60h-240z" fill="none"/><g><use xlink:href="#S" transform="matrix(1,0,0,1,912.2666666666667,660) translate(89.05 33.6)"/></g><path d="M1277.6 740.93h240v60h-240z" fill="none"/><g><use xlink:href="#S" transform="matrix(1,0,0,1,1277.6,740.9333333333334) translate(89.05 33.6)"/></g><path d="M960 549h240v60H960z" fill="none"/><g><use xlink:href="#c" transform="matrix(1,0,0,1,960,549) translate(106.5 33.6)"/></g><path d="M1380 629.47h240v60h-240z" fill="none"/><g><use xlink:href="#L" transform="matrix(1,0,0,1,1380,629.4666666666667) translate(115 33.6)"/></g><defs><path fill="#333" d="M84 4C-5 8 30-112 23-190h32v120c0 31 7 50 39 49 72-2 45-101 50-169h31l1 190h-30c-1-10 1-25-2-33-11 22-28 36-60 37" id="T"/><path fill="#333" d="M135-143c-3-34-86-38-87 0 15 53 115 12 119 90S17 21 10-45l28-5c4 36 97 45 98 0-10-56-113-15-118-90-4-57 82-63 122-42 12 7 21 19 24 35" id="U"/><path fill="#333" d="M100-194c63 0 86 42 84 106H49c0 40 14 67 53 68 26 1 43-12 49-29l28 8c-11 28-37 45-77 45C44 4 14-33 15-96c1-61 26-98 85-98zm52 81c6-60-76-77-97-28-3 7-6 17-6 28h103" id="V"/><path fill="#333" d="M85-194c31 0 48 13 60 33l-1-100h32l1 261h-30c-2-10 0-23-3-31C134-8 116 4 85 4 32 4 16-35 15-94c0-66 23-100 70-100zm9 24c-40 0-46 34-46 75 0 40 6 74 45 74 42 0 51-32 51-76 0-42-9-74-50-73" id="W"/><g id="a"><use transform="matrix(0.05,0,0,0.05,0,0)" xlink:href="#T"/><use transform="matrix(0.05,0,0,0.05,10,0)" xlink:href="#U"/><use transform="matrix(0.05,0,0,0.05,19,0)" xlink:href="#V"/><use transform="matrix(0.05,0,0,0.05,29,0)" xlink:href="#W"/></g><path fill="#333" d="M115-194c53 0 69 39 70 98 0 66-23 100-70 100C84 3 66-7 56-30L54 0H23l1-261h32v101c10-23 28-34 59-34zm-8 174c40 0 45-34 45-75 0-40-5-75-45-74-42 0-51 32-51 76 0 43 10 73 51 73" id="X"/><path fill="#333" d="M179-190L93 31C79 59 56 82 12 73V49c39 6 53-20 64-50L1-190h34L92-34l54-156h33" id="Y"/><g id="b"><use transform="matrix(0.05,0,0,0.05,0,0)" xlink:href="#X"/><use transform="matrix(0.05,0,0,0.05,10,0)" xlink:href="#Y"/></g><path fill="#333" d="M27 0v-27h64v-190l-56 39v-29l58-41h29v221h61V0H27" id="Z"/><path fill="#333" d="M33 0v-38h34V0H33" id="aa"/><path fill="#333" d="M80-196l47-18 7 23-49 13 32 44-20 13-27-46-27 45-21-12 33-44-49-13 8-23 47 19-2-53h23" id="ab"/><g id="c"><use transform="matrix(0.05,0,0,0.05,0,0)" xlink:href="#Z"/><use transform="matrix(0.05,0,0,0.05,10,0)" xlink:href="#aa"/><use transform="matrix(0.05,0,0,0.05,15,0)" xlink:href="#aa"/><use transform="matrix(0.05,0,0,0.05,20,0)" xlink:href="#ab"/></g><path fill="#333" d="M101-251c68 0 85 55 85 127S166 4 100 4C33 4 14-52 14-124c0-73 17-127 87-127zm-1 229c47 0 54-49 54-102s-4-102-53-102c-51 0-55 48-55 102 0 53 5 102 54 102" id="ac"/><g id="d"><use transform="matrix(0.05,0,0,0.05,0,0)" xlink:href="#ac"/><use transform="matrix(0.05,0,0,0.05,10,0)" xlink:href="#aa"/><use transform="matrix(0.05,0,0,0.05,15,0)" xlink:href="#aa"/><use transform="matrix(0.05,0,0,0.05,20,0)" xlink:href="#ab"/></g><path d="M15-91v-56l181-69v40L49-119l147 57v40" id="ad"/><path d="M240-174c0 40-23 61-54 70L253 0h-59l-57-94H76V0H24v-248c93 4 217-23 216 74zM76-134c48-2 112 12 112-38 0-48-66-32-112-35v73" id="ae"/><path d="M185-48c-13 30-37 53-82 52C43 2 14-33 14-96s30-98 90-98c62 0 83 45 84 108H66c0 31 8 55 39 56 18 0 30-7 34-22zm-45-69c5-46-57-63-70-21-2 6-4 13-4 21h74" id="af"/><path d="M195-6C206 82 75 100 31 46c-4-6-6-13-8-21l49-6c3 16 16 24 34 25 40 0 42-37 40-79-11 22-30 35-61 35-53 0-70-43-70-97 0-56 18-96 73-97 30 0 46 14 59 34l2-30h47zm-90-29c32 0 41-27 41-63 0-35-9-62-40-62-32 0-39 29-40 63 0 36 9 62 39 62" id="ag"/><path d="M25-224v-37h50v37H25zM25 0v-190h50V0H25" id="ah"/><path d="M137-138c1-29-70-34-71-4 15 46 118 7 119 86 1 83-164 76-172 9l43-7c4 19 20 25 44 25 33 8 57-30 24-41C81-84 22-81 20-136c-2-80 154-74 161-7" id="ai"/><path d="M115-3C79 11 28 4 28-45v-112H4v-33h27l15-45h31v45h36v33H77v99c-1 23 16 31 38 25v30" id="aj"/><path d="M135-150c-39-12-60 13-60 57V0H25l-1-190h47c2 13-1 29 3 40 6-28 27-53 61-41v41" id="ak"/><path d="M88-194c31-1 46 15 58 34l-1-101h50l1 261h-48c-2-10 0-23-3-31C134-8 116 4 84 4 32 4 16-41 15-95c0-56 19-97 73-99zm17 164c33 0 40-30 41-66 1-37-9-64-41-64s-38 30-39 65c0 43 13 65 39 65" id="al"/><path d="M238-95c0 69-44 99-111 99C63 4 22-25 22-93v-155h51v151c-1 38 19 59 55 60 90 1 49-130 58-211h52v153" id="am"/><path d="M15-22v-40l146-57-146-57v-40l181 69v56" id="an"/><g id="e"><use transform="matrix(0.05,0,0,0.05,0,0)" xlink:href="#ad"/><use transform="matrix(0.05,0,0,0.05,10.5,0)" xlink:href="#ad"/><use transform="matrix(0.05,0,0,0.05,21,0)" xlink:href="#ae"/><use transform="matrix(0.05,0,0,0.05,33.95,0)" xlink:href="#af"/><use transform="matrix(0.05,0,0,0.05,43.95,0)" xlink:href="#ag"/><use transform="matrix(0.05,0,0,0.05,54.900000000000006,0)" xlink:href="#ah"/><use transform="matrix(0.05,0,0,0.05,59.900000000000006,0)" xlink:href="#ai"/><use transform="matrix(0.05,0,0,0.05,69.9,0)" xlink:href="#aj"/><use transform="matrix(0.05,0,0,0.05,75.85000000000001,0)" xlink:href="#af"/><use transform="matrix(0.05,0,0,0.05,85.85000000000001,0)" xlink:href="#ak"/><use transform="matrix(0.05,0,0,0.05,92.85000000000001,0)" xlink:href="#af"/><use transform="matrix(0.05,0,0,0.05,102.85000000000001,0)" xlink:href="#al"/><use transform="matrix(0.05,0,0,0.05,113.80000000000001,0)" xlink:href="#am"/><use transform="matrix(0.05,0,0,0.05,126.75,0)" xlink:href="#ai"/><use transform="matrix(0.05,0,0,0.05,136.75,0)" xlink:href="#af"/><use transform="matrix(0.05,0,0,0.05,146.75,0)" xlink:href="#ak"/><use transform="matrix(0.05,0,0,0.05,153.75,0)" xlink:href="#an"/><use transform="matrix(0.05,0,0,0.05,164.25,0)" xlink:href="#an"/></g><path fill="#333" d="M16-82v-28h88v28H16" id="ao"/><path fill="#333" d="M117-194c89-4 53 116 60 194h-32v-121c0-31-8-49-39-48C34-167 62-67 57 0H25l-1-190h30c1 10-1 24 2 32 11-22 29-35 61-36" id="ap"/><path fill="#333" d="M141-36C126-15 110 5 73 4 37 3 15-17 15-53c-1-64 63-63 125-63 3-35-9-54-41-54-24 1-41 7-42 31l-33-3c5-37 33-52 76-52 45 0 72 20 72 64v82c-1 20 7 32 28 27v20c-31 9-61-2-59-35zM48-53c0 20 12 33 32 33 41-3 63-29 60-74-43 2-92-5-92 41" id="aq"/><path fill="#333" d="M210-169c-67 3-38 105-44 169h-31v-121c0-29-5-50-35-48C34-165 62-65 56 0H25l-1-190h30c1 10-1 24 2 32 10-44 99-50 107 0 11-21 27-35 58-36 85-2 47 119 55 194h-31v-121c0-29-5-49-35-48" id="ar"/><g id="f"><use transform="matrix(0.05,0,0,0.05,0,0)" xlink:href="#ao"/><use transform="matrix(0.05,0,0,0.05,5.95,0)" xlink:href="#ap"/><use transform="matrix(0.05,0,0,0.05,15.949999999999998,0)" xlink:href="#aq"/><use transform="matrix(0.05,0,0,0.05,25.950000000000003,0)" xlink:href="#ar"/><use transform="matrix(0.05,0,0,0.05,40.9,0)" xlink:href="#V"/></g><path fill="#333" d="M24-231v-30h32v30H24zM24 0v-190h32V0H24" id="as"/><path fill="#333" d="M24 0v-261h32V0H24" id="at"/><g id="g"><use transform="matrix(0.05,0,0,0.05,0,0)" xlink:href="#ao"/><use transform="matrix(0.05,0,0,0.05,5.95,0)" xlink:href="#V"/><use transform="matrix(0.05,0,0,0.05,15.949999999999998,0)" xlink:href="#ar"/><use transform="matrix(0.05,0,0,0.05,30.899999999999995,0)" xlink:href="#aq"/><use transform="matrix(0.05,0,0,0.05,40.9,0)" xlink:href="#as"/><use transform="matrix(0.05,0,0,0.05,44.85,0)" xlink:href="#at"/></g><path fill="#333" d="M114-163C36-179 61-72 57 0H25l-1-190h30c1 12-1 29 2 39 6-27 23-49 58-41v29" id="au"/><g id="h"><use transform="matrix(0.05,0,0,0.05,0,0)" xlink:href="#ao"/><use transform="matrix(0.05,0,0,0.05,5.95,0)" xlink:href="#aq"/><use transform="matrix(0.05,0,0,0.05,15.949999999999998,0)" xlink:href="#W"/><use transform="matrix(0.05,0,0,0.05,25.950000000000003,0)" xlink:href="#W"/><use transform="matrix(0.05,0,0,0.05,35.95,0)" xlink:href="#au"/><use transform="matrix(0.05,0,0,0.05,41.900000000000006,0)" xlink:href="#V"/><use transform="matrix(0.05,0,0,0.05,51.900000000000006,0)" xlink:href="#U"/><use transform="matrix(0.05,0,0,0.05,60.900000000000006,0)" xlink:href="#U"/></g><path fill="#333" d="M143 4C61 4 22-44 18-125c-5-107 100-154 193-111 17 8 29 25 37 43l-32 9c-13-25-37-40-76-40-61 0-88 39-88 99 0 61 29 100 91 101 35 0 62-11 79-27v-45h-74v-28h105v86C228-13 192 4 143 4" id="av"/><path fill="#333" d="M100-194c62-1 85 37 85 99 1 63-27 99-86 99S16-35 15-95c0-66 28-99 85-99zM99-20c44 1 53-31 53-75 0-43-8-75-51-75s-53 32-53 75 10 74 51 75" id="aw"/><g id="i"><use transform="matrix(0.05,0,0,0.05,0,0)" xlink:href="#ao"/><use transform="matrix(0.05,0,0,0.05,5.95,0)" xlink:href="#as"/><use transform="matrix(0.05,0,0,0.05,9.9,0)" xlink:href="#av"/><use transform="matrix(0.05,0,0,0.05,23.9,0)" xlink:href="#aw"/></g><path fill="#333" d="M212-179c-10-28-35-45-73-45-59 0-87 40-87 99 0 60 29 101 89 101 43 0 62-24 78-52l27 14C228-24 195 4 139 4 59 4 22-46 18-125c-6-104 99-153 187-111 19 9 31 26 39 46" id="ax"/><g id="j"><use transform="matrix(0.05,0,0,0.05,0,0)" xlink:href="#ax"/><use transform="matrix(0.05,0,0,0.05,12.950000000000001,0)" xlink:href="#aq"/><use transform="matrix(0.05,0,0,0.05,22.950000000000003,0)" xlink:href="#au"/><use transform="matrix(0.05,0,0,0.05,28.900000000000002,0)" xlink:href="#W"/></g><path fill="#333" d="M33 0v-248h34V0H33" id="ay"/><g id="k"><use transform="matrix(0.05,0,0,0.05,0,0)" xlink:href="#ay"/><use transform="matrix(0.05,0,0,0.05,5,0)" xlink:href="#W"/></g><path d="M67-125c0 54 23 88 75 88 28 0 53-7 68-21v-34h-60v-39h108v91C232-14 192 4 140 4 58 4 20-42 15-125 8-236 126-280 215-234c19 10 29 26 37 47l-47 15c-11-23-29-39-63-39-53 1-75 33-75 86" id="az"/><path d="M85 4C-2 5 27-109 22-190h50c7 57-23 150 33 157 60-5 35-97 40-157h50l1 190h-47c-2-12 1-28-3-38-12 25-28 42-61 42" id="aA"/><g id="l"><use transform="matrix(0.05,0,0,0.05,0,0)" xlink:href="#az"/><use transform="matrix(0.05,0,0,0.05,14,0)" xlink:href="#aA"/><use transform="matrix(0.05,0,0,0.05,24.950000000000003,0)" xlink:href="#af"/><use transform="matrix(0.05,0,0,0.05,34.95,0)" xlink:href="#ai"/><use transform="matrix(0.05,0,0,0.05,44.95,0)" xlink:href="#aj"/><use transform="matrix(0.05,0,0,0.05,50.900000000000006,0)" xlink:href="#am"/><use transform="matrix(0.05,0,0,0.05,63.85,0)" xlink:href="#ai"/><use transform="matrix(0.05,0,0,0.05,73.85000000000001,0)" xlink:href="#af"/><use transform="matrix(0.05,0,0,0.05,83.85000000000001,0)" xlink:href="#ak"/></g><path d="M110-194c64 0 96 36 96 99 0 64-35 99-97 99-61 0-95-36-95-99 0-62 34-99 96-99zm-1 164c35 0 45-28 45-65 0-40-10-65-43-65-34 0-45 26-45 65 0 36 10 65 43 65" id="aB"/><g id="m"><use transform="matrix(0.05,0,0,0.05,0,0)" xlink:href="#ah"/><use transform="matrix(0.05,0,0,0.05,5,0)" xlink:href="#az"/><use transform="matrix(0.05,0,0,0.05,19,0)" xlink:href="#aB"/></g><path d="M67-125c0 53 21 87 73 88 37 1 54-22 65-47l45 17C233-25 199 4 140 4 58 4 20-42 15-125 8-235 124-281 211-232c18 10 29 29 36 50l-46 12c-8-25-30-41-62-41-52 0-71 34-72 86" id="aC"/><path d="M133-34C117-15 103 5 69 4 32 3 11-16 11-54c-1-60 55-63 116-61 1-26-3-47-28-47-18 1-26 9-28 27l-52-2c7-38 36-58 82-57s74 22 75 68l1 82c-1 14 12 18 25 15v27c-30 8-71 5-69-32zm-48 3c29 0 43-24 42-57-32 0-66-3-65 30 0 17 8 27 23 27" id="aD"/><g id="n"><use transform="matrix(0.05,0,0,0.05,0,0)" xlink:href="#aC"/><use transform="matrix(0.05,0,0,0.05,12.950000000000001,0)" xlink:href="#aD"/><use transform="matrix(0.05,0,0,0.05,22.950000000000003,0)" xlink:href="#ak"/><use transform="matrix(0.05,0,0,0.05,29.950000000000003,0)" xlink:href="#al"/></g><path d="M136-208V0H84v-208H4v-40h212v40h-80" id="aE"/><path d="M190-63c-7 42-38 67-86 67-59 0-84-38-90-98-12-110 154-137 174-36l-49 2c-2-19-15-32-35-32-30 0-35 28-38 64-6 74 65 87 74 30" id="aF"/><path d="M147 0L96-86 75-71V0H25v-261h50v150l67-79h53l-66 74L201 0h-54" id="aG"/><g id="o"><use transform="matrix(0.05,0,0,0.05,0,0)" xlink:href="#aE"/><use transform="matrix(0.05,0,0,0.05,10.600000000000001,0)" xlink:href="#ah"/><use transform="matrix(0.05,0,0,0.05,15.600000000000001,0)" xlink:href="#aF"/><use transform="matrix(0.05,0,0,0.05,25.6,0)" xlink:href="#aG"/><use transform="matrix(0.05,0,0,0.05,35.6,0)" xlink:href="#af"/><use transform="matrix(0.05,0,0,0.05,45.6,0)" xlink:href="#aj"/></g><path fill="#333" d="M115-194c55 1 70 41 70 98S169 2 115 4C84 4 66-9 55-30l1 105H24l-1-265h31l2 30c10-21 28-34 59-34zm-8 174c40 0 45-34 45-75s-6-73-45-74c-42 0-51 32-51 76 0 43 10 73 51 73" id="aH"/><path fill="#333" d="M127-220V0H93v-220H8v-28h204v28h-85" id="aI"/><g id="p"><use transform="matrix(0.05,0,0,0.05,0,0)" xlink:href="#ao"/><use transform="matrix(0.05,0,0,0.05,5.95,0)" xlink:href="#aH"/><use transform="matrix(0.05,0,0,0.05,15.949999999999998,0)" xlink:href="#at"/><use transform="matrix(0.05,0,0,0.05,19.9,0)" xlink:href="#aq"/><use transform="matrix(0.05,0,0,0.05,29.899999999999995,0)" xlink:href="#ap"/><use transform="matrix(0.05,0,0,0.05,39.9,0)" xlink:href="#aI"/><use transform="matrix(0.05,0,0,0.05,49.85,0)" xlink:href="#Y"/><use transform="matrix(0.05,0,0,0.05,58.85,0)" xlink:href="#aH"/><use transform="matrix(0.05,0,0,0.05,68.85,0)" xlink:href="#V"/></g><path d="M25 0v-261h50V0H25" id="aJ"/><g id="q"><use transform="matrix(0.05,0,0,0.05,0,0)" xlink:href="#ae"/><use transform="matrix(0.05,0,0,0.05,12.950000000000001,0)" xlink:href="#af"/><use transform="matrix(0.05,0,0,0.05,22.950000000000003,0)" xlink:href="#aJ"/><use transform="matrix(0.05,0,0,0.05,27.950000000000003,0)" xlink:href="#aB"/><use transform="matrix(0.05,0,0,0.05,38.900000000000006,0)" xlink:href="#aD"/><use transform="matrix(0.05,0,0,0.05,48.900000000000006,0)" xlink:href="#al"/></g><g id="r"><use transform="matrix(0.05,0,0,0.05,0,0)" xlink:href="#ah"/><use transform="matrix(0.05,0,0,0.05,5,0)" xlink:href="#az"/><use transform="matrix(0.05,0,0,0.05,19,0)" xlink:href="#aB"/></g><g id="s"><use transform="matrix(0.05,0,0,0.05,0,0)" xlink:href="#aC"/><use transform="matrix(0.05,0,0,0.05,12.950000000000001,0)" xlink:href="#aD"/><use transform="matrix(0.05,0,0,0.05,22.950000000000003,0)" xlink:href="#ak"/><use transform="matrix(0.05,0,0,0.05,29.950000000000003,0)" xlink:href="#al"/></g><path d="M24-248c93 1 206-16 204 79-1 75-69 88-152 82V0H24v-248zm52 121c47 0 100 7 100-41 0-47-54-39-100-39v80" id="aK"/><path d="M123 10C108 53 80 86 19 72V37c35 8 53-11 59-39L3-190h52l48 148c12-52 28-100 44-148h51" id="aL"/><path d="M220-157c-53 9-28 100-34 157h-49v-107c1-27-5-49-29-50C55-147 81-57 75 0H25l-1-190h47c2 12-1 28 3 38 10-53 101-56 108 0 13-22 24-43 59-42 82 1 51 116 57 194h-49v-107c-1-25-5-48-29-50" id="aM"/><path d="M135-194c87-1 58 113 63 194h-50c-7-57 23-157-34-157-59 0-34 97-39 157H25l-1-190h47c2 12-1 28 3 38 12-26 28-41 61-42" id="aN"/><g id="t"><use transform="matrix(0.05,0,0,0.05,0,0)" xlink:href="#aK"/><use transform="matrix(0.05,0,0,0.05,12,0)" xlink:href="#aD"/><use transform="matrix(0.05,0,0,0.05,22,0)" xlink:href="#aL"/><use transform="matrix(0.05,0,0,0.05,32,0)" xlink:href="#aM"/><use transform="matrix(0.05,0,0,0.05,48,0)" xlink:href="#af"/><use transform="matrix(0.05,0,0,0.05,58,0)" xlink:href="#aN"/><use transform="matrix(0.05,0,0,0.05,68.95,0)" xlink:href="#aj"/></g><path d="M24 0v-248h195v40H76v63h132v40H76v65h150V0H24" id="aO"/><path d="M135-194c53 0 70 44 70 98 0 56-19 98-73 100-31 1-45-17-59-34 3 33 2 69 2 105H25l-1-265h48c2 10 0 23 3 31 11-24 29-35 60-35zM114-30c33 0 39-31 40-66 0-38-9-64-40-64-56 0-55 130 0 130" id="aP"/><g id="u"><use transform="matrix(0.05,0,0,0.05,0,0)" xlink:href="#aO"/><use transform="matrix(0.05,0,0,0.05,12,0)" xlink:href="#aM"/><use transform="matrix(0.05,0,0,0.05,28,0)" xlink:href="#aD"/><use transform="matrix(0.05,0,0,0.05,38,0)" xlink:href="#ah"/><use transform="matrix(0.05,0,0,0.05,43,0)" xlink:href="#aJ"/><use transform="matrix(0.05,0,0,0.05,48,0)" xlink:href="#ae"/><use transform="matrix(0.05,0,0,0.05,60.95,0)" xlink:href="#af"/><use transform="matrix(0.05,0,0,0.05,70.95,0)" xlink:href="#aF"/><use transform="matrix(0.05,0,0,0.05,80.95,0)" xlink:href="#af"/><use transform="matrix(0.05,0,0,0.05,90.95,0)" xlink:href="#ah"/><use transform="matrix(0.05,0,0,0.05,95.95,0)" xlink:href="#aP"/><use transform="matrix(0.05,0,0,0.05,106.9,0)" xlink:href="#aj"/></g><path d="M169-182c-1-43-94-46-97-3 18 66 151 10 154 114 3 95-165 93-204 36-6-8-10-19-12-30l50-8c3 46 112 56 116 5-17-69-150-10-154-114-4-87 153-88 188-35 5 8 8 18 10 28" id="aQ"/><g id="v"><use transform="matrix(0.05,0,0,0.05,0,0)" xlink:href="#aQ"/><use transform="matrix(0.05,0,0,0.05,12,0)" xlink:href="#aL"/><use transform="matrix(0.05,0,0,0.05,22,0)" xlink:href="#ai"/><use transform="matrix(0.05,0,0,0.05,32,0)" xlink:href="#aj"/><use transform="matrix(0.05,0,0,0.05,37.95,0)" xlink:href="#af"/><use transform="matrix(0.05,0,0,0.05,47.95,0)" xlink:href="#aM"/></g><path fill="#333" d="M96-169c-40 0-48 33-48 73s9 75 48 75c24 0 41-14 43-38l32 2c-6 37-31 61-74 61-59 0-76-41-82-99-10-93 101-131 147-64 4 7 5 14 7 22l-32 3c-4-21-16-35-41-35" id="aR"/><path fill="#333" d="M59-47c-2 24 18 29 38 22v24C64 9 27 4 27-40v-127H5v-23h24l9-43h21v43h35v23H59v120" id="aS"/><g id="w"><use transform="matrix(0.05,0,0,0.05,0,0)" xlink:href="#ao"/><use transform="matrix(0.05,0,0,0.05,5.95,0)" xlink:href="#at"/><use transform="matrix(0.05,0,0,0.05,9.9,0)" xlink:href="#aw"/><use transform="matrix(0.05,0,0,0.05,19.9,0)" xlink:href="#aR"/><use transform="matrix(0.05,0,0,0.05,28.899999999999995,0)" xlink:href="#aq"/><use transform="matrix(0.05,0,0,0.05,38.9,0)" xlink:href="#aS"/><use transform="matrix(0.05,0,0,0.05,43.9,0)" xlink:href="#as"/><use transform="matrix(0.05,0,0,0.05,47.85,0)" xlink:href="#aw"/><use transform="matrix(0.05,0,0,0.05,57.85,0)" xlink:href="#ap"/></g><path fill="#333" d="M177-190C167-65 218 103 67 71c-23-6-38-20-44-43l32-5c15 47 100 32 89-28v-30C133-14 115 1 83 1 29 1 15-40 15-95c0-56 16-97 71-98 29-1 48 16 59 35 1-10 0-23 2-32h30zM94-22c36 0 50-32 50-73 0-42-14-75-50-75-39 0-46 34-46 75s6 73 46 73" id="aT"/><g id="x"><use transform="matrix(0.05,0,0,0.05,0,0)" xlink:href="#ao"/><use transform="matrix(0.05,0,0,0.05,5.95,0)" xlink:href="#at"/><use transform="matrix(0.05,0,0,0.05,9.9,0)" xlink:href="#aq"/><use transform="matrix(0.05,0,0,0.05,19.9,0)" xlink:href="#ap"/><use transform="matrix(0.05,0,0,0.05,29.899999999999995,0)" xlink:href="#aT"/><use transform="matrix(0.05,0,0,0.05,39.9,0)" xlink:href="#T"/><use transform="matrix(0.05,0,0,0.05,49.9,0)" xlink:href="#aq"/><use transform="matrix(0.05,0,0,0.05,59.900000000000006,0)" xlink:href="#aT"/><use transform="matrix(0.05,0,0,0.05,69.9,0)" xlink:href="#V"/></g><g id="y"><use transform="matrix(0.05,0,0,0.05,0,0)" xlink:href="#aK"/><use transform="matrix(0.05,0,0,0.05,12,0)" xlink:href="#ak"/><use transform="matrix(0.05,0,0,0.05,19,0)" xlink:href="#ah"/><use transform="matrix(0.05,0,0,0.05,24,0)" xlink:href="#aN"/><use transform="matrix(0.05,0,0,0.05,34.95,0)" xlink:href="#aj"/><use transform="matrix(0.05,0,0,0.05,40.900000000000006,0)" xlink:href="#ae"/><use transform="matrix(0.05,0,0,0.05,53.85,0)" xlink:href="#af"/><use transform="matrix(0.05,0,0,0.05,63.85,0)" xlink:href="#aF"/><use transform="matrix(0.05,0,0,0.05,73.85000000000001,0)" xlink:href="#af"/><use transform="matrix(0.05,0,0,0.05,83.85000000000001,0)" xlink:href="#ah"/><use transform="matrix(0.05,0,0,0.05,88.85000000000001,0)" xlink:href="#aP"/><use transform="matrix(0.05,0,0,0.05,99.80000000000001,0)" xlink:href="#aj"/></g><g id="z"><use transform="matrix(0.05,0,0,0.05,0,0)" xlink:href="#ae"/><use transform="matrix(0.05,0,0,0.05,12.950000000000001,0)" xlink:href="#af"/><use transform="matrix(0.05,0,0,0.05,22.950000000000003,0)" xlink:href="#ag"/><use transform="matrix(0.05,0,0,0.05,33.900000000000006,0)" xlink:href="#aA"/><use transform="matrix(0.05,0,0,0.05,44.85000000000001,0)" xlink:href="#aJ"/><use transform="matrix(0.05,0,0,0.05,49.85000000000001,0)" xlink:href="#aD"/><use transform="matrix(0.05,0,0,0.05,59.85,0)" xlink:href="#ak"/></g><g id="A"><use transform="matrix(0.05,0,0,0.05,0,0)" xlink:href="#am"/><use transform="matrix(0.05,0,0,0.05,12.950000000000001,0)" xlink:href="#ai"/><use transform="matrix(0.05,0,0,0.05,22.950000000000003,0)" xlink:href="#af"/><use transform="matrix(0.05,0,0,0.05,32.95,0)" xlink:href="#ak"/></g><path d="M4 7l51-268h42L46 7H4" id="aU"/><g id="B"><use transform="matrix(0.05,0,0,0.05,0,0)" xlink:href="#aQ"/><use transform="matrix(0.05,0,0,0.05,12,0)" xlink:href="#aj"/><use transform="matrix(0.05,0,0,0.05,17.95,0)" xlink:href="#aA"/><use transform="matrix(0.05,0,0,0.05,28.899999999999995,0)" xlink:href="#al"/><use transform="matrix(0.05,0,0,0.05,39.85,0)" xlink:href="#af"/><use transform="matrix(0.05,0,0,0.05,49.85,0)" xlink:href="#aN"/><use transform="matrix(0.05,0,0,0.05,60.800000000000004,0)" xlink:href="#aj"/><use transform="matrix(0.05,0,0,0.05,66.75,0)" xlink:href="#aU"/><use transform="matrix(0.05,0,0,0.05,71.75,0)" xlink:href="#aQ"/><use transform="matrix(0.05,0,0,0.05,83.75,0)" xlink:href="#af"/><use transform="matrix(0.05,0,0,0.05,93.75,0)" xlink:href="#aN"/><use transform="matrix(0.05,0,0,0.05,104.7,0)" xlink:href="#ah"/><use transform="matrix(0.05,0,0,0.05,109.7,0)" xlink:href="#aB"/><use transform="matrix(0.05,0,0,0.05,120.65,0)" xlink:href="#ak"/></g><path d="M114-157C55-157 80-60 75 0H25v-261h50l-1 109c12-26 28-41 61-42 86-1 58 113 63 194h-50c-7-57 23-157-34-157" id="aV"/><g id="C"><use transform="matrix(0.05,0,0,0.05,0,0)" xlink:href="#aC"/><use transform="matrix(0.05,0,0,0.05,12.950000000000001,0)" xlink:href="#aD"/><use transform="matrix(0.05,0,0,0.05,22.950000000000003,0)" xlink:href="#ai"/><use transform="matrix(0.05,0,0,0.05,32.95,0)" xlink:href="#aV"/></g><path d="M24-248c120-7 223 5 221 122C244-46 201 0 124 0H24v-248zM76-40c74 7 117-18 117-86 0-67-45-88-117-82v168" id="aW"/><path d="M135-194c52 0 70 43 70 98 0 56-19 99-73 100-30 1-46-15-58-35L72 0H24l1-261h50v104c11-23 29-37 60-37zM114-30c31 0 40-27 40-66 0-37-7-63-39-63s-41 28-41 65c0 36 8 64 40 64" id="aX"/><g id="D"><use transform="matrix(0.05,0,0,0.05,0,0)" xlink:href="#aW"/><use transform="matrix(0.05,0,0,0.05,12.950000000000001,0)" xlink:href="#af"/><use transform="matrix(0.05,0,0,0.05,22.950000000000003,0)" xlink:href="#aX"/><use transform="matrix(0.05,0,0,0.05,33.900000000000006,0)" xlink:href="#ah"/><use transform="matrix(0.05,0,0,0.05,38.900000000000006,0)" xlink:href="#aj"/></g><g id="E"><use transform="matrix(0.05,0,0,0.05,0,0)" xlink:href="#aC"/><use transform="matrix(0.05,0,0,0.05,12.950000000000001,0)" xlink:href="#ak"/><use transform="matrix(0.05,0,0,0.05,19.950000000000003,0)" xlink:href="#af"/><use transform="matrix(0.05,0,0,0.05,29.950000000000003,0)" xlink:href="#al"/><use transform="matrix(0.05,0,0,0.05,40.900000000000006,0)" xlink:href="#ah"/><use transform="matrix(0.05,0,0,0.05,45.900000000000006,0)" xlink:href="#aj"/></g><g id="F"><use transform="matrix(0.05,0,0,0.05,0,0)" xlink:href="#ao"/><use transform="matrix(0.05,0,0,0.05,5.95,0)" xlink:href="#as"/><use transform="matrix(0.05,0,0,0.05,9.9,0)" xlink:href="#W"/></g><path fill="#333" d="M108 0H70L1-190h34L89-25l56-165h34" id="aY"/><g id="G"><use transform="matrix(0.05,0,0,0.05,0,0)" xlink:href="#ao"/><use transform="matrix(0.05,0,0,0.05,5.95,0)" xlink:href="#aY"/><use transform="matrix(0.05,0,0,0.05,14.949999999999998,0)" xlink:href="#aq"/><use transform="matrix(0.05,0,0,0.05,24.95,0)" xlink:href="#at"/><use transform="matrix(0.05,0,0,0.05,28.899999999999995,0)" xlink:href="#as"/><use transform="matrix(0.05,0,0,0.05,32.85,0)" xlink:href="#W"/><use transform="matrix(0.05,0,0,0.05,42.85,0)" xlink:href="#as"/><use transform="matrix(0.05,0,0,0.05,46.800000000000004,0)" xlink:href="#aS"/><use transform="matrix(0.05,0,0,0.05,51.800000000000004,0)" xlink:href="#Y"/></g><path d="M147 0H94L2-248h55l64 206c17-72 42-137 63-206h54" id="aZ"/><g id="I"><use transform="matrix(0.05,0,0,0.05,0,0)" xlink:href="#aZ"/><use transform="matrix(0.05,0,0,0.05,11.65,0)" xlink:href="#ah"/><use transform="matrix(0.05,0,0,0.05,16.65,0)" xlink:href="#ai"/><use transform="matrix(0.05,0,0,0.05,26.649999999999995,0)" xlink:href="#ah"/><use transform="matrix(0.05,0,0,0.05,31.649999999999995,0)" xlink:href="#aj"/></g><g id="J"><use transform="matrix(0.05,0,0,0.05,0,0)" xlink:href="#aE"/><use transform="matrix(0.05,0,0,0.05,9.950000000000001,0)" xlink:href="#ak"/><use transform="matrix(0.05,0,0,0.05,16.950000000000003,0)" xlink:href="#aD"/><use transform="matrix(0.05,0,0,0.05,26.950000000000003,0)" xlink:href="#aN"/><use transform="matrix(0.05,0,0,0.05,37.900000000000006,0)" xlink:href="#ai"/><use transform="matrix(0.05,0,0,0.05,47.900000000000006,0)" xlink:href="#aD"/><use transform="matrix(0.05,0,0,0.05,57.900000000000006,0)" xlink:href="#aF"/><use transform="matrix(0.05,0,0,0.05,67.9,0)" xlink:href="#aj"/><use transform="matrix(0.05,0,0,0.05,73.85000000000001,0)" xlink:href="#ah"/><use transform="matrix(0.05,0,0,0.05,78.85000000000001,0)" xlink:href="#aB"/><use transform="matrix(0.05,0,0,0.05,89.80000000000001,0)" xlink:href="#aN"/></g><path d="M186 0v-106H76V0H24v-248h52v99h110v-99h50V0h-50" id="ba"/><g id="K"><use transform="matrix(0.05,0,0,0.05,0,0)" xlink:href="#ba"/><use transform="matrix(0.05,0,0,0.05,12.950000000000001,0)" xlink:href="#ah"/><use transform="matrix(0.05,0,0,0.05,17.950000000000003,0)" xlink:href="#ai"/><use transform="matrix(0.05,0,0,0.05,27.950000000000003,0)" xlink:href="#aj"/><use transform="matrix(0.05,0,0,0.05,33.900000000000006,0)" xlink:href="#aB"/><use transform="matrix(0.05,0,0,0.05,44.85000000000001,0)" xlink:href="#ak"/><use transform="matrix(0.05,0,0,0.05,51.85,0)" xlink:href="#aL"/></g><use transform="matrix(0.05,0,0,0.05,0,0)" xlink:href="#Z" id="L"/><path d="M182-130c37 4 62 22 62 59C244 23 116-4 24 0v-248c84 5 203-23 205 63 0 31-19 50-47 55zM76-148c40-3 101 13 101-30 0-44-60-28-101-31v61zm0 110c48-3 116 14 116-37 0-48-69-32-116-35v72" id="bb"/><g id="M"><use transform="matrix(0.05,0,0,0.05,0,0)" xlink:href="#bb"/><use transform="matrix(0.05,0,0,0.05,12.950000000000001,0)" xlink:href="#aD"/><use transform="matrix(0.05,0,0,0.05,22.950000000000003,0)" xlink:href="#aN"/><use transform="matrix(0.05,0,0,0.05,33.900000000000006,0)" xlink:href="#aG"/></g><path fill="#333" d="M205 0l-28-72H64L36 0H1l101-248h38L239 0h-34zm-38-99l-47-123c-12 45-31 82-46 123h93" id="bc"/><g id="N"><use transform="matrix(0.05,0,0,0.05,0,0)" xlink:href="#bc"/><use transform="matrix(0.05,0,0,0.05,12,0)" xlink:href="#aH"/><use transform="matrix(0.05,0,0,0.05,22,0)" xlink:href="#aH"/><use transform="matrix(0.05,0,0,0.05,32,0)" xlink:href="#au"/><use transform="matrix(0.05,0,0,0.05,37.95,0)" xlink:href="#aw"/><use transform="matrix(0.05,0,0,0.05,47.95,0)" xlink:href="#aY"/><use transform="matrix(0.05,0,0,0.05,56.95,0)" xlink:href="#V"/><use transform="matrix(0.05,0,0,0.05,66.95,0)" xlink:href="#U"/></g><path fill="#333" d="M30-248c87 1 191-15 191 75 0 78-77 80-158 76V0H30v-248zm33 125c57 0 124 11 124-50 0-59-68-47-124-48v98" id="bd"/><path fill="#333" d="M106-169C34-169 62-67 57 0H25v-261h32l-1 103c12-21 28-36 61-36 89 0 53 116 60 194h-32v-121c2-32-8-49-39-48" id="be"/><g id="O"><use transform="matrix(0.05,0,0,0.05,0,0)" xlink:href="#bd"/><use transform="matrix(0.05,0,0,0.05,12,0)" xlink:href="#T"/><use transform="matrix(0.05,0,0,0.05,22,0)" xlink:href="#au"/><use transform="matrix(0.05,0,0,0.05,27.950000000000003,0)" xlink:href="#aR"/><use transform="matrix(0.05,0,0,0.05,36.95,0)" xlink:href="#be"/><use transform="matrix(0.05,0,0,0.05,46.95,0)" xlink:href="#aq"/><use transform="matrix(0.05,0,0,0.05,56.95,0)" xlink:href="#U"/><use transform="matrix(0.05,0,0,0.05,65.95,0)" xlink:href="#V"/><use transform="matrix(0.05,0,0,0.05,75.95,0)" xlink:href="#U"/></g><path fill="#333" d="M233-177c-1 41-23 64-60 70L243 0h-38l-65-103H63V0H30v-248c88 3 205-21 203 71zM63-129c60-2 137 13 137-47 0-61-80-42-137-45v92" id="bf"/><g id="P"><use transform="matrix(0.05,0,0,0.05,0,0)" xlink:href="#bf"/><use transform="matrix(0.05,0,0,0.05,12.950000000000001,0)" xlink:href="#V"/><use transform="matrix(0.05,0,0,0.05,22.950000000000003,0)" xlink:href="#aR"/><use transform="matrix(0.05,0,0,0.05,31.950000000000003,0)" xlink:href="#be"/><use transform="matrix(0.05,0,0,0.05,41.95,0)" xlink:href="#aq"/><use transform="matrix(0.05,0,0,0.05,51.95,0)" xlink:href="#au"/><use transform="matrix(0.05,0,0,0.05,57.900000000000006,0)" xlink:href="#aT"/><use transform="matrix(0.05,0,0,0.05,67.9,0)" xlink:href="#V"/><use transform="matrix(0.05,0,0,0.05,77.9,0)" xlink:href="#U"/></g><g id="Q"><use transform="matrix(0.05,0,0,0.05,0,0)" xlink:href="#av"/><use transform="matrix(0.05,0,0,0.05,14,0)" xlink:href="#V"/><use transform="matrix(0.05,0,0,0.05,24,0)" xlink:href="#ap"/><use transform="matrix(0.05,0,0,0.05,34,0)" xlink:href="#V"/><use transform="matrix(0.05,0,0,0.05,44,0)" xlink:href="#au"/><use transform="matrix(0.05,0,0,0.05,49.95,0)" xlink:href="#aq"/><use transform="matrix(0.05,0,0,0.05,59.95,0)" xlink:href="#aS"/><use transform="matrix(0.05,0,0,0.05,64.95,0)" xlink:href="#V"/><use transform="matrix(0.05,0,0,0.05,74.95,0)" xlink:href="#U"/></g><path fill="#333" d="M185-189c-5-48-123-54-124 2 14 75 158 14 163 119 3 78-121 87-175 55-17-10-28-26-33-46l33-7c5 56 141 63 141-1 0-78-155-14-162-118-5-82 145-84 179-34 5 7 8 16 11 25" id="bg"/><path fill="#333" d="M206 0h-36l-40-164L89 0H53L-1-190h32L70-26l43-164h34l41 164 42-164h31" id="bh"/><g id="R"><use transform="matrix(0.05,0,0,0.05,0,0)" xlink:href="#bg"/><use transform="matrix(0.05,0,0,0.05,12,0)" xlink:href="#be"/><use transform="matrix(0.05,0,0,0.05,22,0)" xlink:href="#aw"/><use transform="matrix(0.05,0,0,0.05,32,0)" xlink:href="#bh"/><use transform="matrix(0.05,0,0,0.05,44.95,0)" xlink:href="#U"/></g><g id="S"><use transform="matrix(0.05,0,0,0.05,0,0)" xlink:href="#ay"/><use transform="matrix(0.05,0,0,0.05,5,0)" xlink:href="#ap"/><use transform="matrix(0.05,0,0,0.05,15,0)" xlink:href="#as"/><use transform="matrix(0.05,0,0,0.05,18.95,0)" xlink:href="#aS"/><use transform="matrix(0.05,0,0,0.05,23.95,0)" xlink:href="#as"/><use transform="matrix(0.05,0,0,0.05,27.899999999999995,0)" xlink:href="#aq"/><use transform="matrix(0.05,0,0,0.05,37.9,0)" xlink:href="#aS"/><use transform="matrix(0.05,0,0,0.05,42.9,0)" xlink:href="#V"/><use transform="matrix(0.05,0,0,0.05,52.900000000000006,0)" xlink:href="#U"/></g></defs></g></svg>