<svg xmlns="http://www.w3.org/2000/svg" xmlns:xlink="http://www.w3.org/1999/xlink" xmlns:lucid="lucid" width="1357" height="1020"><g transform="translate(-125 -292)" lucid:page-tab-id="0_0"><path d="M0 0h1608.32v2081.35H0z" fill-opacity="0"/><path d="M165.56 337.73a8 8 0 0 1 8-8h99a8 8 0 0 1 8 8v4.93a17.07 17.07 0 0 1-5 12.07 17.07 17.07 0 0 1-12.07 5h-89.94a8 8 0 0 1-8-8z" fill="#fff"/><path d="M280.56 329.73v20l-10 10h-105" stroke="#333" fill="none"/><path d="M165.56 337.73a8 8 0 0 1 8-8h386.08a8 8 0 0 1 8 8v931.46a8 8 0 0 1-8 8H173.56a8 8 0 0 1-8-8z" stroke="#333" fill="none"/><use xlink:href="#a" transform="matrix(1,0,0,1,173.56187938209152,329.73135845970387) translate(0 18.6)"/><use xlink:href="#b" transform="matrix(1,0,0,1,173.56187938209152,329.73135845970387) translate(53 18.6)"/><path d="M567.64 339.57a8 8 0 0 1 8-8h84a8 8 0 0 1 8 8v4.93a17.07 17.07 0 0 1-5 12.07 17.07 17.07 0 0 1-12.07 5h-74.93a8 8 0 0 1-8-8z" fill="#fff"/><path d="M667.64 331.57v20l-10 10h-90" stroke="#333" fill="none"/><path d="M567.64 339.57a8 8 0 0 1 8-8h551.64a8 8 0 0 1 8 8v929.62a8 8 0 0 1-8 8H575.64a8 8 0 0 1-8-8z" stroke="#333" fill="none"/><use xlink:href="#c" transform="matrix(1,0,0,1,575.6407293100281,331.57117315668677) translate(23.022463625561883 19.321811749447562)"/><path d="M1135.28 337.73a8 8 0 0 1 8-8h99a8 8 0 0 1 8 8v4.93a17.07 17.07 0 0 1-5 12.07 17.07 17.07 0 0 1-12.07 5h-89.92a8 8 0 0 1-8-8z" fill="#fff"/><path d="M1250.28 329.73v20l-10 10h-105" stroke="#333" fill="none"/><path d="M1135.28 337.73a8 8 0 0 1 8-8h291.47a8 8 0 0 1 8 8v931.46a8 8 0 0 1-8 8h-291.47a8 8 0 0 1-8-8z" stroke="#333" fill="none"/><use xlink:href="#d" transform="matrix(1,0,0,1,1143.2814586200561,329.73135845970387) translate(0 18.6)"/><path d="M371.12 412.02c0 11.05-8.95 20-20 20-11.04 0-20-8.95-20-20 0-11.04 8.96-20 20-20 11.05 0 20 8.96 20 20z" stroke="#333"/><path d="M360.17 1226.24c0 11.04-8.96 20-20 20-11.05 0-20-8.96-20-20 0-11.05 8.95-20 20-20 11.04 0 20 8.95 20 20z" stroke="#333" fill="#fff"/><path d="M352.17 1226.24c0 6.62-5.37 12-12 12s-12-5.38-12-12c0-6.63 5.37-12 12-12s12 5.37 12 12z" stroke="#333"/><path d="M287.12 510.28c-8.83 0-16 7.17-16 16v48c0 8.84 7.17 16 16 16h128c8.84 0 16-7.16 16-16v-48c0-8.83-7.16-16-16-16z" stroke="#333" fill="#fff"/><use xlink:href="#e" transform="matrix(1,0,0,1,279.1237587641831,518.2813550563428) translate(42.01743098820755 23.35637650110488)"/><use xlink:href="#f" transform="matrix(1,0,0,1,279.1237587641831,518.2813550563428) translate(23.97986945058266 49.28724699779025)"/><path d="M287.12 668.54c-8.83 0-16 7.16-16 16v48c0 8.84 7.17 16 16 16h128c8.84 0 16-7.16 16-16v-48c0-8.84-7.16-16-16-16z" stroke="#333" fill="#fff"/><use xlink:href="#g" transform="matrix(1,0,0,1,279.1237587641831,676.5398403292654) translate(4.501703996475257 23.35637650110488)"/><use xlink:href="#h" transform="matrix(1,0,0,1,279.1237587641831,676.5398403292654) translate(50.060802855234954 23.35637650110488)"/><use xlink:href="#i" transform="matrix(1,0,0,1,279.1237587641831,676.5398403292654) translate(37.81566956513353 49.28724699779025)"/><path d="M287.12 830.27c-8.83 0-16 7.16-16 16v48c0 8.83 7.17 16 16 16h128c8.84 0 16-7.17 16-16v-48c0-8.84-7.16-16-16-16z" stroke="#333" fill="#fff"/><use xlink:href="#j" transform="matrix(1,0,0,1,279.1237587641831,838.2669675703348) translate(20.888573546463917 23.35637650110488)"/><use xlink:href="#k" transform="matrix(1,0,0,1,279.1237587641831,838.2669675703348) translate(86.85622788872598 23.35637650110488)"/><use xlink:href="#l" transform="matrix(1,0,0,1,279.1237587641831,838.2669675703348) translate(48.62019893875244 49.28724699779025)"/><path d="M787.46 420.7c-8.84 0-16 7.17-16 16v48c0 8.84 7.16 16 16 16h128c8.84 0 16-7.16 16-16v-48c0-8.83-7.16-16-16-16z" stroke="#333" fill="#fff"/><use xlink:href="#m" transform="matrix(1,0,0,1,779.4610939650421,428.701557338361) translate(33.013656510191794 23.35637650110488)"/><use xlink:href="#n" transform="matrix(1,0,0,1,779.4610939650421,428.701557338361) translate(29.412146718985497 49.28724699779025)"/><path d="M848.3 619.6a7.6 7.6 0 0 1 11 0l15 15.76a8.42 8.42 0 0 1 0 11.6l-15 15.78a7.6 7.6 0 0 1-11 0l-14.98-15.77a8.42 8.42 0 0 1 0-11.6zM787.46 813.27c-8.84 0-16 7.16-16 16v48c0 8.84 7.16 16 16 16h128c8.84 0 16-7.16 16-16v-48c0-8.84-7.16-16-16-16z" stroke="#333" fill="#fff"/><use xlink:href="#o" transform="matrix(1,0,0,1,779.4610939650421,821.2700449885356) translate(39.64643704233007 23.35637650110488)"/><use xlink:href="#p" transform="matrix(1,0,0,1,779.4610939650421,821.2700449885356) translate(34.214159773927236 49.28724699779025)"/><path d="M877.6 641.17h182.7a1.3 1.3 0 0 1 1.3 1.3 1.3 1.3 0 0 0 1.32 1.32h166.8" stroke="#000" fill="none"/><path d="M877.62 641.67h-.55l.04-.5-.03-.5h.55z" stroke="#000" stroke-width=".05"/><path d="M1244.5 643.8l-14.27 4.63v-9.27z" stroke="#000"/><path d="M853.8 796.4V666.1" stroke="#000" fill="none"/><path d="M853.8 811.15l-4.63-14.26h9.27z" stroke="#000"/><path d="M853.8 665.6l.5-.03v.55h-1v-.55z" stroke="#000" stroke-width=".05"/><path d="M851.46 501.7v92.85a1.17 1.17 0 0 0 1.17 1.18 1.17 1.17 0 0 1 1.17 1.17v3.44" stroke="#000" fill="none"/><path d="M851.96 501.7h-1v-.5h1z" stroke="#000" stroke-width=".05"/><path d="M853.8 615.1l-4.63-14.26h9.27z" stroke="#000"/><path d="M802.94 806.15a8 8 0 0 1-8-8v-110.6a8 8 0 0 1 8-8h44a8 8 0 0 1 8 8v110.6a8 8 0 0 1-8 8z" stroke="#000" stroke-opacity="0" fill="#fff" fill-opacity="0"/><use xlink:href="#q" transform="matrix(6.123233995736766e-17,-1,1,6.123233995736766e-17,799.9441234191972,801.145754129707) translate(12.370662090965965 20.412246997790245)"/><use xlink:href="#r" transform="matrix(6.123233995736766e-17,-1,1,6.123233995736766e-17,799.9441234191972,801.145754129707) translate(61.531270740931966 20.412246997790245)"/><use xlink:href="#s" transform="matrix(6.123233995736766e-17,-1,1,6.123233995736766e-17,799.9441234191972,801.145754129707) translate(33.31944404314928 46.34311749447561)"/><path d="M922.42 650.02a8 8 0 0 1 8-8h224a8 8 0 0 1 8 8v44a8 8 0 0 1-8 8h-224a8 8 0 0 1-8-8z" stroke="#000" stroke-opacity="0" fill="#fff" fill-opacity="0"/><use xlink:href="#q" transform="matrix(1,0,0,1,927.4161851287956,647.0245406890796) translate(42.51961545197321 29.787246997790245)"/><use xlink:href="#t" transform="matrix(1,0,0,1,927.4161851287956,647.0245406890796) translate(91.68022410193922 29.787246997790245)"/><use xlink:href="#u" transform="matrix(1,0,0,1,927.4161851287956,647.0245406890796) translate(140.78080758871843 29.787246997790245)"/><path d="M845.8 1040.85a8 8 0 0 1 11.32 0l24.16 24.17a8 8 0 0 1 0 11.3l-24.16 24.17a8 8 0 0 1-11.32 0l-24.16-24.17a8 8 0 0 1 0-11.3zM1319.1 585.15a10.43 10.43 0 0 1 12.7 0l70.08 53.77a6.14 6.14 0 0 1 0 9.74l-70.08 53.78a10.43 10.43 0 0 1-12.7 0l-70.08-53.78a6.14 6.14 0 0 1 0-9.74z" stroke="#333" fill="#fff"/><path d="M1325.45 705.6v360.07a5 5 0 0 1-5 5H900.5" stroke="#000" fill="none"/><path d="M1325.45 705.1l.5-.04v.54h-1v-.54z" stroke="#000" stroke-width=".05"/><path d="M885.74 1070.67l14.27-4.63v9.27z" stroke="#000"/><path d="M1169.02 518.28a8 8 0 0 1 8-8h224a8 8 0 0 1 8 8v44a8 8 0 0 1-8 8h-224a8 8 0 0 1-8-8z" stroke="#000" stroke-opacity="0" fill="#fff" fill-opacity="0"/><use xlink:href="#v" transform="matrix(1,0,0,1,1174.0174894748552,515.2813550563428) translate(83.8469403060655 29.787246997790245)"/><path d="M1182.6 761.27a8 8 0 0 1 8-8h224a8 8 0 0 1 8 8v44a8 8 0 0 1-8 8h-224a8 8 0 0 1-8-8z" stroke="#000" stroke-opacity="0" fill="#fff" fill-opacity="0"/><use xlink:href="#w" transform="matrix(1,0,0,1,1187.584852729225,758.2700449885356) translate(91.86029959149951 29.787246997790245)"/><path d="M851.46 894.27v127.36" stroke="#000" fill="none"/><path d="M851.96 894.28h-1v-.5h1z" stroke="#000" stroke-width=".05"/><path d="M851.46 1036.4l-4.63-14.28h9.27z" stroke="#000"/><path d="M432.12 870.27H596.3a5 5 0 0 0 5-5V465.7a5 5 0 0 1 5-5h148.28" stroke="#000" fill="none"/><path d="M432.14 870.77h-.52v-1h.52z" stroke="#000" stroke-width=".05"/><path d="M769.34 460.7l-14.26 4.64v-9.27z" stroke="#000"/><path d="M1325.45 582V465.7a5 5 0 0 0-5-5h-372.1" stroke="#000" fill="none"/><path d="M1325.95 582.53l-.5-.04-.5.03v-.55h1z" stroke="#000" stroke-width=".05"/><path d="M933.58 460.7l14.26-4.63v9.27z" stroke="#000"/><path d="M276.17 1030.67c-8.84 0-16 7.17-16 16v48c0 8.84 7.16 16 16 16h128c8.83 0 16-7.16 16-16v-48c0-8.83-7.17-16-16-16z" stroke="#333" fill="#fff"/><use xlink:href="#x" transform="matrix(1,0,0,1,268.16866760042956,1038.6746704017182) translate(7.713050226967539 36.32181174944756)"/><use xlink:href="#y" transform="matrix(1,0,0,1,268.16866760042956,1038.6746704017182) translate(79.56317056153323 36.32181174944756)"/><path d="M818.3 1070.67H437.05" stroke="#000" fill="none"/><path d="M818.8 1070.67l.04.5h-.56v-1h.56z" stroke="#000" stroke-width=".05"/><path d="M422.3 1070.67l14.25-4.63v9.27z" stroke="#000"/><path d="M351.12 749.54v63.84" stroke="#000" fill="none"/><path d="M351.62 749.55h-1v-.5h1z" stroke="#000" stroke-width=".05"/><path d="M351.12 828.15l-4.63-14.27h9.26z" stroke="#000"/><path d="M351.12 591.28v60.38" stroke="#000" fill="none"/><path d="M351.62 591.3h-1v-.52h1z" stroke="#000" stroke-width=".05"/><path d="M351.12 666.42l-4.63-14.26h9.26z" stroke="#000"/><path d="M351.12 433.02v60.38" stroke="#000" fill="none"/><path d="M351.1 432.52h.52v.52h-1v-.58z" stroke="#000" stroke-width=".05"/><path d="M351.12 508.16l-4.63-14.26h9.26z" stroke="#000"/><path d="M1217.28 621.8a8 8 0 0 1 8-8h200.34a8 8 0 0 1 8 8v44a8 8 0 0 1-8 8h-200.34a8 8 0 0 1-8-8z" stroke="#000" stroke-opacity="0" fill="#fff" fill-opacity="0"/><g><use xlink:href="#z" transform="matrix(1,0,0,1,1222.275974747778,618.792316849879) translate(31.589854502247533 29.787246997790245)"/><use xlink:href="#A" transform="matrix(1,0,0,1,1222.275974747778,618.792316849879) translate(128.71056853844408 29.787246997790245)"/></g><path d="M340.17 1111.67v77.68" stroke="#000" fill="none"/><path d="M340.67 1111.7h-1v-.53h1z" stroke="#000" stroke-width=".05"/><path d="M340.17 1204.12l-4.64-14.27h9.27z" stroke="#000"/><defs><path d="M143 4C61 4 22-44 18-125c-5-107 100-154 193-111 17 8 29 25 37 43l-32 9c-13-25-37-40-76-40-61 0-88 39-88 99 0 61 29 100 91 101 35 0 62-11 79-27v-45h-74v-28h105v86C228-13 192 4 143 4" id="B"/><path d="M84 4C-5 8 30-112 23-190h32v120c0 31 7 50 39 49 72-2 45-101 50-169h31l1 190h-30c-1-10 1-25-2-33-11 22-28 36-60 37" id="C"/><path d="M100-194c63 0 86 42 84 106H49c0 40 14 67 53 68 26 1 43-12 49-29l28 8c-11 28-37 45-77 45C44 4 14-33 15-96c1-61 26-98 85-98zm52 81c6-60-76-77-97-28-3 7-6 17-6 28h103" id="D"/><path d="M135-143c-3-34-86-38-87 0 15 53 115 12 119 90S17 21 10-45l28-5c4 36 97 45 98 0-10-56-113-15-118-90-4-57 82-63 122-42 12 7 21 19 24 35" id="E"/><path d="M59-47c-2 24 18 29 38 22v24C64 9 27 4 27-40v-127H5v-23h24l9-43h21v43h35v23H59v120" id="F"/><g id="a"><use transform="matrix(0.05,0,0,0.05,0,0)" xlink:href="#B"/><use transform="matrix(0.05,0,0,0.05,14,0)" xlink:href="#C"/><use transform="matrix(0.05,0,0,0.05,24,0)" xlink:href="#D"/><use transform="matrix(0.05,0,0,0.05,34,0)" xlink:href="#E"/><use transform="matrix(0.05,0,0,0.05,43,0)" xlink:href="#F"/></g><path d="M232-93c-1 65-40 97-104 97C67 4 28-28 28-90v-158h33c8 89-33 224 67 224 102 0 64-133 71-224h33v155" id="G"/><path d="M114-163C36-179 61-72 57 0H25l-1-190h30c1 12-1 29 2 39 6-27 23-49 58-41v29" id="H"/><g id="b"><use transform="matrix(0.05,0,0,0.05,0,0)" xlink:href="#G"/><use transform="matrix(0.05,0,0,0.05,12.950000000000001,0)" xlink:href="#E"/><use transform="matrix(0.05,0,0,0.05,21.950000000000003,0)" xlink:href="#D"/><use transform="matrix(0.05,0,0,0.05,31.950000000000003,0)" xlink:href="#H"/></g><path fill="#666" d="M25-224v-37h50v37H25zM25 0v-190h50V0H25" id="I"/><path fill="#666" d="M67-125c0 54 23 88 75 88 28 0 53-7 68-21v-34h-60v-39h108v91C232-14 192 4 140 4 58 4 20-42 15-125 8-236 126-280 215-234c19 10 29 26 37 47l-47 15c-11-23-29-39-63-39-53 1-75 33-75 86" id="J"/><path fill="#666" d="M110-194c64 0 96 36 96 99 0 64-35 99-97 99-61 0-95-36-95-99 0-62 34-99 96-99zm-1 164c35 0 45-28 45-65 0-40-10-65-43-65-34 0-45 26-45 65 0 36 10 65 43 65" id="K"/><g id="c"><use transform="matrix(0.060025163186771674,0,0,0.060025163186771674,0,0)" xlink:href="#I"/><use transform="matrix(0.060025163186771674,0,0,0.060025163186771674,6.002516318677167,0)" xlink:href="#J"/><use transform="matrix(0.060025163186771674,0,0,0.060025163186771674,22.809562010973234,0)" xlink:href="#K"/></g><path d="M160-131c35 5 61 23 61 61C221 17 115-2 30 0v-248c76 3 177-17 177 60 0 33-19 50-47 57zm-97-11c50-1 110 9 110-42 0-47-63-36-110-37v79zm0 115c55-2 124 14 124-45 0-56-70-42-124-44v89" id="L"/><path d="M141-36C126-15 110 5 73 4 37 3 15-17 15-53c-1-64 63-63 125-63 3-35-9-54-41-54-24 1-41 7-42 31l-33-3c5-37 33-52 76-52 45 0 72 20 72 64v82c-1 20 7 32 28 27v20c-31 9-61-2-59-35zM48-53c0 20 12 33 32 33 41-3 63-29 60-74-43 2-92-5-92 41" id="M"/><path d="M117-194c89-4 53 116 60 194h-32v-121c0-31-8-49-39-48C34-167 62-67 57 0H25l-1-190h30c1 10-1 24 2 32 11-22 29-35 61-36" id="N"/><path d="M143 0L79-87 56-68V0H24v-261h32v163l83-92h37l-77 82L181 0h-38" id="O"/><g id="d"><use transform="matrix(0.05,0,0,0.05,0,0)" xlink:href="#L"/><use transform="matrix(0.05,0,0,0.05,12,0)" xlink:href="#M"/><use transform="matrix(0.05,0,0,0.05,22,0)" xlink:href="#N"/><use transform="matrix(0.05,0,0,0.05,32,0)" xlink:href="#O"/></g><path fill="#666" d="M185-189c-5-48-123-54-124 2 14 75 158 14 163 119 3 78-121 87-175 55-17-10-28-26-33-46l33-7c5 56 141 63 141-1 0-78-155-14-162-118-5-82 145-84 179-34 5 7 8 16 11 25" id="P"/><path fill="#666" d="M100-194c63 0 86 42 84 106H49c0 40 14 67 53 68 26 1 43-12 49-29l28 8c-11 28-37 45-77 45C44 4 14-33 15-96c1-61 26-98 85-98zm52 81c6-60-76-77-97-28-3 7-6 17-6 28h103" id="Q"/><path fill="#666" d="M24 0v-261h32V0H24" id="R"/><path fill="#666" d="M96-169c-40 0-48 33-48 73s9 75 48 75c24 0 41-14 43-38l32 2c-6 37-31 61-74 61-59 0-76-41-82-99-10-93 101-131 147-64 4 7 5 14 7 22l-32 3c-4-21-16-35-41-35" id="S"/><path fill="#666" d="M59-47c-2 24 18 29 38 22v24C64 9 27 4 27-40v-127H5v-23h24l9-43h21v43h35v23H59v120" id="T"/><g id="e"><use transform="matrix(0.060025163186771674,0,0,0.060025163186771674,0,0)" xlink:href="#P"/><use transform="matrix(0.060025163186771674,0,0,0.060025163186771674,14.406039164825202,0)" xlink:href="#Q"/><use transform="matrix(0.060025163186771674,0,0,0.060025163186771674,26.411071802179535,0)" xlink:href="#R"/><use transform="matrix(0.060025163186771674,0,0,0.060025163186771674,31.153059693934498,0)" xlink:href="#Q"/><use transform="matrix(0.060025163186771674,0,0,0.060025163186771674,43.158092331288834,0)" xlink:href="#S"/><use transform="matrix(0.060025163186771674,0,0,0.060025163186771674,53.96262170490773,0)" xlink:href="#T"/></g><path fill="#666" d="M30 0v-248h33v221h125V0H30" id="U"/><path fill="#666" d="M141-36C126-15 110 5 73 4 37 3 15-17 15-53c-1-64 63-63 125-63 3-35-9-54-41-54-24 1-41 7-42 31l-33-3c5-37 33-52 76-52 45 0 72 20 72 64v82c-1 20 7 32 28 27v20c-31 9-61-2-59-35zM48-53c0 20 12 33 32 33 41-3 63-29 60-74-43 2-92-5-92 41" id="V"/><path fill="#666" d="M117-194c89-4 53 116 60 194h-32v-121c0-31-8-49-39-48C34-167 62-67 57 0H25l-1-190h30c1 10-1 24 2 32 11-22 29-35 61-36" id="W"/><path fill="#666" d="M177-190C167-65 218 103 67 71c-23-6-38-20-44-43l32-5c15 47 100 32 89-28v-30C133-14 115 1 83 1 29 1 15-40 15-95c0-56 16-97 71-98 29-1 48 16 59 35 1-10 0-23 2-32h30zM94-22c36 0 50-32 50-73 0-42-14-75-50-75-39 0-46 34-46 75s6 73 46 73" id="X"/><path fill="#666" d="M84 4C-5 8 30-112 23-190h32v120c0 31 7 50 39 49 72-2 45-101 50-169h31l1 190h-30c-1-10 1-25-2-33-11 22-28 36-60 37" id="Y"/><g id="f"><use transform="matrix(0.060025163186771674,0,0,0.060025163186771674,0,0)" xlink:href="#U"/><use transform="matrix(0.060025163186771674,0,0,0.060025163186771674,12.005032637354335,0)" xlink:href="#V"/><use transform="matrix(0.060025163186771674,0,0,0.060025163186771674,24.01006527470867,0)" xlink:href="#W"/><use transform="matrix(0.060025163186771674,0,0,0.060025163186771674,36.015097912063005,0)" xlink:href="#X"/><use transform="matrix(0.060025163186771674,0,0,0.060025163186771674,48.02013054941734,0)" xlink:href="#Y"/><use transform="matrix(0.060025163186771674,0,0,0.060025163186771674,60.02516318677167,0)" xlink:href="#V"/><use transform="matrix(0.060025163186771674,0,0,0.060025163186771674,72.03019582412601,0)" xlink:href="#X"/><use transform="matrix(0.060025163186771674,0,0,0.060025163186771674,84.03522846148034,0)" xlink:href="#Q"/></g><path fill="#666" d="M24-231v-30h32v30H24zM24 0v-190h32V0H24" id="Z"/><path fill="#666" d="M143 4C61 4 22-44 18-125c-5-107 100-154 193-111 17 8 29 25 37 43l-32 9c-13-25-37-40-76-40-61 0-88 39-88 99 0 61 29 100 91 101 35 0 62-11 79-27v-45h-74v-28h105v86C228-13 192 4 143 4" id="aa"/><path fill="#666" d="M100-194c62-1 85 37 85 99 1 63-27 99-86 99S16-35 15-95c0-66 28-99 85-99zM99-20c44 1 53-31 53-75 0-43-8-75-51-75s-53 32-53 75 10 74 51 75" id="ab"/><g id="g"><use transform="matrix(0.060025163186771674,0,0,0.060025163186771674,0,0)" xlink:href="#Z"/><use transform="matrix(0.060025163186771674,0,0,0.060025163186771674,4.741987891754962,0)" xlink:href="#aa"/><use transform="matrix(0.060025163186771674,0,0,0.060025163186771674,21.54903358405103,0)" xlink:href="#ab"/></g><path fill="#666" d="M266 0h-40l-56-210L115 0H75L2-248h35L96-30l15-64 43-154h32l59 218 59-218h35" id="ac"/><path fill="#666" d="M210-169c-67 3-38 105-44 169h-31v-121c0-29-5-50-35-48C34-165 62-65 56 0H25l-1-190h30c1 10-1 24 2 32 10-44 99-50 107 0 11-21 27-35 58-36 85-2 47 119 55 194h-31v-121c0-29-5-49-35-48" id="ad"/><g id="h"><use transform="matrix(0.060025163186771674,0,0,0.060025163186771674,0,0)" xlink:href="#ac"/><use transform="matrix(0.060025163186771674,0,0,0.060025163186771674,19.928354178008195,0)" xlink:href="#Q"/><use transform="matrix(0.060025163186771674,0,0,0.060025163186771674,31.93338681536253,0)" xlink:href="#R"/><use transform="matrix(0.060025163186771674,0,0,0.060025163186771674,36.67537470711749,0)" xlink:href="#S"/><use transform="matrix(0.060025163186771674,0,0,0.060025163186771674,47.47990408073639,0)" xlink:href="#ab"/><use transform="matrix(0.060025163186771674,0,0,0.060025163186771674,59.48493671809072,0)" xlink:href="#ad"/><use transform="matrix(0.060025163186771674,0,0,0.060025163186771674,77.43246051093546,0)" xlink:href="#Q"/></g><path fill="#666" d="M114-163C36-179 61-72 57 0H25l-1-190h30c1 12-1 29 2 39 6-27 23-49 58-41v29" id="ae"/><g id="i"><use transform="matrix(0.060025163186771674,0,0,0.060025163186771674,0,0)" xlink:href="#P"/><use transform="matrix(0.060025163186771674,0,0,0.060025163186771674,14.406039164825202,0)" xlink:href="#S"/><use transform="matrix(0.060025163186771674,0,0,0.060025163186771674,25.210568538444104,0)" xlink:href="#ae"/><use transform="matrix(0.060025163186771674,0,0,0.060025163186771674,32.353562957669936,0)" xlink:href="#Q"/><use transform="matrix(0.060025163186771674,0,0,0.060025163186771674,44.35859559502427,0)" xlink:href="#Q"/><use transform="matrix(0.060025163186771674,0,0,0.060025163186771674,56.3636282323786,0)" xlink:href="#W"/></g><g id="j"><use transform="matrix(0.060025163186771674,0,0,0.060025163186771674,0,0)" xlink:href="#P"/><use transform="matrix(0.060025163186771674,0,0,0.060025163186771674,14.406039164825202,0)" xlink:href="#Q"/><use transform="matrix(0.060025163186771674,0,0,0.060025163186771674,26.411071802179535,0)" xlink:href="#R"/><use transform="matrix(0.060025163186771674,0,0,0.060025163186771674,31.153059693934498,0)" xlink:href="#Q"/><use transform="matrix(0.060025163186771674,0,0,0.060025163186771674,43.158092331288834,0)" xlink:href="#S"/><use transform="matrix(0.060025163186771674,0,0,0.060025163186771674,53.96262170490773,0)" xlink:href="#T"/></g><path fill="#666" d="M127-220V0H93v-220H8v-28h204v28h-85" id="af"/><path fill="#666" d="M115-194c55 1 70 41 70 98S169 2 115 4C84 4 66-9 55-30l1 105H24l-1-265h31l2 30c10-21 28-34 59-34zm-8 174c40 0 45-34 45-75s-6-73-45-74c-42 0-51 32-51 76 0 43 10 73 51 73" id="ag"/><g id="k"><use transform="matrix(0.060025163186771674,0,0,0.060025163186771674,0,0)" xlink:href="#af"/><use transform="matrix(0.060025163186771674,0,0,0.060025163186771674,12.365183616474965,0)" xlink:href="#ae"/><use transform="matrix(0.060025163186771674,0,0,0.060025163186771674,19.508178035700794,0)" xlink:href="#Z"/><use transform="matrix(0.060025163186771674,0,0,0.060025163186771674,24.250165927455757,0)" xlink:href="#ag"/></g><path fill="#666" d="M179-190L93 31C79 59 56 82 12 73V49c39 6 53-20 64-50L1-190h34L92-34l54-156h33" id="ah"/><g id="l"><use transform="matrix(0.060025163186771674,0,0,0.060025163186771674,0,0)" xlink:href="#af"/><use transform="matrix(0.060025163186771674,0,0,0.060025163186771674,11.945007474167564,0)" xlink:href="#ah"/><use transform="matrix(0.060025163186771674,0,0,0.060025163186771674,22.749536847786466,0)" xlink:href="#ag"/><use transform="matrix(0.060025163186771674,0,0,0.060025163186771674,34.7545694851408,0)" xlink:href="#Q"/></g><path fill="#666" d="M30-248c87 1 191-15 191 75 0 78-77 80-158 76V0H30v-248zm33 125c57 0 124 11 124-50 0-59-68-47-124-48v98" id="ai"/><path fill="#666" d="M135-143c-3-34-86-38-87 0 15 53 115 12 119 90S17 21 10-45l28-5c4 36 97 45 98 0-10-56-113-15-118-90-4-57 82-63 122-42 12 7 21 19 24 35" id="aj"/><g id="m"><use transform="matrix(0.060025163186771674,0,0,0.060025163186771674,0,0)" xlink:href="#ai"/><use transform="matrix(0.060025163186771674,0,0,0.060025163186771674,14.406039164825202,0)" xlink:href="#ae"/><use transform="matrix(0.060025163186771674,0,0,0.060025163186771674,21.54903358405103,0)" xlink:href="#ab"/><use transform="matrix(0.060025163186771674,0,0,0.060025163186771674,33.554066221405364,0)" xlink:href="#S"/><use transform="matrix(0.060025163186771674,0,0,0.060025163186771674,44.35859559502427,0)" xlink:href="#Q"/><use transform="matrix(0.060025163186771674,0,0,0.060025163186771674,56.3636282323786,0)" xlink:href="#aj"/><use transform="matrix(0.060025163186771674,0,0,0.060025163186771674,67.16815760599751,0)" xlink:href="#aj"/></g><g id="n"><use transform="matrix(0.060025163186771674,0,0,0.060025163186771674,0,0)" xlink:href="#ai"/><use transform="matrix(0.060025163186771674,0,0,0.060025163186771674,14.406039164825202,0)" xlink:href="#V"/><use transform="matrix(0.060025163186771674,0,0,0.060025163186771674,26.411071802179535,0)" xlink:href="#ah"/><use transform="matrix(0.060025163186771674,0,0,0.060025163186771674,37.21560117579844,0)" xlink:href="#ad"/><use transform="matrix(0.060025163186771674,0,0,0.060025163186771674,55.163124968643174,0)" xlink:href="#Q"/><use transform="matrix(0.060025163186771674,0,0,0.060025163186771674,67.16815760599751,0)" xlink:href="#W"/><use transform="matrix(0.060025163186771674,0,0,0.060025163186771674,79.17319024335184,0)" xlink:href="#T"/></g><path fill="#666" d="M233-177c-1 41-23 64-60 70L243 0h-38l-65-103H63V0H30v-248c88 3 205-21 203 71zM63-129c60-2 137 13 137-47 0-61-80-42-137-45v92" id="ak"/><g id="o"><use transform="matrix(0.060025163186771674,0,0,0.060025163186771674,0,0)" xlink:href="#ak"/><use transform="matrix(0.060025163186771674,0,0,0.060025163186771674,15.546517265373863,0)" xlink:href="#Q"/><use transform="matrix(0.060025163186771674,0,0,0.060025163186771674,27.551549902728198,0)" xlink:href="#T"/><use transform="matrix(0.060025163186771674,0,0,0.060025163186771674,33.554066221405364,0)" xlink:href="#Y"/><use transform="matrix(0.060025163186771674,0,0,0.060025163186771674,45.5590988587597,0)" xlink:href="#ae"/><use transform="matrix(0.060025163186771674,0,0,0.060025163186771674,52.702093277985526,0)" xlink:href="#W"/></g><path fill="#666" d="M212-179c-10-28-35-45-73-45-59 0-87 40-87 99 0 60 29 101 89 101 43 0 62-24 78-52l27 14C228-24 195 4 139 4 59 4 22-46 18-125c-6-104 99-153 187-111 19 9 31 26 39 46" id="al"/><path fill="#666" d="M106-169C34-169 62-67 57 0H25v-261h32l-1 103c12-21 28-36 61-36 89 0 53 116 60 194h-32v-121c2-32-8-49-39-48" id="am"/><g id="p"><use transform="matrix(0.060025163186771674,0,0,0.060025163186771674,0,0)" xlink:href="#al"/><use transform="matrix(0.060025163186771674,0,0,0.060025163186771674,15.546517265373863,0)" xlink:href="#am"/><use transform="matrix(0.060025163186771674,0,0,0.060025163186771674,27.551549902728198,0)" xlink:href="#V"/><use transform="matrix(0.060025163186771674,0,0,0.060025163186771674,39.55658254008253,0)" xlink:href="#W"/><use transform="matrix(0.060025163186771674,0,0,0.060025163186771674,51.56161517743686,0)" xlink:href="#X"/><use transform="matrix(0.060025163186771674,0,0,0.060025163186771674,63.5666478147912,0)" xlink:href="#Q"/></g><path fill="#666" d="M85-194c31 0 48 13 60 33l-1-100h32l1 261h-30c-2-10 0-23-3-31C134-8 116 4 85 4 32 4 16-35 15-94c0-66 23-100 70-100zm9 24c-40 0-46 34-46 75 0 40 6 74 45 74 42 0 51-32 51-76 0-42-9-74-50-73" id="an"/><g id="q"><use transform="matrix(0.060025163186771674,0,0,0.060025163186771674,0,0)" xlink:href="#ai"/><use transform="matrix(0.060025163186771674,0,0,0.060025163186771674,14.406039164825202,0)" xlink:href="#V"/><use transform="matrix(0.060025163186771674,0,0,0.060025163186771674,26.411071802179535,0)" xlink:href="#Z"/><use transform="matrix(0.060025163186771674,0,0,0.060025163186771674,31.153059693934498,0)" xlink:href="#an"/></g><g id="r"><use transform="matrix(0.060025163186771674,0,0,0.060025163186771674,0,0)" xlink:href="#ac"/><use transform="matrix(0.060025163186771674,0,0,0.060025163186771674,20.348530320315596,0)" xlink:href="#Z"/><use transform="matrix(0.060025163186771674,0,0,0.060025163186771674,25.09051821207056,0)" xlink:href="#T"/><use transform="matrix(0.060025163186771674,0,0,0.060025163186771674,31.093034530747726,0)" xlink:href="#am"/></g><g id="s"><use transform="matrix(0.060025163186771674,0,0,0.060025163186771674,0,0)" xlink:href="#al"/><use transform="matrix(0.060025163186771674,0,0,0.060025163186771674,15.546517265373863,0)" xlink:href="#V"/><use transform="matrix(0.060025163186771674,0,0,0.060025163186771674,27.551549902728198,0)" xlink:href="#aj"/><use transform="matrix(0.060025163186771674,0,0,0.060025163186771674,38.3560792763471,0)" xlink:href="#am"/></g><g id="t"><use transform="matrix(0.060025163186771674,0,0,0.060025163186771674,0,0)" xlink:href="#ac"/><use transform="matrix(0.060025163186771674,0,0,0.060025163186771674,20.348530320315596,0)" xlink:href="#Z"/><use transform="matrix(0.060025163186771674,0,0,0.060025163186771674,25.09051821207056,0)" xlink:href="#T"/><use transform="matrix(0.060025163186771674,0,0,0.060025163186771674,31.093034530747726,0)" xlink:href="#am"/></g><g id="u"><use transform="matrix(0.060025163186771674,0,0,0.060025163186771674,0,0)" xlink:href="#al"/><use transform="matrix(0.060025163186771674,0,0,0.060025163186771674,15.546517265373863,0)" xlink:href="#V"/><use transform="matrix(0.060025163186771674,0,0,0.060025163186771674,27.551549902728198,0)" xlink:href="#ae"/><use transform="matrix(0.060025163186771674,0,0,0.060025163186771674,34.69454432195403,0)" xlink:href="#an"/></g><path fill="#666" d="M33 0v-248h34V0H33" id="ao"/><path fill="#666" d="M108 0H70L1-190h34L89-25l56-165h34" id="ap"/><g id="v"><use transform="matrix(0.060025163186771674,0,0,0.060025163186771674,0,0)" xlink:href="#ao"/><use transform="matrix(0.060025163186771674,0,0,0.060025163186771674,6.002516318677167,0)" xlink:href="#W"/><use transform="matrix(0.060025163186771674,0,0,0.060025163186771674,18.007548956031503,0)" xlink:href="#ap"/><use transform="matrix(0.060025163186771674,0,0,0.060025163186771674,28.812078329650404,0)" xlink:href="#V"/><use transform="matrix(0.060025163186771674,0,0,0.060025163186771674,40.81711096700474,0)" xlink:href="#R"/><use transform="matrix(0.060025163186771674,0,0,0.060025163186771674,45.5590988587597,0)" xlink:href="#Z"/><use transform="matrix(0.060025163186771674,0,0,0.060025163186771674,50.301086750514656,0)" xlink:href="#an"/></g><path fill="#666" d="M137 0h-34L2-248h35l83 218 83-218h36" id="aq"/><g id="w"><use transform="matrix(0.060025163186771674,0,0,0.060025163186771674,0,0)" xlink:href="#aq"/><use transform="matrix(0.060025163186771674,0,0,0.060025163186771674,12.785359758782366,0)" xlink:href="#V"/><use transform="matrix(0.060025163186771674,0,0,0.060025163186771674,24.790392396136703,0)" xlink:href="#R"/><use transform="matrix(0.060025163186771674,0,0,0.060025163186771674,29.532380287891666,0)" xlink:href="#Z"/><use transform="matrix(0.060025163186771674,0,0,0.060025163186771674,34.27436817964663,0)" xlink:href="#an"/></g><g id="x"><use transform="matrix(0.060025163186771674,0,0,0.060025163186771674,0,0)" xlink:href="#al"/><use transform="matrix(0.060025163186771674,0,0,0.060025163186771674,15.546517265373863,0)" xlink:href="#ab"/><use transform="matrix(0.060025163186771674,0,0,0.060025163186771674,27.551549902728198,0)" xlink:href="#R"/><use transform="matrix(0.060025163186771674,0,0,0.060025163186771674,32.29353779448316,0)" xlink:href="#R"/><use transform="matrix(0.060025163186771674,0,0,0.060025163186771674,37.03552568623812,0)" xlink:href="#Q"/><use transform="matrix(0.060025163186771674,0,0,0.060025163186771674,49.04055832359245,0)" xlink:href="#S"/><use transform="matrix(0.060025163186771674,0,0,0.060025163186771674,59.845087697211355,0)" xlink:href="#T"/></g><path fill="#666" d="M143 0L79-87 56-68V0H24v-261h32v163l83-92h37l-77 82L181 0h-38" id="ar"/><g id="y"><use transform="matrix(0.060025163186771674,0,0,0.060025163186771674,0,0)" xlink:href="#af"/><use transform="matrix(0.060025163186771674,0,0,0.060025163186771674,12.365183616474965,0)" xlink:href="#Z"/><use transform="matrix(0.060025163186771674,0,0,0.060025163186771674,17.10717150822993,0)" xlink:href="#S"/><use transform="matrix(0.060025163186771674,0,0,0.060025163186771674,27.91170088184883,0)" xlink:href="#ar"/><use transform="matrix(0.060025163186771674,0,0,0.060025163186771674,38.716230255467735,0)" xlink:href="#Q"/><use transform="matrix(0.060025163186771674,0,0,0.060025163186771674,50.72126289282207,0)" xlink:href="#T"/></g><path fill="#666" d="M205 0l-28-72H64L36 0H1l101-248h38L239 0h-34zm-38-99l-47-123c-12 45-31 82-46 123h93" id="as"/><path fill="#666" d="M9 0v-24l116-142H16v-24h144v24L44-24h123V0H9" id="at"/><g id="z"><use transform="matrix(0.060025163186771674,0,0,0.060025163186771674,0,0)" xlink:href="#as"/><use transform="matrix(0.060025163186771674,0,0,0.060025163186771674,14.406039164825202,0)" xlink:href="#Y"/><use transform="matrix(0.060025163186771674,0,0,0.060025163186771674,26.411071802179535,0)" xlink:href="#T"/><use transform="matrix(0.060025163186771674,0,0,0.060025163186771674,32.4135881208567,0)" xlink:href="#am"/><use transform="matrix(0.060025163186771674,0,0,0.060025163186771674,44.418620758211034,0)" xlink:href="#ab"/><use transform="matrix(0.060025163186771674,0,0,0.060025163186771674,56.42365339556537,0)" xlink:href="#ae"/><use transform="matrix(0.060025163186771674,0,0,0.060025163186771674,63.5666478147912,0)" xlink:href="#Z"/><use transform="matrix(0.060025163186771674,0,0,0.060025163186771674,68.30863570654616,0)" xlink:href="#at"/><use transform="matrix(0.060025163186771674,0,0,0.060025163186771674,79.11316508016506,0)" xlink:href="#Q"/></g><g id="A"><use transform="matrix(0.060025163186771674,0,0,0.060025163186771674,0,0)" xlink:href="#al"/><use transform="matrix(0.060025163186771674,0,0,0.060025163186771674,15.546517265373863,0)" xlink:href="#V"/><use transform="matrix(0.060025163186771674,0,0,0.060025163186771674,27.551549902728198,0)" xlink:href="#ae"/><use transform="matrix(0.060025163186771674,0,0,0.060025163186771674,34.69454432195403,0)" xlink:href="#an"/></g></defs></g></svg>