<svg xmlns="http://www.w3.org/2000/svg" xmlns:xlink="http://www.w3.org/1999/xlink" xmlns:lucid="lucid" width="1114" height="863"><g transform="translate(-107 -324)" lucid:page-tab-id="0_0"><path d="M0 0h1608.32v2081.35H0z" fill-opacity="0"/><path d="M165.56 386.43a8 8 0 0 1 8-8h99a8 8 0 0 1 8 8v4.93a17.07 17.07 0 0 1-5 12.07 17.07 17.07 0 0 1-12.07 5h-89.94a8 8 0 0 1-8-8z" fill="#fff"/><path d="M280.56 378.43v20l-10 10h-105" stroke="#333" fill="none"/><path d="M165.56 386.43a8 8 0 0 1 8-8H583.3a8 8 0 0 1 8 8v740.85a8 8 0 0 1-8 8H173.55a8 8 0 0 1-8-8z" stroke="#333" fill="none"/><use xlink:href="#a" transform="matrix(1,0,0,1,173.56187938209152,378.42715287335204) translate(0 18.6)"/><path d="M591.3 388.27a8 8 0 0 1 8-8h84a8 8 0 0 1 8 8v4.93a17.07 17.07 0 0 1-5 12.07 17.07 17.07 0 0 1-12.08 5H599.3a8 8 0 0 1-8-8z" fill="#fff"/><path d="M691.3 380.27v20l-10 10h-90" stroke="#333" fill="none"/><path d="M591.3 388.27a8 8 0 0 1 8-8h551.63a8 8 0 0 1 8 8v737.62a8 8 0 0 1-8 8H599.3a8 8 0 0 1-8-8z" stroke="#333" fill="none"/><use xlink:href="#b" transform="matrix(1,0,0,1,599.2924263646125,380.2669675703348) translate(23.022463625561883 19.321811749447562)"/><path d="M394.77 422.08c0 11.05-8.95 20-20 20-11.04 0-20-8.95-20-20s8.96-20 20-20c11.05 0 20 8.95 20 20z" stroke="#333"/><path d="M1127.98 1034.4c0 11.03-8.96 20-20 20-11.05 0-20-8.97-20-20 0-11.06 8.95-20 20-20 11.04 0 20 8.94 20 20z" stroke="#333" fill="#fff"/><path d="M1119.98 1034.4c0 6.62-5.38 12-12 12-6.63 0-12-5.38-12-12 0-6.64 5.37-12 12-12s12 5.36 12 12z" stroke="#333"/><path d="M731.73 509.73c-8.84 0-16 7.16-16 16v48c0 8.84 7.16 16 16 16h128c8.84 0 16-7.16 16-16v-48c0-8.84-7.16-16-16-16z" stroke="#333" fill="#fff"/><use xlink:href="#c" transform="matrix(1,0,0,1,723.730546982521,517.7306434896697) translate(5.432094025870214 36.32181174944756)"/><use xlink:href="#d" transform="matrix(1,0,0,1,723.730546982521,517.7306434896697) translate(11.43461034454738 36.32181174944756)"/><use xlink:href="#e" transform="matrix(1,0,0,1,723.730546982521,517.7306434896697) translate(70.19924510439685 36.32181174944756)"/><path d="M273.82 790.02a8 8 0 0 1 8-8h185.9a8 8 0 0 1 8 8v112.25a8 8 0 0 1-8 8h-185.9a8 8 0 0 1-8-8z" stroke="#333" fill="#fff"/><use xlink:href="#f" transform="matrix(1,0,0,1,273.8203646550141,782.0245406890795) translate(28.914779012687212 29.380996997790245)"/><use xlink:href="#g" transform="matrix(1,0,0,1,273.8203646550141,782.0245406890795) translate(113.13008296372787 29.380996997790245)"/><use xlink:href="#h" transform="matrix(1,0,0,1,273.8203646550141,782.0245406890795) translate(59.077423514039985 55.31186749447561)"/><use xlink:href="#i" transform="matrix(1,0,0,1,273.8203646550141,782.0245406890795) translate(118.92251121125135 55.31186749447561)"/><use xlink:href="#j" transform="matrix(1,0,0,1,273.8203646550141,782.0245406890795) translate(17.089821864893203 81.24273799116098)"/><use xlink:href="#k" transform="matrix(1,0,0,1,273.8203646550141,782.0245406890795) translate(56.64640440497573 81.24273799116098)"/><use xlink:href="#l" transform="matrix(1,0,0,1,273.8203646550141,782.0245406890795) translate(109.34849768296127 81.24273799116098)"/><use xlink:href="#m" transform="matrix(1,0,0,1,273.8203646550141,782.0245406890795) translate(148.9050802230438 81.24273799116098)"/><use xlink:href="#n" transform="matrix(1,0,0,1,273.8203646550141,782.0245406890795) translate(53.64514624563714 107.17360848784634)"/><path d="M759.88 787.3a9.14 9.14 0 0 1 12.04 0l67.96 59.46a7 7 0 0 1 0 10.53l-67.96 59.46a9.14 9.14 0 0 1-12.04 0l-67.96-59.47a7 7 0 0 1 0-10.54z" stroke="#333" fill="#fff"/><use xlink:href="#o" transform="matrix(1,0,0,1,685.8992145829505,782.0245406890795) translate(56.865299591499515 47.91224699779025)"/><use xlink:href="#p" transform="matrix(1,0,0,1,685.8992145829505,782.0245406890795) translate(25.502151826411332 74.29724699779024)"/><use xlink:href="#q" transform="matrix(1,0,0,1,685.8992145829505,782.0245406890795) translate(74.00248368132283 100.22811749447561)"/><path d="M938.42 886.15c-8.84 0-16 7.16-16 16v48c0 8.83 7.16 16 16 16h128c8.83 0 16-7.17 16-16v-48c0-8.84-7.17-16-16-16z" stroke="#333" fill="#fff"/><use xlink:href="#r" transform="matrix(1,0,0,1,930.4161851287956,894.1457541297071) translate(24.610133664043765 23.35637650110488)"/><use xlink:href="#s" transform="matrix(1,0,0,1,930.4161851287956,894.1457541297071) translate(102.64284580684694 23.35637650110488)"/><use xlink:href="#t" transform="matrix(1,0,0,1,930.4161851287956,894.1457541297071) translate(13.835616872018242 49.28724699779025)"/><path d="M799.38 590.73v90.15a5 5 0 0 1-5 5H383.43a5 5 0 0 0-5 5v74.26" stroke="#000" fill="none"/><path d="M799.88 590.74h-1v-.5h1z" stroke="#000" stroke-width=".05"/><path d="M378.43 779.9l-4.64-14.26h9.26z" stroke="#000"/><path d="M843.27 852.02h34.07a5 5 0 0 1 5 5v64.13a5 5 0 0 0 5 5h18.2" stroke="#000" fill="none"/><path d="M843.28 852.52h-.55l.04-.5-.04-.5h.55z" stroke="#000" stroke-width=".05"/><path d="M920.3 926.15l-14.27 4.63v-9.27z" stroke="#000"/><path d="M765.9 784.03v-34.5a5 5 0 0 1 5-5h140.33a5 5 0 0 0 5-5v-184.8a5 5 0 0 0-5-5H892.6" stroke="#000" fill="none"/><path d="M766.4 784.57l-.5-.04-.5.04v-.55h1z" stroke="#000" stroke-width=".05"/><path d="M877.85 549.73l14.26-4.63v9.27z" stroke="#000"/><path d="M827.8 597.73a8 8 0 0 1 8-8h224a8 8 0 0 1 8 8v44a8 8 0 0 1-8 8h-224a8 8 0 0 1-8-8z" stroke="#000" stroke-opacity="0" fill="#fff" fill-opacity="0"/><use xlink:href="#u" transform="matrix(1,0,0,1,832.8093969104576,594.7306434896697) translate(101.2242250486359 29.787246997790245)"/><path d="M755.1 821.27a8 8 0 0 1 8-8h224a8 8 0 0 1 8 8v44a8 8 0 0 1-8 8h-224a8 8 0 0 1-8-8z" stroke="#000" stroke-opacity="0" fill="#fff" fill-opacity="0"/><use xlink:href="#v" transform="matrix(1,0,0,1,760.1127910196266,818.2700449885356) translate(97.38261460468252 29.787246997790245)"/><path d="M1083.42 926.15h19.56a5 5 0 0 1 5 5v66.35" stroke="#000" fill="none"/><path d="M1083.43 926.65h-.5v-1h.5z" stroke="#000" stroke-width=".05"/><path d="M1107.98 1012.27l-4.64-14.27h9.27z" stroke="#000"/><path d="M476.73 846.15h198.75" stroke="#000" fill="none"/><path d="M476.74 846.65h-.5v-1h.5z" stroke="#000" stroke-width=".05"/><path d="M690.24 846.15l-14.26 4.63v-9.27z" stroke="#000"/><path d="M314.43 500.7c-8.84 0-16 7.17-16 16v48c0 8.84 7.16 16 16 16h128c8.83 0 16-7.16 16-16v-48c0-8.84-7.17-16-16-16z" stroke="#333" fill="#fff"/><g><use xlink:href="#w" transform="matrix(1,0,0,1,306.42715287335204,508.701557338336) translate(42.01743098820755 23.35637650110488)"/><use xlink:href="#x" transform="matrix(1,0,0,1,306.42715287335204,508.701557338336) translate(23.97986945058266 49.28724699779025)"/></g><path d="M374.77 443.08v40.74" stroke="#000" fill="none"/><path d="M374.75 442.58l.52-.02v.53h-1v-.58z" stroke="#000" stroke-width=".05"/><path d="M374.77 498.58l-4.63-14.26h9.27z" stroke="#000"/><path d="M459.43 540.7h239.42" stroke="#000" fill="none"/><path d="M459.44 541.2h-.5v-1h.5z" stroke="#000" stroke-width=".05"/><path d="M713.6 540.7l-14.25 4.64v-9.27z" stroke="#000"/><defs><path d="M127-220V0H93v-220H8v-28h204v28h-85" id="y"/><path d="M114-163C36-179 61-72 57 0H25l-1-190h30c1 12-1 29 2 39 6-27 23-49 58-41v29" id="z"/><path d="M141-36C126-15 110 5 73 4 37 3 15-17 15-53c-1-64 63-63 125-63 3-35-9-54-41-54-24 1-41 7-42 31l-33-3c5-37 33-52 76-52 45 0 72 20 72 64v82c-1 20 7 32 28 27v20c-31 9-61-2-59-35zM48-53c0 20 12 33 32 33 41-3 63-29 60-74-43 2-92-5-92 41" id="A"/><path d="M108 0H70L1-190h34L89-25l56-165h34" id="B"/><path d="M100-194c63 0 86 42 84 106H49c0 40 14 67 53 68 26 1 43-12 49-29l28 8c-11 28-37 45-77 45C44 4 14-33 15-96c1-61 26-98 85-98zm52 81c6-60-76-77-97-28-3 7-6 17-6 28h103" id="C"/><path d="M24 0v-261h32V0H24" id="D"/><g id="a"><use transform="matrix(0.05,0,0,0.05,0,0)" xlink:href="#y"/><use transform="matrix(0.05,0,0,0.05,10.3,0)" xlink:href="#z"/><use transform="matrix(0.05,0,0,0.05,16.25,0)" xlink:href="#A"/><use transform="matrix(0.05,0,0,0.05,26.25,0)" xlink:href="#B"/><use transform="matrix(0.05,0,0,0.05,35.25,0)" xlink:href="#C"/><use transform="matrix(0.05,0,0,0.05,45.25,0)" xlink:href="#D"/><use transform="matrix(0.05,0,0,0.05,49.2,0)" xlink:href="#C"/><use transform="matrix(0.05,0,0,0.05,59.2,0)" xlink:href="#z"/></g><path fill="#666" d="M25-224v-37h50v37H25zM25 0v-190h50V0H25" id="E"/><path fill="#666" d="M67-125c0 54 23 88 75 88 28 0 53-7 68-21v-34h-60v-39h108v91C232-14 192 4 140 4 58 4 20-42 15-125 8-236 126-280 215-234c19 10 29 26 37 47l-47 15c-11-23-29-39-63-39-53 1-75 33-75 86" id="F"/><path fill="#666" d="M110-194c64 0 96 36 96 99 0 64-35 99-97 99-61 0-95-36-95-99 0-62 34-99 96-99zm-1 164c35 0 45-28 45-65 0-40-10-65-43-65-34 0-45 26-45 65 0 36 10 65 43 65" id="G"/><g id="b"><use transform="matrix(0.060025163186771674,0,0,0.060025163186771674,0,0)" xlink:href="#E"/><use transform="matrix(0.060025163186771674,0,0,0.060025163186771674,6.002516318677167,0)" xlink:href="#F"/><use transform="matrix(0.060025163186771674,0,0,0.060025163186771674,22.809562010973234,0)" xlink:href="#G"/></g><path fill="#666" d="M30 0v-248h33v221h125V0H30" id="H"/><path fill="#666" d="M100-194c62-1 85 37 85 99 1 63-27 99-86 99S16-35 15-95c0-66 28-99 85-99zM99-20c44 1 53-31 53-75 0-43-8-75-51-75s-53 32-53 75 10 74 51 75" id="I"/><path fill="#666" d="M177-190C167-65 218 103 67 71c-23-6-38-20-44-43l32-5c15 47 100 32 89-28v-30C133-14 115 1 83 1 29 1 15-40 15-95c0-56 16-97 71-98 29-1 48 16 59 35 1-10 0-23 2-32h30zM94-22c36 0 50-32 50-73 0-42-14-75-50-75-39 0-46 34-46 75s6 73 46 73" id="J"/><path fill="#666" d="M24-231v-30h32v30H24zM24 0v-190h32V0H24" id="K"/><path fill="#666" d="M117-194c89-4 53 116 60 194h-32v-121c0-31-8-49-39-48C34-167 62-67 57 0H25l-1-190h30c1 10-1 24 2 32 11-22 29-35 61-36" id="L"/><g id="d"><use transform="matrix(0.060025163186771674,0,0,0.060025163186771674,0,0)" xlink:href="#H"/><use transform="matrix(0.060025163186771674,0,0,0.060025163186771674,12.005032637354335,0)" xlink:href="#I"/><use transform="matrix(0.060025163186771674,0,0,0.060025163186771674,24.01006527470867,0)" xlink:href="#J"/><use transform="matrix(0.060025163186771674,0,0,0.060025163186771674,36.015097912063005,0)" xlink:href="#K"/><use transform="matrix(0.060025163186771674,0,0,0.060025163186771674,40.757085803817965,0)" xlink:href="#L"/></g><path fill="#666" d="M185-189c-5-48-123-54-124 2 14 75 158 14 163 119 3 78-121 87-175 55-17-10-28-26-33-46l33-7c5 56 141 63 141-1 0-78-155-14-162-118-5-82 145-84 179-34 5 7 8 16 11 25" id="M"/><path fill="#666" d="M96-169c-40 0-48 33-48 73s9 75 48 75c24 0 41-14 43-38l32 2c-6 37-31 61-74 61-59 0-76-41-82-99-10-93 101-131 147-64 4 7 5 14 7 22l-32 3c-4-21-16-35-41-35" id="N"/><path fill="#666" d="M114-163C36-179 61-72 57 0H25l-1-190h30c1 12-1 29 2 39 6-27 23-49 58-41v29" id="O"/><path fill="#666" d="M100-194c63 0 86 42 84 106H49c0 40 14 67 53 68 26 1 43-12 49-29l28 8c-11 28-37 45-77 45C44 4 14-33 15-96c1-61 26-98 85-98zm52 81c6-60-76-77-97-28-3 7-6 17-6 28h103" id="P"/><g id="e"><use transform="matrix(0.060025163186771674,0,0,0.060025163186771674,0,0)" xlink:href="#M"/><use transform="matrix(0.060025163186771674,0,0,0.060025163186771674,14.406039164825202,0)" xlink:href="#N"/><use transform="matrix(0.060025163186771674,0,0,0.060025163186771674,25.210568538444104,0)" xlink:href="#O"/><use transform="matrix(0.060025163186771674,0,0,0.060025163186771674,32.353562957669936,0)" xlink:href="#P"/><use transform="matrix(0.060025163186771674,0,0,0.060025163186771674,44.35859559502427,0)" xlink:href="#P"/><use transform="matrix(0.060025163186771674,0,0,0.060025163186771674,56.3636282323786,0)" xlink:href="#L"/></g><path fill="#666" d="M127-220V0H93v-220H8v-28h204v28h-85" id="Q"/><path fill="#666" d="M141-36C126-15 110 5 73 4 37 3 15-17 15-53c-1-64 63-63 125-63 3-35-9-54-41-54-24 1-41 7-42 31l-33-3c5-37 33-52 76-52 45 0 72 20 72 64v82c-1 20 7 32 28 27v20c-31 9-61-2-59-35zM48-53c0 20 12 33 32 33 41-3 63-29 60-74-43 2-92-5-92 41" id="R"/><path fill="#666" d="M108 0H70L1-190h34L89-25l56-165h34" id="S"/><path fill="#666" d="M24 0v-261h32V0H24" id="T"/><g id="f"><use transform="matrix(0.060025163186771674,0,0,0.060025163186771674,0,0)" xlink:href="#Q"/><use transform="matrix(0.060025163186771674,0,0,0.060025163186771674,12.365183616474965,0)" xlink:href="#O"/><use transform="matrix(0.060025163186771674,0,0,0.060025163186771674,19.508178035700794,0)" xlink:href="#R"/><use transform="matrix(0.060025163186771674,0,0,0.060025163186771674,31.513210673055127,0)" xlink:href="#S"/><use transform="matrix(0.060025163186771674,0,0,0.060025163186771674,42.31774004667403,0)" xlink:href="#P"/><use transform="matrix(0.060025163186771674,0,0,0.060025163186771674,54.322772684028365,0)" xlink:href="#T"/><use transform="matrix(0.060025163186771674,0,0,0.060025163186771674,59.064760575783325,0)" xlink:href="#P"/><use transform="matrix(0.060025163186771674,0,0,0.060025163186771674,71.06979321313766,0)" xlink:href="#O"/></g><path fill="#666" d="M59-47c-2 24 18 29 38 22v24C64 9 27 4 27-40v-127H5v-23h24l9-43h21v43h35v23H59v120" id="U"/><path fill="#666" d="M135-143c-3-34-86-38-87 0 15 53 115 12 119 90S17 21 10-45l28-5c4 36 97 45 98 0-10-56-113-15-118-90-4-57 82-63 122-42 12 7 21 19 24 35" id="V"/><g id="g"><use transform="matrix(0.060025163186771674,0,0,0.060025163186771674,0,0)" xlink:href="#P"/><use transform="matrix(0.060025163186771674,0,0,0.060025163186771674,12.005032637354335,0)" xlink:href="#L"/><use transform="matrix(0.060025163186771674,0,0,0.060025163186771674,24.01006527470867,0)" xlink:href="#U"/><use transform="matrix(0.060025163186771674,0,0,0.060025163186771674,30.012581593385836,0)" xlink:href="#P"/><use transform="matrix(0.060025163186771674,0,0,0.060025163186771674,42.01761423074017,0)" xlink:href="#O"/><use transform="matrix(0.060025163186771674,0,0,0.060025163186771674,49.160608649966,0)" xlink:href="#V"/></g><path fill="#666" d="M30 0v-248h187v28H63v79h144v27H63v87h162V0H30" id="W"/><path fill="#666" d="M210-169c-67 3-38 105-44 169h-31v-121c0-29-5-50-35-48C34-165 62-65 56 0H25l-1-190h30c1 10-1 24 2 32 10-44 99-50 107 0 11-21 27-35 58-36 85-2 47 119 55 194h-31v-121c0-29-5-49-35-48" id="X"/><g id="h"><use transform="matrix(0.060025163186771674,0,0,0.060025163186771674,0,0)" xlink:href="#W"/><use transform="matrix(0.060025163186771674,0,0,0.060025163186771674,14.406039164825202,0)" xlink:href="#X"/><use transform="matrix(0.060025163186771674,0,0,0.060025163186771674,32.353562957669936,0)" xlink:href="#R"/><use transform="matrix(0.060025163186771674,0,0,0.060025163186771674,44.35859559502427,0)" xlink:href="#K"/><use transform="matrix(0.060025163186771674,0,0,0.060025163186771674,49.10058348677923,0)" xlink:href="#T"/></g><path fill="#666" d="M33 0v-248h34V0H33" id="Y"/><path fill="#666" d="M85-194c31 0 48 13 60 33l-1-100h32l1 261h-30c-2-10 0-23-3-31C134-8 116 4 85 4 32 4 16-35 15-94c0-66 23-100 70-100zm9 24c-40 0-46 34-46 75 0 40 6 74 45 74 42 0 51-32 51-76 0-42-9-74-50-73" id="Z"/><path fill="#666" d="M68-38c1 34 0 65-14 84H32c9-13 17-26 17-46H33v-38h35" id="aa"/><g id="i"><use transform="matrix(0.060025163186771674,0,0,0.060025163186771674,0,0)" xlink:href="#Y"/><use transform="matrix(0.060025163186771674,0,0,0.060025163186771674,6.002516318677167,0)" xlink:href="#Z"/><use transform="matrix(0.060025163186771674,0,0,0.060025163186771674,18.007548956031503,0)" xlink:href="#aa"/></g><path fill="#666" d="M143 4C61 4 22-44 18-125c-5-107 100-154 193-111 17 8 29 25 37 43l-32 9c-13-25-37-40-76-40-61 0-88 39-88 99 0 61 29 100 91 101 35 0 62-11 79-27v-45h-74v-28h105v86C228-13 192 4 143 4" id="ab"/><g id="j"><use transform="matrix(0.060025163186771674,0,0,0.060025163186771674,0,0)" xlink:href="#K"/><use transform="matrix(0.060025163186771674,0,0,0.060025163186771674,4.741987891754962,0)" xlink:href="#ab"/><use transform="matrix(0.060025163186771674,0,0,0.060025163186771674,21.54903358405103,0)" xlink:href="#I"/></g><path fill="#666" d="M212-179c-10-28-35-45-73-45-59 0-87 40-87 99 0 60 29 101 89 101 43 0 62-24 78-52l27 14C228-24 195 4 139 4 59 4 22-46 18-125c-6-104 99-153 187-111 19 9 31 26 39 46" id="ac"/><g id="k"><use transform="matrix(0.060025163186771674,0,0,0.060025163186771674,0,0)" xlink:href="#ac"/><use transform="matrix(0.060025163186771674,0,0,0.060025163186771674,15.546517265373863,0)" xlink:href="#R"/><use transform="matrix(0.060025163186771674,0,0,0.060025163186771674,27.551549902728198,0)" xlink:href="#O"/><use transform="matrix(0.060025163186771674,0,0,0.060025163186771674,34.69454432195403,0)" xlink:href="#Z"/></g><path fill="#666" d="M190 0L58-211 59 0H30v-248h39L202-35l-2-213h31V0h-41" id="ad"/><path fill="#666" d="M33 0v-38h34V0H33" id="ae"/><g id="l"><use transform="matrix(0.060025163186771674,0,0,0.060025163186771674,0,0)" xlink:href="#ad"/><use transform="matrix(0.060025163186771674,0,0,0.060025163186771674,15.546517265373863,0)" xlink:href="#I"/><use transform="matrix(0.060025163186771674,0,0,0.060025163186771674,27.551549902728198,0)" xlink:href="#ae"/></g><g id="m"><use transform="matrix(0.060025163186771674,0,0,0.060025163186771674,0,0)" xlink:href="#R"/><use transform="matrix(0.060025163186771674,0,0,0.060025163186771674,12.005032637354335,0)" xlink:href="#L"/><use transform="matrix(0.060025163186771674,0,0,0.060025163186771674,24.01006527470867,0)" xlink:href="#Z"/></g><path fill="#666" d="M30-248c87 1 191-15 191 75 0 78-77 80-158 76V0H30v-248zm33 125c57 0 124 11 124-50 0-59-68-47-124-48v98" id="af"/><path fill="#666" d="M206 0h-36l-40-164L89 0H53L-1-190h32L70-26l43-164h34l41 164 42-164h31" id="ag"/><g id="n"><use transform="matrix(0.060025163186771674,0,0,0.060025163186771674,0,0)" xlink:href="#af"/><use transform="matrix(0.060025163186771674,0,0,0.060025163186771674,14.406039164825202,0)" xlink:href="#R"/><use transform="matrix(0.060025163186771674,0,0,0.060025163186771674,26.411071802179535,0)" xlink:href="#V"/><use transform="matrix(0.060025163186771674,0,0,0.060025163186771674,37.21560117579844,0)" xlink:href="#V"/><use transform="matrix(0.060025163186771674,0,0,0.060025163186771674,48.020130549417345,0)" xlink:href="#ag"/><use transform="matrix(0.060025163186771674,0,0,0.060025163186771674,63.56664781479122,0)" xlink:href="#I"/><use transform="matrix(0.060025163186771674,0,0,0.060025163186771674,75.57168045214554,0)" xlink:href="#O"/><use transform="matrix(0.060025163186771674,0,0,0.060025163186771674,82.71467487137137,0)" xlink:href="#Z"/></g><path fill="#666" d="M137 0h-34L2-248h35l83 218 83-218h36" id="ah"/><g id="o"><use transform="matrix(0.060025163186771674,0,0,0.060025163186771674,0,0)" xlink:href="#ah"/><use transform="matrix(0.060025163186771674,0,0,0.060025163186771674,12.785359758782366,0)" xlink:href="#R"/><use transform="matrix(0.060025163186771674,0,0,0.060025163186771674,24.790392396136703,0)" xlink:href="#T"/><use transform="matrix(0.060025163186771674,0,0,0.060025163186771674,29.532380287891666,0)" xlink:href="#K"/><use transform="matrix(0.060025163186771674,0,0,0.060025163186771674,34.27436817964663,0)" xlink:href="#Z"/></g><g id="p"><use transform="matrix(0.060025163186771674,0,0,0.060025163186771674,0,0)" xlink:href="#ac"/><use transform="matrix(0.060025163186771674,0,0,0.060025163186771674,15.546517265373863,0)" xlink:href="#O"/><use transform="matrix(0.060025163186771674,0,0,0.060025163186771674,22.689511684599694,0)" xlink:href="#P"/><use transform="matrix(0.060025163186771674,0,0,0.060025163186771674,34.69454432195403,0)" xlink:href="#Z"/><use transform="matrix(0.060025163186771674,0,0,0.060025163186771674,46.69957695930836,0)" xlink:href="#P"/><use transform="matrix(0.060025163186771674,0,0,0.060025163186771674,58.70460959666269,0)" xlink:href="#L"/><use transform="matrix(0.060025163186771674,0,0,0.060025163186771674,70.70964223401702,0)" xlink:href="#U"/><use transform="matrix(0.060025163186771674,0,0,0.060025163186771674,76.71215855269419,0)" xlink:href="#K"/><use transform="matrix(0.060025163186771674,0,0,0.060025163186771674,81.45414644444915,0)" xlink:href="#R"/><use transform="matrix(0.060025163186771674,0,0,0.060025163186771674,93.45917908180348,0)" xlink:href="#T"/><use transform="matrix(0.060025163186771674,0,0,0.060025163186771674,98.20116697355844,0)" xlink:href="#V"/></g><path fill="#666" d="M103-251c84 0 111 97 45 133-19 10-37 24-39 52H78c0-63 77-55 77-114 0-30-21-42-52-43-32 0-53 17-56 46l-32-2c7-45 34-72 88-72zM77 0v-35h34V0H77" id="ai"/><use transform="matrix(0.060025163186771674,0,0,0.060025163186771674,0,0)" xlink:href="#ai" id="q"/><g id="r"><use transform="matrix(0.060025163186771674,0,0,0.060025163186771674,0,0)" xlink:href="#H"/><use transform="matrix(0.060025163186771674,0,0,0.060025163186771674,12.005032637354335,0)" xlink:href="#I"/><use transform="matrix(0.060025163186771674,0,0,0.060025163186771674,24.01006527470867,0)" xlink:href="#J"/><use transform="matrix(0.060025163186771674,0,0,0.060025163186771674,36.015097912063005,0)" xlink:href="#J"/><use transform="matrix(0.060025163186771674,0,0,0.060025163186771674,48.02013054941734,0)" xlink:href="#P"/><use transform="matrix(0.060025163186771674,0,0,0.060025163186771674,60.02516318677167,0)" xlink:href="#Z"/></g><g id="s"><use transform="matrix(0.060025163186771674,0,0,0.060025163186771674,0,0)" xlink:href="#K"/><use transform="matrix(0.060025163186771674,0,0,0.060025163186771674,4.741987891754962,0)" xlink:href="#L"/></g><path fill="#666" d="M84 4C-5 8 30-112 23-190h32v120c0 31 7 50 39 49 72-2 45-101 50-169h31l1 190h-30c-1-10 1-25-2-33-11 22-28 36-60 37" id="aj"/><path fill="#666" d="M101-234c-31-9-42 10-38 44h38v23H63V0H32v-167H5v-23h27c-7-52 17-82 69-68v24" id="ak"/><path fill="#666" d="M179-190L93 31C79 59 56 82 12 73V49c39 6 53-20 64-50L1-190h34L92-34l54-156h33" id="al"/><g id="t"><use transform="matrix(0.060025163186771674,0,0,0.060025163186771674,0,0)" xlink:href="#V"/><use transform="matrix(0.060025163186771674,0,0,0.060025163186771674,10.804529373618902,0)" xlink:href="#aj"/><use transform="matrix(0.060025163186771674,0,0,0.060025163186771674,22.809562010973238,0)" xlink:href="#N"/><use transform="matrix(0.060025163186771674,0,0,0.060025163186771674,33.61409138459214,0)" xlink:href="#N"/><use transform="matrix(0.060025163186771674,0,0,0.060025163186771674,44.41862075821105,0)" xlink:href="#P"/><use transform="matrix(0.060025163186771674,0,0,0.060025163186771674,56.42365339556538,0)" xlink:href="#V"/><use transform="matrix(0.060025163186771674,0,0,0.060025163186771674,67.22818276918429,0)" xlink:href="#V"/><use transform="matrix(0.060025163186771674,0,0,0.060025163186771674,78.03271214280319,0)" xlink:href="#ak"/><use transform="matrix(0.060025163186771674,0,0,0.060025163186771674,84.03522846148036,0)" xlink:href="#aj"/><use transform="matrix(0.060025163186771674,0,0,0.060025163186771674,96.04026109883469,0)" xlink:href="#T"/><use transform="matrix(0.060025163186771674,0,0,0.060025163186771674,100.78224899058965,0)" xlink:href="#T"/><use transform="matrix(0.060025163186771674,0,0,0.060025163186771674,105.52423688234461,0)" xlink:href="#al"/></g><g id="u"><use transform="matrix(0.060025163186771674,0,0,0.060025163186771674,0,0)" xlink:href="#ad"/><use transform="matrix(0.060025163186771674,0,0,0.060025163186771674,15.546517265373863,0)" xlink:href="#I"/></g><path fill="#666" d="M137-103V0h-34v-103L8-248h37l75 118 75-118h37" id="am"/><g id="v"><use transform="matrix(0.060025163186771674,0,0,0.060025163186771674,0,0)" xlink:href="#am"/><use transform="matrix(0.060025163186771674,0,0,0.060025163186771674,12.425208779661737,0)" xlink:href="#P"/><use transform="matrix(0.060025163186771674,0,0,0.060025163186771674,24.43024141701607,0)" xlink:href="#V"/></g><g id="w"><use transform="matrix(0.060025163186771674,0,0,0.060025163186771674,0,0)" xlink:href="#M"/><use transform="matrix(0.060025163186771674,0,0,0.060025163186771674,14.406039164825202,0)" xlink:href="#P"/><use transform="matrix(0.060025163186771674,0,0,0.060025163186771674,26.411071802179535,0)" xlink:href="#T"/><use transform="matrix(0.060025163186771674,0,0,0.060025163186771674,31.153059693934498,0)" xlink:href="#P"/><use transform="matrix(0.060025163186771674,0,0,0.060025163186771674,43.158092331288834,0)" xlink:href="#N"/><use transform="matrix(0.060025163186771674,0,0,0.060025163186771674,53.96262170490773,0)" xlink:href="#U"/></g><g id="x"><use transform="matrix(0.060025163186771674,0,0,0.060025163186771674,0,0)" xlink:href="#H"/><use transform="matrix(0.060025163186771674,0,0,0.060025163186771674,12.005032637354335,0)" xlink:href="#R"/><use transform="matrix(0.060025163186771674,0,0,0.060025163186771674,24.01006527470867,0)" xlink:href="#L"/><use transform="matrix(0.060025163186771674,0,0,0.060025163186771674,36.015097912063005,0)" xlink:href="#J"/><use transform="matrix(0.060025163186771674,0,0,0.060025163186771674,48.02013054941734,0)" xlink:href="#aj"/><use transform="matrix(0.060025163186771674,0,0,0.060025163186771674,60.02516318677167,0)" xlink:href="#R"/><use transform="matrix(0.060025163186771674,0,0,0.060025163186771674,72.03019582412601,0)" xlink:href="#J"/><use transform="matrix(0.060025163186771674,0,0,0.060025163186771674,84.03522846148034,0)" xlink:href="#P"/></g></defs></g></svg>