<svg xmlns="http://www.w3.org/2000/svg" xmlns:xlink="http://www.w3.org/1999/xlink" xmlns:lucid="lucid" width="1311" height="1293"><g transform="translate(-105 -221)" lucid:page-tab-id="0_0"><path d="M0 0h1608.32v2081.35H0z" fill-opacity="0"/><path d="M123.36 246.3a8 8 0 0 1 8-8H264a8 8 0 0 1 8 8v4.92a17.07 17.07 0 0 1-5 12.08 17.07 17.07 0 0 1-12.08 5H131.36a8 8 0 0 1-8-8z" fill="#fff"/><path d="M272 238.3v20l-10 10H123.36" stroke="#333" fill="none"/><path d="M123.36 246.3a8 8 0 0 1 8-8h386.08a8 8 0 0 1 8 8v1235.76a8 8 0 0 1-8 8H131.36a8 8 0 0 1-8-8z" stroke="#333" fill="none"/><use xlink:href="#a" transform="matrix(1,0,0,1,131.35979093289265,238.29497783198485) translate(0 18.6)"/><use xlink:href="#b" transform="matrix(1,0,0,1,131.35979093289265,238.29497783198485) translate(91.85000000000001 18.6)"/><path d="M525.44 248.13a8 8 0 0 1 8-8h84a8 8 0 0 1 8 8v4.93a17.07 17.07 0 0 1-5 12.07 17.07 17.07 0 0 1-12.07 5h-74.93a8 8 0 0 1-8-8z" fill="#fff"/><path d="M625.44 240.13v20l-10 10h-90" stroke="#333" fill="none"/><path d="M525.44 248.13a8 8 0 0 1 8-8h551.64a8 8 0 0 1 8 8v1233.93a8 8 0 0 1-8 8H533.44a8 8 0 0 1-8-8z" stroke="#333" fill="none"/><use xlink:href="#c" transform="matrix(1,0,0,1,533.4386408608292,240.13479252896775) translate(23.022463625561883 19.321811749447562)"/><path d="M1093.08 246.3a8 8 0 0 1 8-8h99a8 8 0 0 1 8 8v4.92a17.07 17.07 0 0 1-5 12.08 17.07 17.07 0 0 1-12.07 5h-89.92a8 8 0 0 1-8-8z" fill="#fff"/><path d="M1208.08 238.3v20l-10 10h-105" stroke="#333" fill="none"/><path d="M1093.08 246.3a8 8 0 0 1 8-8h291.47a8 8 0 0 1 8 8v1235.76a8 8 0 0 1-8 8h-291.47a8 8 0 0 1-8-8z" stroke="#333" fill="none"/><use xlink:href="#d" transform="matrix(1,0,0,1,1101.0793701708571,238.29497783198485) translate(0 18.6)"/><path d="M328.92 320.6c0 11.03-8.95 20-20 20-11.04 0-20-8.97-20-20 0-11.06 8.96-20 20-20 11.05 0 20 8.94 20 20z" stroke="#333"/><path d="M305.27 1439.1c0 11.05-8.95 20-20 20s-20-8.95-20-20c0-11.04 8.95-20 20-20s20 8.96 20 20z" stroke="#333" fill="#fff"/><path d="M297.27 1439.1c0 6.63-5.37 12-12 12s-12-5.37-12-12 5.37-12 12-12 12 5.37 12 12z" stroke="#333"/><path d="M244.92 418.85c-8.83 0-16 7.16-16 16v48c0 8.83 7.17 16 16 16h128c8.84 0 16-7.17 16-16v-48c0-8.84-7.16-16-16-16z" stroke="#333" fill="#fff"/><use xlink:href="#e" transform="matrix(1,0,0,1,236.92167031498423,426.8449744286238) translate(42.01743098820755 23.35637650110488)"/><use xlink:href="#f" transform="matrix(1,0,0,1,236.92167031498423,426.8449744286238) translate(23.97986945058266 49.28724699779025)"/><path d="M244.92 577.1c-8.83 0-16 7.17-16 16v48c0 8.84 7.17 16 16 16h128c8.84 0 16-7.16 16-16v-48c0-8.83-7.16-16-16-16z" stroke="#333" fill="#fff"/><use xlink:href="#g" transform="matrix(1,0,0,1,236.92167031498423,585.1034597015464) translate(4.501703996475257 23.35637650110488)"/><use xlink:href="#h" transform="matrix(1,0,0,1,236.92167031498423,585.1034597015464) translate(50.060802855234954 23.35637650110488)"/><use xlink:href="#i" transform="matrix(1,0,0,1,236.92167031498423,585.1034597015464) translate(37.81566956513353 49.28724699779025)"/><path d="M244.92 813.27c-8.83 0-16 7.16-16 16v48c0 8.84 7.17 16 16 16h128c8.84 0 16-7.16 16-16v-48c0-8.84-7.16-16-16-16z" stroke="#333" fill="#fff"/><use xlink:href="#j" transform="matrix(1,0,0,1,236.92167031498423,821.2700449885356) translate(20.888573546463917 17.287246997790245)"/><use xlink:href="#k" transform="matrix(1,0,0,1,236.92167031498423,821.2700449885356) translate(86.85622788872598 17.287246997790245)"/><use xlink:href="#l" transform="matrix(1,0,0,1,236.92167031498423,821.2700449885356) translate(36.04492725112377 43.21811749447561)"/><use xlink:href="#m" transform="matrix(1,0,0,1,236.92167031498423,821.2700449885356) translate(88.80704569229607 43.21811749447561)"/><use xlink:href="#n" transform="matrix(1,0,0,1,236.92167031498423,821.2700449885356) translate(9.663868030537614 69.14898799116098)"/><use xlink:href="#o" transform="matrix(1,0,0,1,236.92167031498423,821.2700449885356) translate(91.17803963817354 69.14898799116098)"/><path d="M749.2 813.27c-8.83 0-16 7.16-16 16v48c0 8.84 7.17 16 16 16h128c8.84 0 16-7.16 16-16v-48c0-8.84-7.16-16-16-16z" stroke="#333" fill="#fff"/><use xlink:href="#p" transform="matrix(1,0,0,1,741.2026086921196,821.2700449885356) translate(33.013656510191794 23.35637650110488)"/><use xlink:href="#q" transform="matrix(1,0,0,1,741.2026086921196,821.2700449885356) translate(29.412146718985497 49.28724699779025)"/><path d="M806.1 984.25a7.6 7.6 0 0 1 11 0l15 15.77a8.42 8.42 0 0 1 0 11.6l-15 15.77a7.6 7.6 0 0 1-11 0l-14.98-15.78a8.42 8.42 0 0 1 0-11.6zM745.26 1111.63c-8.84 0-16 7.16-16 16v48c0 8.84 7.16 16 16 16h128c8.84 0 16-7.16 16-16v-48c0-8.84-7.16-16-16-16z" stroke="#333" fill="#fff"/><use xlink:href="#r" transform="matrix(1,0,0,1,737.2590055158432,1119.6297615654717) translate(39.64643704233007 23.35637650110488)"/><use xlink:href="#s" transform="matrix(1,0,0,1,737.2590055158432,1119.6297615654717) translate(34.214159773927236 49.28724699779025)"/><path d="M835.4 1005.82h340.73" stroke="#000" fill="none"/><path d="M835.42 1006.32h-.55l.04-.5-.03-.5h.55z" stroke="#000" stroke-width=".05"/><path d="M1190.9 1005.82l-14.27 4.63v-9.27z" stroke="#000"/><path d="M811.6 1094.75v-64" stroke="#000" fill="none"/><path d="M811.6 1109.5l-4.63-14.25h9.27z" stroke="#000"/><path d="M811.6 1030.26l.5-.04v.55h-1v-.55z" stroke="#000" stroke-width=".05"/><path d="M813.2 894.27v42.5a.8.8 0 0 1-.8.8.8.8 0 0 0-.8.8V965" stroke="#000" fill="none"/><path d="M813.7 894.28h-1v-.5h1z" stroke="#000" stroke-width=".05"/><path d="M811.6 979.76l-4.63-14.27h9.27z" stroke="#000"/><path d="M591.3 1050.4a8 8 0 0 1 8-8h224a8 8 0 0 1 8 8v44a8 8 0 0 1-8 8h-224a8 8 0 0 1-8-8z" stroke="#000" stroke-opacity="0" fill="#fff" fill-opacity="0"/><use xlink:href="#t" transform="matrix(1,0,0,1,596.2924263646125,1047.4109221692272) translate(40.68884797477668 29.787246997790245)"/><use xlink:href="#u" transform="matrix(1,0,0,1,596.2924263646125,1047.4109221692272) translate(89.84945662474269 29.787246997790245)"/><use xlink:href="#v" transform="matrix(1,0,0,1,596.2924263646125,1047.4109221692272) translate(138.9500401115219 29.787246997790245)"/><path d="M889.26 962.4a8 8 0 0 1 8-8h224a8 8 0 0 1 8 8v44a8 8 0 0 1-8 8h-224a8 8 0 0 1-8-8z" stroke="#000" stroke-opacity="0" fill="#fff" fill-opacity="0"/><use xlink:href="#t" transform="matrix(1,0,0,1,894.2590055158432,959.3881810109624) translate(42.51961545197321 29.787246997790245)"/><use xlink:href="#u" transform="matrix(1,0,0,1,894.2590055158432,959.3881810109624) translate(91.68022410193922 29.787246997790245)"/><use xlink:href="#w" transform="matrix(1,0,0,1,894.2590055158432,959.3881810109624) translate(140.78080758871843 29.787246997790245)"/><path d="M803.6 1263.72a8 8 0 0 1 11.32 0l24.16 24.16a8 8 0 0 1 0 11.32l-24.16 24.16a8 8 0 0 1-11.32 0l-24.16-24.16a8 8 0 0 1 0-11.32zM1255.02 951.18a9.63 9.63 0 0 1 12.3 0l59.6 49.53a6.65 6.65 0 0 1 0 10.23l-59.6 49.53a9.63 9.63 0 0 1-12.3 0l-59.6-49.53a6.65 6.65 0 0 1 0-10.22z" stroke="#333" fill="#fff"/><path d="M1261.17 1063.68v224.86a5 5 0 0 1-5 5H858.3" stroke="#000" fill="none"/><path d="M1261.17 1063.18l.5-.04v.55h-1v-.56z" stroke="#000" stroke-width=".05"/><path d="M843.54 1293.54l14.27-4.63v9.27z" stroke="#000"/><path d="M1100.97 906.76a8 8 0 0 1 8-8h224a8 8 0 0 1 8 8v44a8 8 0 0 1-8 8h-224a8 8 0 0 1-8-8z" stroke="#000" stroke-opacity="0" fill="#fff" fill-opacity="0"/><use xlink:href="#x" transform="matrix(1,0,0,1,1105.96657652341,903.7644880742112) translate(83.8469403060655 29.787246997790245)"/><path d="M1100.97 1073.57a8 8 0 0 1 8-8h224a8 8 0 0 1 8 8v44a8 8 0 0 1-8 8h-224a8 8 0 0 1-8-8z" stroke="#000" stroke-opacity="0" fill="#fff" fill-opacity="0"/><use xlink:href="#y" transform="matrix(1,0,0,1,1105.96657652341,1070.5687594879946) translate(91.86029959149951 29.787246997790245)"/><path d="M809.26 1192.63v51.86" stroke="#000" fill="none"/><path d="M809.76 1192.64h-1v-.5h1z" stroke="#000" stroke-width=".05"/><path d="M809.26 1259.26l-4.64-14.27h9.27z" stroke="#000"/><path d="M389.92 853.27h326.4" stroke="#000" fill="none"/><path d="M389.93 853.77h-.5v-1h.5z" stroke="#000" stroke-width=".05"/><path d="M731.1 853.27l-14.28 4.63v-9.26z" stroke="#000"/><path d="M1261.17 947.96v-89.7a5 5 0 0 0-5-5H910.1" stroke="#000" fill="none"/><path d="M1261.67 948.5l-.5-.04-.5.03v-.56h1z" stroke="#000" stroke-width=".05"/><path d="M895.32 853.27l14.27-4.63v9.26z" stroke="#000"/><path d="M233.97 1253.54c-8.84 0-16 7.16-16 16v48c0 8.84 7.16 16 16 16h128c8.83 0 16-7.16 16-16v-48c0-8.84-7.17-16-16-16z" stroke="#333" fill="#fff"/><use xlink:href="#z" transform="matrix(1,0,0,1,225.9665791512307,1261.5399438929787) translate(5.462106607463596 23.35637650110488)"/><use xlink:href="#A" transform="matrix(1,0,0,1,225.9665791512307,1261.5399438929787) translate(104.98382717113103 23.35637650110488)"/><use xlink:href="#B" transform="matrix(1,0,0,1,225.9665791512307,1261.5399438929787) translate(48.65021152034582 49.28724699779025)"/><path d="M776.1 1293.54H394.84" stroke="#000" fill="none"/><path d="M776.6 1293.54l.03.5h-.55v-1h.55z" stroke="#000" stroke-width=".05"/><path d="M380.08 1293.54l14.27-4.63v9.27z" stroke="#000"/><path d="M308.92 499.85v60.37" stroke="#000" fill="none"/><path d="M309.42 499.86h-1v-.5h1z" stroke="#000" stroke-width=".05"/><path d="M308.92 575l-4.63-14.28h9.26z" stroke="#000"/><path d="M308.92 341.6v60.36" stroke="#000" fill="none"/><path d="M308.9 341.1l.52-.03v.53h-1v-.57z" stroke="#000" stroke-width=".05"/><path d="M308.92 416.73l-4.63-14.27h9.26z" stroke="#000"/><path d="M284.3 1334.54v67.7" stroke="#000" fill="none"/><path d="M284.8 1334.55h-1v-.5h1z" stroke="#000" stroke-width=".05"/><path d="M284.3 1417.02l-4.64-14.27h9.27z" stroke="#000"/><path d="M244.92 702.02c-8.83 0-16 7.17-16 16v48c0 8.84 7.17 16 16 16h128c8.84 0 16-7.16 16-16v-48c0-8.83-7.16-16-16-16z" stroke="#333" fill="#fff"/><use xlink:href="#C" transform="matrix(1,0,0,1,236.92167031498423,710.0245406890795) translate(0.08985450224753322 36.32181174944756)"/><use xlink:href="#D" transform="matrix(1,0,0,1,236.92167031498423,710.0245406890795) translate(57.65398599836156 36.32181174944756)"/><use xlink:href="#w" transform="matrix(1,0,0,1,236.92167031498423,710.0245406890795) translate(97.2105685384441 36.32181174944756)"/><path d="M308.92 658.1v27.04" stroke="#000" fill="none"/><path d="M309.42 658.12h-1v-.52h1z" stroke="#000" stroke-width=".05"/><path d="M308.92 699.9l-4.63-14.26h9.26z" stroke="#000"/><path d="M827.24 525.22a10.4 10.4 0 0 1 12.68 0l76.16 58.62a6.16 6.16 0 0 1 0 9.76l-76.16 58.62a10.4 10.4 0 0 1-12.68 0L751.1 593.6a6.16 6.16 0 0 1 0-9.76z" stroke="#333" fill="#fff"/><path d="M833.58 522.06v-34.5a5 5 0 0 0-5-5H434.42a5 5 0 0 0-5 5v249.46a5 5 0 0 1-5 5h-18.6" stroke="#000" fill="none"/><path d="M834.08 522.6l-.5-.04-.5.03v-.55h1z" stroke="#000" stroke-width=".05"/><path d="M391.04 742.02l14.27-4.63v9.26z" stroke="#000"/><path d="M389.92 764.56H563.8a5 5 0 0 0 5-5V593.72a5 5 0 0 1 5-5h158" stroke="#000" fill="none"/><path d="M389.93 765.06h-.5v-1h.5z" stroke="#000" stroke-width=".05"/><path d="M746.56 588.72l-14.26 4.64v-9.27z" stroke="#000"/><path d="M638.6 436.85a8 8 0 0 1 8-8h224a8 8 0 0 1 8 8v44a8 8 0 0 1-8 8h-224a8 8 0 0 1-8-8z" stroke="#000" stroke-opacity="0" fill="#fff" fill-opacity="0"/><g><use xlink:href="#x" transform="matrix(1,0,0,1,643.5958204737816,433.8449744286238) translate(83.8469403060655 29.787246997790245)"/></g><path d="M744.75 705.92a8 8 0 0 1 8-8h224a8 8 0 0 1 8 8v44a8 8 0 0 1-8 8h-224a8 8 0 0 1-8-8z" stroke="#000" stroke-opacity="0" fill="#fff" fill-opacity="0"/><g><use xlink:href="#y" transform="matrix(1,0,0,1,749.7455538264802,702.9237365509981) translate(91.86029959149951 29.787246997790245)"/></g><path d="M779.78 564.8a8 8 0 0 1 8-8h91.6a8 8 0 0 1 8 8v34a8 8 0 0 1-8 8h-91.6a8 8 0 0 1-8-8z" stroke="#000" stroke-opacity="0" fill="#fff" fill-opacity="0"/><g><use xlink:href="#E" transform="matrix(1,0,0,1,784.7832193622074,561.8059384067128) translate(3.440901141240303 17.287246997790245)"/><use xlink:href="#F" transform="matrix(1,0,0,1,784.7832193622074,561.8059384067128) translate(5.871920250304555 43.21811749447561)"/><use xlink:href="#B" transform="matrix(1,0,0,1,784.7832193622074,561.8059384067128) translate(45.428502790387085 43.21811749447561)"/></g><path d="M833.58 655.38v131.95a5 5 0 0 1-5 5H415.42a5 5 0 0 0-5 5v27.3a4.62 4.62 0 0 1-4.6 4.6" stroke="#000" fill="none"/><path d="M833.58 654.88l.5-.03v.54h-1v-.55z" stroke="#000" stroke-width=".05"/><path d="M391.04 829.24l14.27-4.64v9.27z" stroke="#000"/><path d="M1206.24 984.35a8 8 0 0 1 8-8h102.25a8 8 0 0 1 8 8v55.63a8 8 0 0 1-8 8h-102.26a8 8 0 0 1-8-8z" stroke="#000" stroke-opacity="0" fill="#fff" fill-opacity="0"/><g><use xlink:href="#E" transform="matrix(1,0,0,1,1211.2365497838096,981.3530362378344) translate(8.940901141240303 21.162246997790245)"/><use xlink:href="#B" transform="matrix(1,0,0,1,1211.2365497838096,981.3530362378344) translate(31.15021152034582 47.09311749447561)"/></g><defs><path d="M233-177c-1 41-23 64-60 70L243 0h-38l-65-103H63V0H30v-248c88 3 205-21 203 71zM63-129c60-2 137 13 137-47 0-61-80-42-137-45v92" id="G"/><path d="M100-194c63 0 86 42 84 106H49c0 40 14 67 53 68 26 1 43-12 49-29l28 8c-11 28-37 45-77 45C44 4 14-33 15-96c1-61 26-98 85-98zm52 81c6-60-76-77-97-28-3 7-6 17-6 28h103" id="H"/><path d="M177-190C167-65 218 103 67 71c-23-6-38-20-44-43l32-5c15 47 100 32 89-28v-30C133-14 115 1 83 1 29 1 15-40 15-95c0-56 16-97 71-98 29-1 48 16 59 35 1-10 0-23 2-32h30zM94-22c36 0 50-32 50-73 0-42-14-75-50-75-39 0-46 34-46 75s6 73 46 73" id="I"/><path d="M24-231v-30h32v30H24zM24 0v-190h32V0H24" id="J"/><path d="M135-143c-3-34-86-38-87 0 15 53 115 12 119 90S17 21 10-45l28-5c4 36 97 45 98 0-10-56-113-15-118-90-4-57 82-63 122-42 12 7 21 19 24 35" id="K"/><path d="M59-47c-2 24 18 29 38 22v24C64 9 27 4 27-40v-127H5v-23h24l9-43h21v43h35v23H59v120" id="L"/><path d="M114-163C36-179 61-72 57 0H25l-1-190h30c1 12-1 29 2 39 6-27 23-49 58-41v29" id="M"/><path d="M85-194c31 0 48 13 60 33l-1-100h32l1 261h-30c-2-10 0-23-3-31C134-8 116 4 85 4 32 4 16-35 15-94c0-66 23-100 70-100zm9 24c-40 0-46 34-46 75 0 40 6 74 45 74 42 0 51-32 51-76 0-42-9-74-50-73" id="N"/><g id="a"><use transform="matrix(0.05,0,0,0.05,0,0)" xlink:href="#G"/><use transform="matrix(0.05,0,0,0.05,12.950000000000001,0)" xlink:href="#H"/><use transform="matrix(0.05,0,0,0.05,22.950000000000003,0)" xlink:href="#I"/><use transform="matrix(0.05,0,0,0.05,32.95,0)" xlink:href="#J"/><use transform="matrix(0.05,0,0,0.05,36.900000000000006,0)" xlink:href="#K"/><use transform="matrix(0.05,0,0,0.05,45.900000000000006,0)" xlink:href="#L"/><use transform="matrix(0.05,0,0,0.05,50.900000000000006,0)" xlink:href="#H"/><use transform="matrix(0.05,0,0,0.05,60.900000000000006,0)" xlink:href="#M"/><use transform="matrix(0.05,0,0,0.05,66.85000000000001,0)" xlink:href="#H"/><use transform="matrix(0.05,0,0,0.05,76.85000000000001,0)" xlink:href="#N"/></g><path d="M232-93c-1 65-40 97-104 97C67 4 28-28 28-90v-158h33c8 89-33 224 67 224 102 0 64-133 71-224h33v155" id="O"/><g id="b"><use transform="matrix(0.05,0,0,0.05,0,0)" xlink:href="#O"/><use transform="matrix(0.05,0,0,0.05,12.950000000000001,0)" xlink:href="#K"/><use transform="matrix(0.05,0,0,0.05,21.950000000000003,0)" xlink:href="#H"/><use transform="matrix(0.05,0,0,0.05,31.950000000000003,0)" xlink:href="#M"/></g><path fill="#666" d="M25-224v-37h50v37H25zM25 0v-190h50V0H25" id="P"/><path fill="#666" d="M67-125c0 54 23 88 75 88 28 0 53-7 68-21v-34h-60v-39h108v91C232-14 192 4 140 4 58 4 20-42 15-125 8-236 126-280 215-234c19 10 29 26 37 47l-47 15c-11-23-29-39-63-39-53 1-75 33-75 86" id="Q"/><path fill="#666" d="M110-194c64 0 96 36 96 99 0 64-35 99-97 99-61 0-95-36-95-99 0-62 34-99 96-99zm-1 164c35 0 45-28 45-65 0-40-10-65-43-65-34 0-45 26-45 65 0 36 10 65 43 65" id="R"/><g id="c"><use transform="matrix(0.060025163186771674,0,0,0.060025163186771674,0,0)" xlink:href="#P"/><use transform="matrix(0.060025163186771674,0,0,0.060025163186771674,6.002516318677167,0)" xlink:href="#Q"/><use transform="matrix(0.060025163186771674,0,0,0.060025163186771674,22.809562010973234,0)" xlink:href="#R"/></g><path d="M160-131c35 5 61 23 61 61C221 17 115-2 30 0v-248c76 3 177-17 177 60 0 33-19 50-47 57zm-97-11c50-1 110 9 110-42 0-47-63-36-110-37v79zm0 115c55-2 124 14 124-45 0-56-70-42-124-44v89" id="S"/><path d="M141-36C126-15 110 5 73 4 37 3 15-17 15-53c-1-64 63-63 125-63 3-35-9-54-41-54-24 1-41 7-42 31l-33-3c5-37 33-52 76-52 45 0 72 20 72 64v82c-1 20 7 32 28 27v20c-31 9-61-2-59-35zM48-53c0 20 12 33 32 33 41-3 63-29 60-74-43 2-92-5-92 41" id="T"/><path d="M117-194c89-4 53 116 60 194h-32v-121c0-31-8-49-39-48C34-167 62-67 57 0H25l-1-190h30c1 10-1 24 2 32 11-22 29-35 61-36" id="U"/><path d="M143 0L79-87 56-68V0H24v-261h32v163l83-92h37l-77 82L181 0h-38" id="V"/><g id="d"><use transform="matrix(0.05,0,0,0.05,0,0)" xlink:href="#S"/><use transform="matrix(0.05,0,0,0.05,12,0)" xlink:href="#T"/><use transform="matrix(0.05,0,0,0.05,22,0)" xlink:href="#U"/><use transform="matrix(0.05,0,0,0.05,32,0)" xlink:href="#V"/></g><path fill="#666" d="M185-189c-5-48-123-54-124 2 14 75 158 14 163 119 3 78-121 87-175 55-17-10-28-26-33-46l33-7c5 56 141 63 141-1 0-78-155-14-162-118-5-82 145-84 179-34 5 7 8 16 11 25" id="W"/><path fill="#666" d="M100-194c63 0 86 42 84 106H49c0 40 14 67 53 68 26 1 43-12 49-29l28 8c-11 28-37 45-77 45C44 4 14-33 15-96c1-61 26-98 85-98zm52 81c6-60-76-77-97-28-3 7-6 17-6 28h103" id="X"/><path fill="#666" d="M24 0v-261h32V0H24" id="Y"/><path fill="#666" d="M96-169c-40 0-48 33-48 73s9 75 48 75c24 0 41-14 43-38l32 2c-6 37-31 61-74 61-59 0-76-41-82-99-10-93 101-131 147-64 4 7 5 14 7 22l-32 3c-4-21-16-35-41-35" id="Z"/><path fill="#666" d="M59-47c-2 24 18 29 38 22v24C64 9 27 4 27-40v-127H5v-23h24l9-43h21v43h35v23H59v120" id="aa"/><g id="e"><use transform="matrix(0.060025163186771674,0,0,0.060025163186771674,0,0)" xlink:href="#W"/><use transform="matrix(0.060025163186771674,0,0,0.060025163186771674,14.406039164825202,0)" xlink:href="#X"/><use transform="matrix(0.060025163186771674,0,0,0.060025163186771674,26.411071802179535,0)" xlink:href="#Y"/><use transform="matrix(0.060025163186771674,0,0,0.060025163186771674,31.153059693934498,0)" xlink:href="#X"/><use transform="matrix(0.060025163186771674,0,0,0.060025163186771674,43.158092331288834,0)" xlink:href="#Z"/><use transform="matrix(0.060025163186771674,0,0,0.060025163186771674,53.96262170490773,0)" xlink:href="#aa"/></g><path fill="#666" d="M30 0v-248h33v221h125V0H30" id="ab"/><path fill="#666" d="M141-36C126-15 110 5 73 4 37 3 15-17 15-53c-1-64 63-63 125-63 3-35-9-54-41-54-24 1-41 7-42 31l-33-3c5-37 33-52 76-52 45 0 72 20 72 64v82c-1 20 7 32 28 27v20c-31 9-61-2-59-35zM48-53c0 20 12 33 32 33 41-3 63-29 60-74-43 2-92-5-92 41" id="ac"/><path fill="#666" d="M117-194c89-4 53 116 60 194h-32v-121c0-31-8-49-39-48C34-167 62-67 57 0H25l-1-190h30c1 10-1 24 2 32 11-22 29-35 61-36" id="ad"/><path fill="#666" d="M177-190C167-65 218 103 67 71c-23-6-38-20-44-43l32-5c15 47 100 32 89-28v-30C133-14 115 1 83 1 29 1 15-40 15-95c0-56 16-97 71-98 29-1 48 16 59 35 1-10 0-23 2-32h30zM94-22c36 0 50-32 50-73 0-42-14-75-50-75-39 0-46 34-46 75s6 73 46 73" id="ae"/><path fill="#666" d="M84 4C-5 8 30-112 23-190h32v120c0 31 7 50 39 49 72-2 45-101 50-169h31l1 190h-30c-1-10 1-25-2-33-11 22-28 36-60 37" id="af"/><g id="f"><use transform="matrix(0.060025163186771674,0,0,0.060025163186771674,0,0)" xlink:href="#ab"/><use transform="matrix(0.060025163186771674,0,0,0.060025163186771674,12.005032637354335,0)" xlink:href="#ac"/><use transform="matrix(0.060025163186771674,0,0,0.060025163186771674,24.01006527470867,0)" xlink:href="#ad"/><use transform="matrix(0.060025163186771674,0,0,0.060025163186771674,36.015097912063005,0)" xlink:href="#ae"/><use transform="matrix(0.060025163186771674,0,0,0.060025163186771674,48.02013054941734,0)" xlink:href="#af"/><use transform="matrix(0.060025163186771674,0,0,0.060025163186771674,60.02516318677167,0)" xlink:href="#ac"/><use transform="matrix(0.060025163186771674,0,0,0.060025163186771674,72.03019582412601,0)" xlink:href="#ae"/><use transform="matrix(0.060025163186771674,0,0,0.060025163186771674,84.03522846148034,0)" xlink:href="#X"/></g><path fill="#666" d="M24-231v-30h32v30H24zM24 0v-190h32V0H24" id="ag"/><path fill="#666" d="M143 4C61 4 22-44 18-125c-5-107 100-154 193-111 17 8 29 25 37 43l-32 9c-13-25-37-40-76-40-61 0-88 39-88 99 0 61 29 100 91 101 35 0 62-11 79-27v-45h-74v-28h105v86C228-13 192 4 143 4" id="ah"/><path fill="#666" d="M100-194c62-1 85 37 85 99 1 63-27 99-86 99S16-35 15-95c0-66 28-99 85-99zM99-20c44 1 53-31 53-75 0-43-8-75-51-75s-53 32-53 75 10 74 51 75" id="ai"/><g id="g"><use transform="matrix(0.060025163186771674,0,0,0.060025163186771674,0,0)" xlink:href="#ag"/><use transform="matrix(0.060025163186771674,0,0,0.060025163186771674,4.741987891754962,0)" xlink:href="#ah"/><use transform="matrix(0.060025163186771674,0,0,0.060025163186771674,21.54903358405103,0)" xlink:href="#ai"/></g><path fill="#666" d="M266 0h-40l-56-210L115 0H75L2-248h35L96-30l15-64 43-154h32l59 218 59-218h35" id="aj"/><path fill="#666" d="M210-169c-67 3-38 105-44 169h-31v-121c0-29-5-50-35-48C34-165 62-65 56 0H25l-1-190h30c1 10-1 24 2 32 10-44 99-50 107 0 11-21 27-35 58-36 85-2 47 119 55 194h-31v-121c0-29-5-49-35-48" id="ak"/><g id="h"><use transform="matrix(0.060025163186771674,0,0,0.060025163186771674,0,0)" xlink:href="#aj"/><use transform="matrix(0.060025163186771674,0,0,0.060025163186771674,19.928354178008195,0)" xlink:href="#X"/><use transform="matrix(0.060025163186771674,0,0,0.060025163186771674,31.93338681536253,0)" xlink:href="#Y"/><use transform="matrix(0.060025163186771674,0,0,0.060025163186771674,36.67537470711749,0)" xlink:href="#Z"/><use transform="matrix(0.060025163186771674,0,0,0.060025163186771674,47.47990408073639,0)" xlink:href="#ai"/><use transform="matrix(0.060025163186771674,0,0,0.060025163186771674,59.48493671809072,0)" xlink:href="#ak"/><use transform="matrix(0.060025163186771674,0,0,0.060025163186771674,77.43246051093546,0)" xlink:href="#X"/></g><path fill="#666" d="M114-163C36-179 61-72 57 0H25l-1-190h30c1 12-1 29 2 39 6-27 23-49 58-41v29" id="al"/><g id="i"><use transform="matrix(0.060025163186771674,0,0,0.060025163186771674,0,0)" xlink:href="#W"/><use transform="matrix(0.060025163186771674,0,0,0.060025163186771674,14.406039164825202,0)" xlink:href="#Z"/><use transform="matrix(0.060025163186771674,0,0,0.060025163186771674,25.210568538444104,0)" xlink:href="#al"/><use transform="matrix(0.060025163186771674,0,0,0.060025163186771674,32.353562957669936,0)" xlink:href="#X"/><use transform="matrix(0.060025163186771674,0,0,0.060025163186771674,44.35859559502427,0)" xlink:href="#X"/><use transform="matrix(0.060025163186771674,0,0,0.060025163186771674,56.3636282323786,0)" xlink:href="#ad"/></g><g id="j"><use transform="matrix(0.060025163186771674,0,0,0.060025163186771674,0,0)" xlink:href="#W"/><use transform="matrix(0.060025163186771674,0,0,0.060025163186771674,14.406039164825202,0)" xlink:href="#X"/><use transform="matrix(0.060025163186771674,0,0,0.060025163186771674,26.411071802179535,0)" xlink:href="#Y"/><use transform="matrix(0.060025163186771674,0,0,0.060025163186771674,31.153059693934498,0)" xlink:href="#X"/><use transform="matrix(0.060025163186771674,0,0,0.060025163186771674,43.158092331288834,0)" xlink:href="#Z"/><use transform="matrix(0.060025163186771674,0,0,0.060025163186771674,53.96262170490773,0)" xlink:href="#aa"/></g><path fill="#666" d="M127-220V0H93v-220H8v-28h204v28h-85" id="am"/><path fill="#666" d="M115-194c55 1 70 41 70 98S169 2 115 4C84 4 66-9 55-30l1 105H24l-1-265h31l2 30c10-21 28-34 59-34zm-8 174c40 0 45-34 45-75s-6-73-45-74c-42 0-51 32-51 76 0 43 10 73 51 73" id="an"/><g id="k"><use transform="matrix(0.060025163186771674,0,0,0.060025163186771674,0,0)" xlink:href="#am"/><use transform="matrix(0.060025163186771674,0,0,0.060025163186771674,12.365183616474965,0)" xlink:href="#al"/><use transform="matrix(0.060025163186771674,0,0,0.060025163186771674,19.508178035700794,0)" xlink:href="#ag"/><use transform="matrix(0.060025163186771674,0,0,0.060025163186771674,24.250165927455757,0)" xlink:href="#an"/></g><path fill="#666" d="M179-190L93 31C79 59 56 82 12 73V49c39 6 53-20 64-50L1-190h34L92-34l54-156h33" id="ao"/><g id="l"><use transform="matrix(0.060025163186771674,0,0,0.060025163186771674,0,0)" xlink:href="#am"/><use transform="matrix(0.060025163186771674,0,0,0.060025163186771674,11.945007474167564,0)" xlink:href="#ao"/><use transform="matrix(0.060025163186771674,0,0,0.060025163186771674,22.749536847786466,0)" xlink:href="#an"/><use transform="matrix(0.060025163186771674,0,0,0.060025163186771674,34.7545694851408,0)" xlink:href="#X"/></g><g id="m"><use transform="matrix(0.060025163186771674,0,0,0.060025163186771674,0,0)" xlink:href="#ai"/><use transform="matrix(0.060025163186771674,0,0,0.060025163186771674,12.005032637354335,0)" xlink:href="#al"/></g><path fill="#666" d="M240 0l2-218c-23 76-54 145-80 218h-23L58-218 59 0H30v-248h44l77 211c21-75 51-140 76-211h43V0h-30" id="ap"/><path fill="#666" d="M106-169C34-169 62-67 57 0H25v-261h32l-1 103c12-21 28-36 61-36 89 0 53 116 60 194h-32v-121c2-32-8-49-39-48" id="aq"/><g id="n"><use transform="matrix(0.060025163186771674,0,0,0.060025163186771674,0,0)" xlink:href="#ap"/><use transform="matrix(0.060025163186771674,0,0,0.060025163186771674,17.94752379284473,0)" xlink:href="#ai"/><use transform="matrix(0.060025163186771674,0,0,0.060025163186771674,29.952556430199067,0)" xlink:href="#ad"/><use transform="matrix(0.060025163186771674,0,0,0.060025163186771674,41.9575890675534,0)" xlink:href="#aa"/><use transform="matrix(0.060025163186771674,0,0,0.060025163186771674,47.960105386230566,0)" xlink:href="#aq"/><use transform="matrix(0.060025163186771674,0,0,0.060025163186771674,59.9651380235849,0)" xlink:href="#Y"/><use transform="matrix(0.060025163186771674,0,0,0.060025163186771674,64.70712591533986,0)" xlink:href="#ao"/></g><path fill="#666" d="M30-248c87 1 191-15 191 75 0 78-77 80-158 76V0H30v-248zm33 125c57 0 124 11 124-50 0-59-68-47-124-48v98" id="ar"/><g id="o"><use transform="matrix(0.060025163186771674,0,0,0.060025163186771674,0,0)" xlink:href="#ar"/><use transform="matrix(0.060025163186771674,0,0,0.060025163186771674,14.406039164825202,0)" xlink:href="#Y"/><use transform="matrix(0.060025163186771674,0,0,0.060025163186771674,19.148027056580165,0)" xlink:href="#ac"/><use transform="matrix(0.060025163186771674,0,0,0.060025163186771674,31.153059693934498,0)" xlink:href="#ad"/></g><path fill="#666" d="M135-143c-3-34-86-38-87 0 15 53 115 12 119 90S17 21 10-45l28-5c4 36 97 45 98 0-10-56-113-15-118-90-4-57 82-63 122-42 12 7 21 19 24 35" id="as"/><g id="p"><use transform="matrix(0.060025163186771674,0,0,0.060025163186771674,0,0)" xlink:href="#ar"/><use transform="matrix(0.060025163186771674,0,0,0.060025163186771674,14.406039164825202,0)" xlink:href="#al"/><use transform="matrix(0.060025163186771674,0,0,0.060025163186771674,21.54903358405103,0)" xlink:href="#ai"/><use transform="matrix(0.060025163186771674,0,0,0.060025163186771674,33.554066221405364,0)" xlink:href="#Z"/><use transform="matrix(0.060025163186771674,0,0,0.060025163186771674,44.35859559502427,0)" xlink:href="#X"/><use transform="matrix(0.060025163186771674,0,0,0.060025163186771674,56.3636282323786,0)" xlink:href="#as"/><use transform="matrix(0.060025163186771674,0,0,0.060025163186771674,67.16815760599751,0)" xlink:href="#as"/></g><g id="q"><use transform="matrix(0.060025163186771674,0,0,0.060025163186771674,0,0)" xlink:href="#ar"/><use transform="matrix(0.060025163186771674,0,0,0.060025163186771674,14.406039164825202,0)" xlink:href="#ac"/><use transform="matrix(0.060025163186771674,0,0,0.060025163186771674,26.411071802179535,0)" xlink:href="#ao"/><use transform="matrix(0.060025163186771674,0,0,0.060025163186771674,37.21560117579844,0)" xlink:href="#ak"/><use transform="matrix(0.060025163186771674,0,0,0.060025163186771674,55.163124968643174,0)" xlink:href="#X"/><use transform="matrix(0.060025163186771674,0,0,0.060025163186771674,67.16815760599751,0)" xlink:href="#ad"/><use transform="matrix(0.060025163186771674,0,0,0.060025163186771674,79.17319024335184,0)" xlink:href="#aa"/></g><path fill="#666" d="M233-177c-1 41-23 64-60 70L243 0h-38l-65-103H63V0H30v-248c88 3 205-21 203 71zM63-129c60-2 137 13 137-47 0-61-80-42-137-45v92" id="at"/><g id="r"><use transform="matrix(0.060025163186771674,0,0,0.060025163186771674,0,0)" xlink:href="#at"/><use transform="matrix(0.060025163186771674,0,0,0.060025163186771674,15.546517265373863,0)" xlink:href="#X"/><use transform="matrix(0.060025163186771674,0,0,0.060025163186771674,27.551549902728198,0)" xlink:href="#aa"/><use transform="matrix(0.060025163186771674,0,0,0.060025163186771674,33.554066221405364,0)" xlink:href="#af"/><use transform="matrix(0.060025163186771674,0,0,0.060025163186771674,45.5590988587597,0)" xlink:href="#al"/><use transform="matrix(0.060025163186771674,0,0,0.060025163186771674,52.702093277985526,0)" xlink:href="#ad"/></g><path fill="#666" d="M212-179c-10-28-35-45-73-45-59 0-87 40-87 99 0 60 29 101 89 101 43 0 62-24 78-52l27 14C228-24 195 4 139 4 59 4 22-46 18-125c-6-104 99-153 187-111 19 9 31 26 39 46" id="au"/><g id="s"><use transform="matrix(0.060025163186771674,0,0,0.060025163186771674,0,0)" xlink:href="#au"/><use transform="matrix(0.060025163186771674,0,0,0.060025163186771674,15.546517265373863,0)" xlink:href="#aq"/><use transform="matrix(0.060025163186771674,0,0,0.060025163186771674,27.551549902728198,0)" xlink:href="#ac"/><use transform="matrix(0.060025163186771674,0,0,0.060025163186771674,39.55658254008253,0)" xlink:href="#ad"/><use transform="matrix(0.060025163186771674,0,0,0.060025163186771674,51.56161517743686,0)" xlink:href="#ae"/><use transform="matrix(0.060025163186771674,0,0,0.060025163186771674,63.5666478147912,0)" xlink:href="#X"/></g><path fill="#666" d="M85-194c31 0 48 13 60 33l-1-100h32l1 261h-30c-2-10 0-23-3-31C134-8 116 4 85 4 32 4 16-35 15-94c0-66 23-100 70-100zm9 24c-40 0-46 34-46 75 0 40 6 74 45 74 42 0 51-32 51-76 0-42-9-74-50-73" id="av"/><g id="t"><use transform="matrix(0.060025163186771674,0,0,0.060025163186771674,0,0)" xlink:href="#ar"/><use transform="matrix(0.060025163186771674,0,0,0.060025163186771674,14.406039164825202,0)" xlink:href="#ac"/><use transform="matrix(0.060025163186771674,0,0,0.060025163186771674,26.411071802179535,0)" xlink:href="#ag"/><use transform="matrix(0.060025163186771674,0,0,0.060025163186771674,31.153059693934498,0)" xlink:href="#av"/></g><g id="u"><use transform="matrix(0.060025163186771674,0,0,0.060025163186771674,0,0)" xlink:href="#aj"/><use transform="matrix(0.060025163186771674,0,0,0.060025163186771674,20.348530320315596,0)" xlink:href="#ag"/><use transform="matrix(0.060025163186771674,0,0,0.060025163186771674,25.09051821207056,0)" xlink:href="#aa"/><use transform="matrix(0.060025163186771674,0,0,0.060025163186771674,31.093034530747726,0)" xlink:href="#aq"/></g><g id="v"><use transform="matrix(0.060025163186771674,0,0,0.060025163186771674,0,0)" xlink:href="#au"/><use transform="matrix(0.060025163186771674,0,0,0.060025163186771674,15.546517265373863,0)" xlink:href="#ac"/><use transform="matrix(0.060025163186771674,0,0,0.060025163186771674,27.551549902728198,0)" xlink:href="#as"/><use transform="matrix(0.060025163186771674,0,0,0.060025163186771674,38.3560792763471,0)" xlink:href="#aq"/></g><g id="w"><use transform="matrix(0.060025163186771674,0,0,0.060025163186771674,0,0)" xlink:href="#au"/><use transform="matrix(0.060025163186771674,0,0,0.060025163186771674,15.546517265373863,0)" xlink:href="#ac"/><use transform="matrix(0.060025163186771674,0,0,0.060025163186771674,27.551549902728198,0)" xlink:href="#al"/><use transform="matrix(0.060025163186771674,0,0,0.060025163186771674,34.69454432195403,0)" xlink:href="#av"/></g><path fill="#666" d="M33 0v-248h34V0H33" id="aw"/><path fill="#666" d="M108 0H70L1-190h34L89-25l56-165h34" id="ax"/><g id="x"><use transform="matrix(0.060025163186771674,0,0,0.060025163186771674,0,0)" xlink:href="#aw"/><use transform="matrix(0.060025163186771674,0,0,0.060025163186771674,6.002516318677167,0)" xlink:href="#ad"/><use transform="matrix(0.060025163186771674,0,0,0.060025163186771674,18.007548956031503,0)" xlink:href="#ax"/><use transform="matrix(0.060025163186771674,0,0,0.060025163186771674,28.812078329650404,0)" xlink:href="#ac"/><use transform="matrix(0.060025163186771674,0,0,0.060025163186771674,40.81711096700474,0)" xlink:href="#Y"/><use transform="matrix(0.060025163186771674,0,0,0.060025163186771674,45.5590988587597,0)" xlink:href="#ag"/><use transform="matrix(0.060025163186771674,0,0,0.060025163186771674,50.301086750514656,0)" xlink:href="#av"/></g><path fill="#666" d="M137 0h-34L2-248h35l83 218 83-218h36" id="ay"/><g id="y"><use transform="matrix(0.060025163186771674,0,0,0.060025163186771674,0,0)" xlink:href="#ay"/><use transform="matrix(0.060025163186771674,0,0,0.060025163186771674,12.785359758782366,0)" xlink:href="#ac"/><use transform="matrix(0.060025163186771674,0,0,0.060025163186771674,24.790392396136703,0)" xlink:href="#Y"/><use transform="matrix(0.060025163186771674,0,0,0.060025163186771674,29.532380287891666,0)" xlink:href="#ag"/><use transform="matrix(0.060025163186771674,0,0,0.060025163186771674,34.27436817964663,0)" xlink:href="#av"/></g><g id="z"><use transform="matrix(0.060025163186771674,0,0,0.060025163186771674,0,0)" xlink:href="#at"/><use transform="matrix(0.060025163186771674,0,0,0.060025163186771674,15.546517265373863,0)" xlink:href="#X"/><use transform="matrix(0.060025163186771674,0,0,0.060025163186771674,27.551549902728198,0)" xlink:href="#Z"/><use transform="matrix(0.060025163186771674,0,0,0.060025163186771674,38.3560792763471,0)" xlink:href="#aq"/><use transform="matrix(0.060025163186771674,0,0,0.060025163186771674,50.361111913701436,0)" xlink:href="#ac"/><use transform="matrix(0.060025163186771674,0,0,0.060025163186771674,62.36614455105577,0)" xlink:href="#al"/><use transform="matrix(0.060025163186771674,0,0,0.060025163186771674,69.5091389702816,0)" xlink:href="#ae"/><use transform="matrix(0.060025163186771674,0,0,0.060025163186771674,81.51417160763593,0)" xlink:href="#X"/></g><g id="A"><use transform="matrix(0.060025163186771674,0,0,0.060025163186771674,0,0)" xlink:href="#ag"/><use transform="matrix(0.060025163186771674,0,0,0.060025163186771674,4.741987891754962,0)" xlink:href="#ah"/><use transform="matrix(0.060025163186771674,0,0,0.060025163186771674,21.54903358405103,0)" xlink:href="#ai"/></g><g id="B"><use transform="matrix(0.060025163186771674,0,0,0.060025163186771674,0,0)" xlink:href="#au"/><use transform="matrix(0.060025163186771674,0,0,0.060025163186771674,15.546517265373863,0)" xlink:href="#ac"/><use transform="matrix(0.060025163186771674,0,0,0.060025163186771674,27.551549902728198,0)" xlink:href="#al"/><use transform="matrix(0.060025163186771674,0,0,0.060025163186771674,34.69454432195403,0)" xlink:href="#av"/></g><path fill="#666" d="M30 0v-248h187v28H63v79h144v27H63v87h162V0H30" id="az"/><g id="C"><use transform="matrix(0.060025163186771674,0,0,0.060025163186771674,0,0)" xlink:href="#az"/><use transform="matrix(0.060025163186771674,0,0,0.060025163186771674,14.406039164825202,0)" xlink:href="#ad"/><use transform="matrix(0.060025163186771674,0,0,0.060025163186771674,26.411071802179535,0)" xlink:href="#aa"/><use transform="matrix(0.060025163186771674,0,0,0.060025163186771674,32.4135881208567,0)" xlink:href="#X"/><use transform="matrix(0.060025163186771674,0,0,0.060025163186771674,44.418620758211034,0)" xlink:href="#al"/></g><g id="D"><use transform="matrix(0.060025163186771674,0,0,0.060025163186771674,0,0)" xlink:href="#ag"/><use transform="matrix(0.060025163186771674,0,0,0.060025163186771674,4.741987891754962,0)" xlink:href="#ah"/><use transform="matrix(0.060025163186771674,0,0,0.060025163186771674,21.54903358405103,0)" xlink:href="#ai"/></g><path fill="#666" d="M205 0l-28-72H64L36 0H1l101-248h38L239 0h-34zm-38-99l-47-123c-12 45-31 82-46 123h93" id="aA"/><path fill="#666" d="M9 0v-24l116-142H16v-24h144v24L44-24h123V0H9" id="aB"/><g id="E"><use transform="matrix(0.060025163186771674,0,0,0.060025163186771674,0,0)" xlink:href="#aA"/><use transform="matrix(0.060025163186771674,0,0,0.060025163186771674,14.406039164825202,0)" xlink:href="#af"/><use transform="matrix(0.060025163186771674,0,0,0.060025163186771674,26.411071802179535,0)" xlink:href="#aa"/><use transform="matrix(0.060025163186771674,0,0,0.060025163186771674,32.4135881208567,0)" xlink:href="#aq"/><use transform="matrix(0.060025163186771674,0,0,0.060025163186771674,44.418620758211034,0)" xlink:href="#ai"/><use transform="matrix(0.060025163186771674,0,0,0.060025163186771674,56.42365339556537,0)" xlink:href="#al"/><use transform="matrix(0.060025163186771674,0,0,0.060025163186771674,63.5666478147912,0)" xlink:href="#ag"/><use transform="matrix(0.060025163186771674,0,0,0.060025163186771674,68.30863570654616,0)" xlink:href="#aB"/><use transform="matrix(0.060025163186771674,0,0,0.060025163186771674,79.11316508016506,0)" xlink:href="#X"/></g><g id="F"><use transform="matrix(0.060025163186771674,0,0,0.060025163186771674,0,0)" xlink:href="#ag"/><use transform="matrix(0.060025163186771674,0,0,0.060025163186771674,4.741987891754962,0)" xlink:href="#ah"/><use transform="matrix(0.060025163186771674,0,0,0.060025163186771674,21.54903358405103,0)" xlink:href="#ai"/></g></defs></g></svg>