<svg xmlns="http://www.w3.org/2000/svg" xmlns:xlink="http://www.w3.org/1999/xlink" xmlns:lucid="lucid" width="1466" height="1205"><g transform="translate(0 -316)" lucid:page-tab-id="0_0"><path d="M0 0h1608.32v2081.35H0z" fill-opacity="0"/><path d="M94.6 386.43a8 8 0 0 1 8-8h99a8 8 0 0 1 8 8v4.93a17.07 17.07 0 0 1-5 12.07 17.07 17.07 0 0 1-12.06 5H102.6a8 8 0 0 1-8-8z" fill="#fff"/><path d="M209.6 378.43v20l-10 10h-105" stroke="#333" fill="none"/><path d="M94.6 386.43a8 8 0 0 1 8-8h409.74a8 8 0 0 1 8 8v1048.32a8 8 0 0 1-8 8H102.6a8 8 0 0 1-8-8z" stroke="#333" fill="none"/><use xlink:href="#a" transform="matrix(1,0,0,1,102.60678821833801,378.427152873352) translate(0 18.6)"/><path d="M520.34 388.27a8 8 0 0 1 8-8h84a8 8 0 0 1 8 8v4.93a17.07 17.07 0 0 1-5 12.07 17.07 17.07 0 0 1-12.07 5h-74.93a8 8 0 0 1-8-8z" fill="#fff"/><path d="M620.34 380.27v20l-10 10h-90" stroke="#333" fill="none"/><path d="M520.34 388.27a8 8 0 0 1 8-8h551.64a8 8 0 0 1 8 8v1046.48a8 8 0 0 1-8 8H528.34a8 8 0 0 1-8-8z" stroke="#333" fill="none"/><use xlink:href="#b" transform="matrix(1,0,0,1,528.337335200859,380.2669675703348) translate(23.022463625561883 19.321811749447562)"/><path d="M1087.98 386.43a8 8 0 0 1 8-8h99a8 8 0 0 1 8 8v4.93a17.07 17.07 0 0 1-5 12.07 17.07 17.07 0 0 1-12.07 5H1096a8 8 0 0 1-8-8z" fill="#fff"/><path d="M1202.98 378.43v20l-10 10h-105" stroke="#333" fill="none"/><path d="M1087.98 386.43a8 8 0 0 1 8-8h291.47a8 8 0 0 1 8 8v1048.32a8 8 0 0 1-8 8h-291.47a8 8 0 0 1-8-8z" stroke="#333" fill="none"/><use xlink:href="#c" transform="matrix(1,0,0,1,1095.9780645108872,378.427152873352) translate(0 18.6)"/><path d="M252.87 422.08c0 11.05-8.96 20-20 20-11.05 0-20-8.95-20-20s8.95-20 20-20c11.04 0 20 8.95 20 20z" stroke="#333"/><path d="M312.87 1392.66c0 11.05-8.96 20-20 20-11.05 0-20-8.95-20-20 0-11.04 8.95-20 20-20 11.04 0 20 8.96 20 20z" stroke="#333" fill="#fff"/><path d="M304.87 1392.66c0 6.63-5.38 12-12 12-6.63 0-12-5.37-12-12 0-6.62 5.37-12 12-12 6.62 0 12 5.38 12 12z" stroke="#333"/><path d="M592.8 425.73c-8.82 0-16 7.16-16 16v48c0 8.84 7.18 16 16 16h128c8.85 0 16-7.16 16-16v-48c0-8.84-7.15-16-16-16z" stroke="#333" fill="#fff"/><use xlink:href="#d" transform="matrix(1,0,0,1,584.8139806214574,433.73054698252105) translate(35.41466303766266 23.35637650110488)"/><use xlink:href="#e" transform="matrix(1,0,0,1,584.8139806214574,433.73054698252105) translate(41.41717935633983 23.35637650110488)"/><use xlink:href="#f" transform="matrix(1,0,0,1,584.8139806214574,433.73054698252105) translate(37.81566956513353 49.28724699779025)"/><path d="M118.26 717.55a8 8 0 0 1 8-8h271.48a8 8 0 0 1 8 8v268.2a8 8 0 0 1-8 8H126.26a8 8 0 0 1-8-8z" stroke="#333" fill="#fff"/><use xlink:href="#g" transform="matrix(1,0,0,1,118.25848527292251,709.5509116375351) translate(40.38176964512626 92.99037199779025)"/><use xlink:href="#h" transform="matrix(1,0,0,1,118.25848527292251,709.5509116375351) translate(97.94590114124028 92.99037199779025)"/><use xlink:href="#d" transform="matrix(1,0,0,1,118.25848527292251,709.5509116375351) translate(29.607252853100768 118.92124249447562)"/><use xlink:href="#i" transform="matrix(1,0,0,1,118.25848527292251,709.5509116375351) translate(35.60976917177794 118.92124249447562)"/><use xlink:href="#j" transform="matrix(1,0,0,1,118.25848527292251,709.5509116375351) translate(95.4548568689893 118.92124249447562)"/><use xlink:href="#k" transform="matrix(1,0,0,1,118.25848527292251,709.5509116375351) translate(125.46743846237513 118.92124249447562)"/><use xlink:href="#l" transform="matrix(1,0,0,1,118.25848527292251,709.5509116375351) translate(187.89360817661765 118.92124249447562)"/><use xlink:href="#m" transform="matrix(1,0,0,1,118.25848527292251,709.5509116375351) translate(66.25261497862488 144.852112991161)"/><use xlink:href="#n" transform="matrix(1,0,0,1,118.25848527292251,709.5509116375351) translate(201.60935796479498 144.852112991161)"/><use xlink:href="#o" transform="matrix(1,0,0,1,118.25848527292251,709.5509116375351) translate(68.56358376131558 170.78298348784637)"/><use xlink:href="#d" transform="matrix(1,0,0,1,118.25848527292251,709.5509116375351) translate(72.13508097092848 196.71385398453174)"/><use xlink:href="#p" transform="matrix(1,0,0,1,118.25848527292251,709.5509116375351) translate(78.13759728960565 196.71385398453174)"/><use xlink:href="#q" transform="matrix(1,0,0,1,118.25848527292251,709.5509116375351) translate(120.15521152034582 196.71385398453174)"/><path d="M666.67 666.65a6.54 6.54 0 0 1 10.12 0l84.78 103.8a9.8 9.8 0 0 1 0 12.38l-84.8 103.8a6.54 6.54 0 0 1-10.1 0l-84.8-103.8a9.8 9.8 0 0 1 0-12.4z" stroke="#333" fill="#fff"/><use xlink:href="#r" transform="matrix(1,0,0,1,576.8139806214574,660.4532023333263) translate(56.859008794806606 104.66224699779025)"/><use xlink:href="#s" transform="matrix(1,0,0,1,576.8139806214574,660.4532023333263) translate(41.07239087668566 130.59311749447562)"/><path d="M660.47 506.73v115.04a5 5 0 0 1-5 5h-383.3a5 5 0 0 0-5 5v60.9" stroke="#000" fill="none"/><path d="M660.97 506.74h-1v-.5h1z" stroke="#000" stroke-width=".05"/><path d="M267.18 707.43l-4.64-14.26h9.27z" stroke="#000"/><path d="M671.73 663.25v-34.5a5 5 0 0 1 5-5h95.58a5 5 0 0 0 5-5V470.73a5 5 0 0 0-5-5h-18.6" stroke="#000" fill="none"/><path d="M672.23 663.8l-.5-.05-.5.04v-.57h1z" stroke="#000" stroke-width=".05"/><path d="M738.93 465.73l14.27-4.63v9.27z" stroke="#000"/><path d="M688.9 513.73a8 8 0 0 1 8-8h224a8 8 0 0 1 8 8v44a8 8 0 0 1-8 8h-224a8 8 0 0 1-8-8z" stroke="#000" stroke-opacity="0" fill="#fff" fill-opacity="0"/><use xlink:href="#t" transform="matrix(1,0,0,1,693.892830549394,510.730546982521) translate(101.2242250486359 29.787246997790245)"/><path d="M672.33 741.2a8 8 0 0 1 8-8h224a8 8 0 0 1 8 8v44a8 8 0 0 1-8 8h-224a8 8 0 0 1-8-8z" stroke="#000" stroke-opacity="0" fill="#fff" fill-opacity="0"/><use xlink:href="#u" transform="matrix(1,0,0,1,677.3318513285808,738.2026086921196) translate(97.38261460468252 29.787246997790245)"/><path d="M406.74 851.65h83.44a5 5 0 0 0 5-5V771.9a5 5 0 0 1 5-5h67.56" stroke="#000" fill="none"/><path d="M406.75 852.15h-.5v-1h.5z" stroke="#000" stroke-width=".05"/><path d="M582.5 766.9l-14.26 4.64v-9.27z" stroke="#000"/><path d="M168.87 520.34c-8.84 0-16 7.16-16 16v48c0 8.83 7.16 16 16 16h128c8.83 0 16-7.17 16-16v-48c0-8.84-7.17-16-16-16z" stroke="#333" fill="#fff"/><use xlink:href="#v" transform="matrix(1,0,0,1,160.86527349126052,528.3373352008591) translate(42.01743098820755 23.35637650110488)"/><use xlink:href="#w" transform="matrix(1,0,0,1,160.86527349126052,528.3373352008591) translate(23.97986945058266 49.28724699779025)"/><path d="M232.87 443.08v60.37" stroke="#000" fill="none"/><path d="M232.84 442.58l.53-.02v.53h-1v-.58z" stroke="#000" stroke-width=".05"/><path d="M232.87 518.22l-4.64-14.27h9.27z" stroke="#000"/><path d="M313.87 560.34h125.97a5 5 0 0 0 5-5V461.7a5 5 0 0 1 5-5h110.1" stroke="#000" fill="none"/><path d="M313.88 560.84h-.5v-1h.5z" stroke="#000" stroke-width=".05"/><path d="M574.7 456.7l-14.27 4.64v-9.27z" stroke="#000"/><path d="M867.46 736.63c-8.84 0-16 7.17-16 16v48c0 8.84 7.16 16 16 16h128c8.84 0 16-7.16 16-16v-48c0-8.83-7.16-16-16-16z" stroke="#333" fill="#fff"/><use xlink:href="#x" transform="matrix(1,0,0,1,859.4610939650421,744.6350224942678) translate(6.6325972896056555 23.35637650110488)"/><use xlink:href="#y" transform="matrix(1,0,0,1,859.4610939650421,744.6350224942678) translate(103.813336488989 23.35637650110488)"/><use xlink:href="#z" transform="matrix(1,0,0,1,859.4610939650421,744.6350224942678) translate(48.65021152034582 49.28724699779025)"/><path d="M839.12 875.1c-8.84 0-16 7.18-16 16v48c0 8.85 7.16 16 16 16h128c8.84 0 16-7.15 16-16v-48c0-8.82-7.16-16-16-16z" stroke="#333" fill="#fff"/><use xlink:href="#A" transform="matrix(1,0,0,1,831.1219584416264,883.1127910196266) translate(33.013656510191794 23.35637650110488)"/><use xlink:href="#B" transform="matrix(1,0,0,1,831.1219584416264,883.1127910196266) translate(29.412146718985497 49.28724699779025)"/><path d="M897.6 1046.48a7.6 7.6 0 0 1 11.03 0l14.98 15.77a8.42 8.42 0 0 1 0 11.6l-14.97 15.77a7.6 7.6 0 0 1-11.02 0l-14.97-15.77a8.42 8.42 0 0 1 0-11.6zM867.46 1158.93c-8.84 0-16 7.17-16 16v48c0 8.84 7.16 16 16 16h128c8.84 0 16-7.16 16-16v-48c0-8.83-7.16-16-16-16z" stroke="#333" fill="#fff"/><use xlink:href="#C" transform="matrix(1,0,0,1,859.4610939650421,1166.9331556746406) translate(39.64643704233007 23.35637650110488)"/><use xlink:href="#D" transform="matrix(1,0,0,1,859.4610939650421,1166.9331556746406) translate(34.214159773927236 49.28724699779025)"/><path d="M926.92 1068.05h191.48" stroke="#000" fill="none"/><path d="M926.94 1068.55h-.55l.02-.5-.03-.5h.54z" stroke="#000" stroke-width=".05"/><path d="M1133.16 1068.05l-14.26 4.63v-9.27z" stroke="#000"/><path d="M834.58 1198.93h-18.62a5 5 0 0 1-5-5v-120.88a5 5 0 0 1 5-5h63.36" stroke="#000" fill="none"/><path d="M849.34 1198.93l-14.26 4.64v-9.27z" stroke="#000"/><path d="M879.82 1068.05l.04.5h-.55v-1h.56z" stroke="#000" stroke-width=".05"/><path d="M903.12 956.1v71.12" stroke="#000" fill="none"/><path d="M903.62 956.13h-1v-.52h1z" stroke="#000" stroke-width=".05"/><path d="M903.12 1042l-4.63-14.28h9.26z" stroke="#000"/><path d="M591.3 1141.9a8 8 0 0 1 8-8h224a8 8 0 0 1 8 8v44a8 8 0 0 1-8 8h-224a8 8 0 0 1-8-8z" stroke="#000" stroke-opacity="0" fill="#fff" fill-opacity="0"/><use xlink:href="#E" transform="matrix(1,0,0,1,596.2924263646125,1138.889058315577) translate(40.68884797477668 29.787246997790245)"/><use xlink:href="#F" transform="matrix(1,0,0,1,596.2924263646125,1138.889058315577) translate(89.84945662474269 29.787246997790245)"/><use xlink:href="#G" transform="matrix(1,0,0,1,596.2924263646125,1138.889058315577) translate(138.9500401115219 29.787246997790245)"/><path d="M893.37 1001.76a8 8 0 0 1 8-8h224a8 8 0 0 1 8 8v44a8 8 0 0 1-8 8h-224a8 8 0 0 1-8-8z" stroke="#000" stroke-opacity="0" fill="#fff" fill-opacity="0"/><use xlink:href="#E" transform="matrix(1,0,0,1,898.371276292549,998.7562389346656) translate(42.51961545197321 29.787246997790245)"/><use xlink:href="#F" transform="matrix(1,0,0,1,898.371276292549,998.7562389346656) translate(91.68022410193922 29.787246997790245)"/><use xlink:href="#z" transform="matrix(1,0,0,1,898.371276292549,998.7562389346656) translate(140.78080758871843 29.787246997790245)"/><path d="M228.87 1182.6c-8.84 0-16 7.15-16 16v48c0 8.82 7.16 16 16 16h128c8.83 0 16-7.18 16-16v-48c0-8.85-7.17-16-16-16z" stroke="#333" fill="#fff"/><use xlink:href="#H" transform="matrix(1,0,0,1,220.86527349126052,1190.584852729225) translate(19.297906722014474 23.35637650110488)"/><use xlink:href="#y" transform="matrix(1,0,0,1,220.86527349126052,1190.584852729225) translate(91.14802705658016 23.35637650110488)"/><use xlink:href="#z" transform="matrix(1,0,0,1,220.86527349126052,1190.584852729225) translate(48.65021152034582 49.28724699779025)"/><path d="M786.67 1307.37a8 8 0 0 1 11.32 0l24.15 24.16a8 8 0 0 1 0 11.32L798 1367a8 8 0 0 1-11.33 0l-24.16-24.15a8 8 0 0 1 0-11.32zM1199.13 1019.5a9.63 9.63 0 0 1 12.3 0l59.6 49.53a6.65 6.65 0 0 1 0 10.22l-59.6 49.53a9.63 9.63 0 0 1-12.3 0l-59.6-49.53a6.65 6.65 0 0 1 0-10.22z" stroke="#333" fill="#fff"/><use xlink:href="#I" transform="matrix(1,0,0,1,1133.371276292549,1014.3881810109624) translate(26.445901141240302 64.29724699779024)"/><path d="M1205.28 1016.28V781.64a5 5 0 0 0-5-5h-171.93" stroke="#000" fill="none"/><path d="M1205.78 1016.8l-.5-.02-.5.03v-.54h1z" stroke="#000" stroke-width=".05"/><path d="M1013.58 776.63l14.26-4.63v9.27z" stroke="#000"/><path d="M1205.28 1132v200.2a5 5 0 0 1-5 5h-358.9" stroke="#000" fill="none"/><path d="M1205.28 1131.5l.5-.03v.54h-1v-.53z" stroke="#000" stroke-width=".05"/><path d="M826.6 1337.2l14.28-4.65v9.27z" stroke="#000"/><path d="M1121.7 903.1a8 8 0 0 1 8-8h224a8 8 0 0 1 8 8v44a8 8 0 0 1-8 8h-224a8 8 0 0 1-8-8z" stroke="#000" stroke-opacity="0" fill="#fff" fill-opacity="0"/><g><use xlink:href="#J" transform="matrix(1,0,0,1,1126.7140953656863,900.1127910196266) translate(83.8469403060655 29.787246997790245)"/></g><path d="M1121.7 1222.34a8 8 0 0 1 8-8h224a8 8 0 0 1 8 8v44a8 8 0 0 1-8 8h-224a8 8 0 0 1-8-8z" stroke="#000" stroke-opacity="0" fill="#fff" fill-opacity="0"/><g><use xlink:href="#K" transform="matrix(1,0,0,1,1126.7140953656863,1219.3396205739623) translate(91.86029959149951 29.787246997790245)"/></g><path d="M764.8 776.63h69.78" stroke="#000" fill="none"/><path d="M764.8 777.13h-.54l.03-.5-.04-.5h.55z" stroke="#000" stroke-width=".05"/><path d="M849.34 776.63l-14.26 4.64V772z" stroke="#000"/><path d="M931.46 817.63v40.6" stroke="#000" fill="none"/><path d="M931.96 817.65h-1v-.5h1z" stroke="#000" stroke-width=".05"/><path d="M931.46 873l-4.63-14.27h9.27z" stroke="#000"/><path d="M931.46 1239.93v27.05a5 5 0 0 1-5 5H797.33a5 5 0 0 0-5 5v11.16" stroke="#000" fill="none"/><path d="M931.96 1239.95h-1v-.52h1z" stroke="#000" stroke-width=".05"/><path d="M792.33 1302.9l-4.63-14.26h9.27z" stroke="#000"/><path d="M759.17 1337.2H571.52a5 5 0 0 1-5-5v-104.62a5 5 0 0 0-5-5H389.75" stroke="#000" fill="none"/><path d="M759.67 1337.2l.04.5h-.55v-1h.56z" stroke="#000" stroke-width=".05"/><path d="M374.98 1222.6l14.27-4.65v9.27z" stroke="#000"/><path d="M292.87 1263.6v92.18" stroke="#000" fill="none"/><path d="M293.37 1263.6h-1v-.5h1z" stroke="#000" stroke-width=".05"/><path d="M292.87 1370.55l-4.64-14.27h9.27z" stroke="#000"/><path d="M1093.8 1054.26v12.97" stroke="#000" fill="none"/><path d="M1094.3 1054.27h-1v-.5h1z" stroke="#000" stroke-width=".05"/><path d="M1089.18 1076.83l2-14.87 8.36 4.02z" stroke="#000"/><defs><path d="M127-220V0H93v-220H8v-28h204v28h-85" id="L"/><path d="M114-163C36-179 61-72 57 0H25l-1-190h30c1 12-1 29 2 39 6-27 23-49 58-41v29" id="M"/><path d="M141-36C126-15 110 5 73 4 37 3 15-17 15-53c-1-64 63-63 125-63 3-35-9-54-41-54-24 1-41 7-42 31l-33-3c5-37 33-52 76-52 45 0 72 20 72 64v82c-1 20 7 32 28 27v20c-31 9-61-2-59-35zM48-53c0 20 12 33 32 33 41-3 63-29 60-74-43 2-92-5-92 41" id="N"/><path d="M108 0H70L1-190h34L89-25l56-165h34" id="O"/><path d="M100-194c63 0 86 42 84 106H49c0 40 14 67 53 68 26 1 43-12 49-29l28 8c-11 28-37 45-77 45C44 4 14-33 15-96c1-61 26-98 85-98zm52 81c6-60-76-77-97-28-3 7-6 17-6 28h103" id="P"/><path d="M24 0v-261h32V0H24" id="Q"/><g id="a"><use transform="matrix(0.05,0,0,0.05,0,0)" xlink:href="#L"/><use transform="matrix(0.05,0,0,0.05,10.3,0)" xlink:href="#M"/><use transform="matrix(0.05,0,0,0.05,16.25,0)" xlink:href="#N"/><use transform="matrix(0.05,0,0,0.05,26.25,0)" xlink:href="#O"/><use transform="matrix(0.05,0,0,0.05,35.25,0)" xlink:href="#P"/><use transform="matrix(0.05,0,0,0.05,45.25,0)" xlink:href="#Q"/><use transform="matrix(0.05,0,0,0.05,49.2,0)" xlink:href="#P"/><use transform="matrix(0.05,0,0,0.05,59.2,0)" xlink:href="#M"/></g><path fill="#666" d="M25-224v-37h50v37H25zM25 0v-190h50V0H25" id="R"/><path fill="#666" d="M67-125c0 54 23 88 75 88 28 0 53-7 68-21v-34h-60v-39h108v91C232-14 192 4 140 4 58 4 20-42 15-125 8-236 126-280 215-234c19 10 29 26 37 47l-47 15c-11-23-29-39-63-39-53 1-75 33-75 86" id="S"/><path fill="#666" d="M110-194c64 0 96 36 96 99 0 64-35 99-97 99-61 0-95-36-95-99 0-62 34-99 96-99zm-1 164c35 0 45-28 45-65 0-40-10-65-43-65-34 0-45 26-45 65 0 36 10 65 43 65" id="T"/><g id="b"><use transform="matrix(0.060025163186771674,0,0,0.060025163186771674,0,0)" xlink:href="#R"/><use transform="matrix(0.060025163186771674,0,0,0.060025163186771674,6.002516318677167,0)" xlink:href="#S"/><use transform="matrix(0.060025163186771674,0,0,0.060025163186771674,22.809562010973234,0)" xlink:href="#T"/></g><path d="M160-131c35 5 61 23 61 61C221 17 115-2 30 0v-248c76 3 177-17 177 60 0 33-19 50-47 57zm-97-11c50-1 110 9 110-42 0-47-63-36-110-37v79zm0 115c55-2 124 14 124-45 0-56-70-42-124-44v89" id="U"/><path d="M117-194c89-4 53 116 60 194h-32v-121c0-31-8-49-39-48C34-167 62-67 57 0H25l-1-190h30c1 10-1 24 2 32 11-22 29-35 61-36" id="V"/><path d="M143 0L79-87 56-68V0H24v-261h32v163l83-92h37l-77 82L181 0h-38" id="W"/><g id="c"><use transform="matrix(0.05,0,0,0.05,0,0)" xlink:href="#U"/><use transform="matrix(0.05,0,0,0.05,12,0)" xlink:href="#N"/><use transform="matrix(0.05,0,0,0.05,22,0)" xlink:href="#V"/><use transform="matrix(0.05,0,0,0.05,32,0)" xlink:href="#W"/></g><path fill="#666" d="M185-189c-5-48-123-54-124 2 14 75 158 14 163 119 3 78-121 87-175 55-17-10-28-26-33-46l33-7c5 56 141 63 141-1 0-78-155-14-162-118-5-82 145-84 179-34 5 7 8 16 11 25" id="X"/><path fill="#666" d="M24-231v-30h32v30H24zM24 0v-190h32V0H24" id="Y"/><path fill="#666" d="M177-190C167-65 218 103 67 71c-23-6-38-20-44-43l32-5c15 47 100 32 89-28v-30C133-14 115 1 83 1 29 1 15-40 15-95c0-56 16-97 71-98 29-1 48 16 59 35 1-10 0-23 2-32h30zM94-22c36 0 50-32 50-73 0-42-14-75-50-75-39 0-46 34-46 75s6 73 46 73" id="Z"/><path fill="#666" d="M117-194c89-4 53 116 60 194h-32v-121c0-31-8-49-39-48C34-167 62-67 57 0H25l-1-190h30c1 10-1 24 2 32 11-22 29-35 61-36" id="aa"/><path fill="#666" d="M84 4C-5 8 30-112 23-190h32v120c0 31 7 50 39 49 72-2 45-101 50-169h31l1 190h-30c-1-10 1-25-2-33-11 22-28 36-60 37" id="ab"/><path fill="#666" d="M115-194c55 1 70 41 70 98S169 2 115 4C84 4 66-9 55-30l1 105H24l-1-265h31l2 30c10-21 28-34 59-34zm-8 174c40 0 45-34 45-75s-6-73-45-74c-42 0-51 32-51 76 0 43 10 73 51 73" id="ac"/><g id="e"><use transform="matrix(0.060025163186771674,0,0,0.060025163186771674,0,0)" xlink:href="#X"/><use transform="matrix(0.060025163186771674,0,0,0.060025163186771674,14.406039164825202,0)" xlink:href="#Y"/><use transform="matrix(0.060025163186771674,0,0,0.060025163186771674,19.148027056580165,0)" xlink:href="#Z"/><use transform="matrix(0.060025163186771674,0,0,0.060025163186771674,31.153059693934498,0)" xlink:href="#aa"/><use transform="matrix(0.060025163186771674,0,0,0.060025163186771674,43.158092331288834,0)" xlink:href="#ab"/><use transform="matrix(0.060025163186771674,0,0,0.060025163186771674,55.16312496864317,0)" xlink:href="#ac"/></g><path fill="#666" d="M96-169c-40 0-48 33-48 73s9 75 48 75c24 0 41-14 43-38l32 2c-6 37-31 61-74 61-59 0-76-41-82-99-10-93 101-131 147-64 4 7 5 14 7 22l-32 3c-4-21-16-35-41-35" id="ad"/><path fill="#666" d="M114-163C36-179 61-72 57 0H25l-1-190h30c1 12-1 29 2 39 6-27 23-49 58-41v29" id="ae"/><path fill="#666" d="M100-194c63 0 86 42 84 106H49c0 40 14 67 53 68 26 1 43-12 49-29l28 8c-11 28-37 45-77 45C44 4 14-33 15-96c1-61 26-98 85-98zm52 81c6-60-76-77-97-28-3 7-6 17-6 28h103" id="af"/><g id="f"><use transform="matrix(0.060025163186771674,0,0,0.060025163186771674,0,0)" xlink:href="#X"/><use transform="matrix(0.060025163186771674,0,0,0.060025163186771674,14.406039164825202,0)" xlink:href="#ad"/><use transform="matrix(0.060025163186771674,0,0,0.060025163186771674,25.210568538444104,0)" xlink:href="#ae"/><use transform="matrix(0.060025163186771674,0,0,0.060025163186771674,32.353562957669936,0)" xlink:href="#af"/><use transform="matrix(0.060025163186771674,0,0,0.060025163186771674,44.35859559502427,0)" xlink:href="#af"/><use transform="matrix(0.060025163186771674,0,0,0.060025163186771674,56.3636282323786,0)" xlink:href="#aa"/></g><path fill="#666" d="M30 0v-248h187v28H63v79h144v27H63v87h162V0H30" id="ag"/><path fill="#666" d="M59-47c-2 24 18 29 38 22v24C64 9 27 4 27-40v-127H5v-23h24l9-43h21v43h35v23H59v120" id="ah"/><g id="g"><use transform="matrix(0.060025163186771674,0,0,0.060025163186771674,0,0)" xlink:href="#ag"/><use transform="matrix(0.060025163186771674,0,0,0.060025163186771674,14.406039164825202,0)" xlink:href="#aa"/><use transform="matrix(0.060025163186771674,0,0,0.060025163186771674,26.411071802179535,0)" xlink:href="#ah"/><use transform="matrix(0.060025163186771674,0,0,0.060025163186771674,32.4135881208567,0)" xlink:href="#af"/><use transform="matrix(0.060025163186771674,0,0,0.060025163186771674,44.418620758211034,0)" xlink:href="#ae"/></g><path fill="#666" d="M190 0L58-211 59 0H30v-248h39L202-35l-2-213h31V0h-41" id="ai"/><path fill="#666" d="M141-36C126-15 110 5 73 4 37 3 15-17 15-53c-1-64 63-63 125-63 3-35-9-54-41-54-24 1-41 7-42 31l-33-3c5-37 33-52 76-52 45 0 72 20 72 64v82c-1 20 7 32 28 27v20c-31 9-61-2-59-35zM48-53c0 20 12 33 32 33 41-3 63-29 60-74-43 2-92-5-92 41" id="aj"/><path fill="#666" d="M210-169c-67 3-38 105-44 169h-31v-121c0-29-5-50-35-48C34-165 62-65 56 0H25l-1-190h30c1 10-1 24 2 32 10-44 99-50 107 0 11-21 27-35 58-36 85-2 47 119 55 194h-31v-121c0-29-5-49-35-48" id="ak"/><path fill="#666" d="M68-38c1 34 0 65-14 84H32c9-13 17-26 17-46H33v-38h35" id="al"/><path fill="#666" d="M205 0l-28-72H64L36 0H1l101-248h38L239 0h-34zm-38-99l-47-123c-12 45-31 82-46 123h93" id="am"/><path fill="#666" d="M85-194c31 0 48 13 60 33l-1-100h32l1 261h-30c-2-10 0-23-3-31C134-8 116 4 85 4 32 4 16-35 15-94c0-66 23-100 70-100zm9 24c-40 0-46 34-46 75 0 40 6 74 45 74 42 0 51-32 51-76 0-42-9-74-50-73" id="an"/><path fill="#666" d="M135-143c-3-34-86-38-87 0 15 53 115 12 119 90S17 21 10-45l28-5c4 36 97 45 98 0-10-56-113-15-118-90-4-57 82-63 122-42 12 7 21 19 24 35" id="ao"/><g id="h"><use transform="matrix(0.060025163186771674,0,0,0.060025163186771674,0,0)" xlink:href="#ai"/><use transform="matrix(0.060025163186771674,0,0,0.060025163186771674,15.546517265373863,0)" xlink:href="#aj"/><use transform="matrix(0.060025163186771674,0,0,0.060025163186771674,27.551549902728198,0)" xlink:href="#ak"/><use transform="matrix(0.060025163186771674,0,0,0.060025163186771674,45.49907369557293,0)" xlink:href="#af"/><use transform="matrix(0.060025163186771674,0,0,0.060025163186771674,57.504106332927265,0)" xlink:href="#al"/><use transform="matrix(0.060025163186771674,0,0,0.060025163186771674,63.50662265160443,0)" xlink:href="#am"/><use transform="matrix(0.060025163186771674,0,0,0.060025163186771674,77.91266181642963,0)" xlink:href="#an"/><use transform="matrix(0.060025163186771674,0,0,0.060025163186771674,89.91769445378397,0)" xlink:href="#an"/><use transform="matrix(0.060025163186771674,0,0,0.060025163186771674,101.9227270911383,0)" xlink:href="#ae"/><use transform="matrix(0.060025163186771674,0,0,0.060025163186771674,109.06572151036413,0)" xlink:href="#af"/><use transform="matrix(0.060025163186771674,0,0,0.060025163186771674,121.07075414771846,0)" xlink:href="#ao"/><use transform="matrix(0.060025163186771674,0,0,0.060025163186771674,131.87528352133737,0)" xlink:href="#ao"/><use transform="matrix(0.060025163186771674,0,0,0.060025163186771674,142.67981289495626,0)" xlink:href="#al"/></g><path fill="#666" d="M24 0v-261h32V0H24" id="ap"/><g id="i"><use transform="matrix(0.060025163186771674,0,0,0.060025163186771674,0,0)" xlink:href="#ag"/><use transform="matrix(0.060025163186771674,0,0,0.060025163186771674,14.406039164825202,0)" xlink:href="#ak"/><use transform="matrix(0.060025163186771674,0,0,0.060025163186771674,32.353562957669936,0)" xlink:href="#aj"/><use transform="matrix(0.060025163186771674,0,0,0.060025163186771674,44.35859559502427,0)" xlink:href="#Y"/><use transform="matrix(0.060025163186771674,0,0,0.060025163186771674,49.10058348677923,0)" xlink:href="#ap"/></g><path fill="#666" d="M33 0v-248h34V0H33" id="aq"/><g id="j"><use transform="matrix(0.060025163186771674,0,0,0.060025163186771674,0,0)" xlink:href="#aq"/><use transform="matrix(0.060025163186771674,0,0,0.060025163186771674,6.002516318677167,0)" xlink:href="#an"/><use transform="matrix(0.060025163186771674,0,0,0.060025163186771674,18.007548956031503,0)" xlink:href="#al"/></g><path fill="#666" d="M30-248c87 1 191-15 191 75 0 78-77 80-158 76V0H30v-248zm33 125c57 0 124 11 124-50 0-59-68-47-124-48v98" id="ar"/><path fill="#666" d="M106-169C34-169 62-67 57 0H25v-261h32l-1 103c12-21 28-36 61-36 89 0 53 116 60 194h-32v-121c2-32-8-49-39-48" id="as"/><path fill="#666" d="M100-194c62-1 85 37 85 99 1 63-27 99-86 99S16-35 15-95c0-66 28-99 85-99zM99-20c44 1 53-31 53-75 0-43-8-75-51-75s-53 32-53 75 10 74 51 75" id="at"/><g id="k"><use transform="matrix(0.060025163186771674,0,0,0.060025163186771674,0,0)" xlink:href="#ar"/><use transform="matrix(0.060025163186771674,0,0,0.060025163186771674,14.406039164825202,0)" xlink:href="#as"/><use transform="matrix(0.060025163186771674,0,0,0.060025163186771674,26.411071802179535,0)" xlink:href="#at"/><use transform="matrix(0.060025163186771674,0,0,0.060025163186771674,38.41610443953387,0)" xlink:href="#ah"/><use transform="matrix(0.060025163186771674,0,0,0.060025163186771674,44.418620758211034,0)" xlink:href="#at"/></g><path fill="#666" d="M232-93c-1 65-40 97-104 97C67 4 28-28 28-90v-158h33c8 89-33 224 67 224 102 0 64-133 71-224h33v155" id="au"/><g id="l"><use transform="matrix(0.060025163186771674,0,0,0.060025163186771674,0,0)" xlink:href="#aq"/><use transform="matrix(0.060025163186771674,0,0,0.060025163186771674,6.002516318677167,0)" xlink:href="#an"/><use transform="matrix(0.060025163186771674,0,0,0.060025163186771674,18.007548956031503,0)" xlink:href="#al"/><use transform="matrix(0.060025163186771674,0,0,0.060025163186771674,24.01006527470867,0)" xlink:href="#au"/><use transform="matrix(0.060025163186771674,0,0,0.060025163186771674,39.55658254008253,0)" xlink:href="#ao"/><use transform="matrix(0.060025163186771674,0,0,0.060025163186771674,50.361111913701436,0)" xlink:href="#af"/><use transform="matrix(0.060025163186771674,0,0,0.060025163186771674,62.36614455105577,0)" xlink:href="#ae"/></g><path fill="#666" d="M127-220V0H93v-220H8v-28h204v28h-85" id="av"/><path fill="#666" d="M179-190L93 31C79 59 56 82 12 73V49c39 6 53-20 64-50L1-190h34L92-34l54-156h33" id="aw"/><path fill="#666" d="M87 75C49 33 22-17 22-94c0-76 28-126 65-167h31c-38 41-64 92-64 168S80 34 118 75H87" id="ax"/><path fill="#666" d="M233-177c-1 41-23 64-60 70L243 0h-38l-65-103H63V0H30v-248c88 3 205-21 203 71zM63-129c60-2 137 13 137-47 0-61-80-42-137-45v92" id="ay"/><g id="m"><use transform="matrix(0.060025163186771674,0,0,0.060025163186771674,0,0)" xlink:href="#av"/><use transform="matrix(0.060025163186771674,0,0,0.060025163186771674,11.945007474167564,0)" xlink:href="#aw"/><use transform="matrix(0.060025163186771674,0,0,0.060025163186771674,22.749536847786466,0)" xlink:href="#ac"/><use transform="matrix(0.060025163186771674,0,0,0.060025163186771674,34.7545694851408,0)" xlink:href="#af"/><use transform="matrix(0.060025163186771674,0,0,0.060025163186771674,46.75960212249513,0)" xlink:href="#ax"/><use transform="matrix(0.060025163186771674,0,0,0.060025163186771674,53.90259654172096,0)" xlink:href="#ay"/><use transform="matrix(0.060025163186771674,0,0,0.060025163186771674,69.44911380709482,0)" xlink:href="#af"/><use transform="matrix(0.060025163186771674,0,0,0.060025163186771674,81.45414644444915,0)" xlink:href="#Z"/><use transform="matrix(0.060025163186771674,0,0,0.060025163186771674,93.45917908180348,0)" xlink:href="#ab"/><use transform="matrix(0.060025163186771674,0,0,0.060025163186771674,105.46421171915782,0)" xlink:href="#ap"/><use transform="matrix(0.060025163186771674,0,0,0.060025163186771674,110.20619961091278,0)" xlink:href="#aj"/><use transform="matrix(0.060025163186771674,0,0,0.060025163186771674,122.21123224826711,0)" xlink:href="#ae"/></g><g id="n"><use transform="matrix(0.060025163186771674,0,0,0.060025163186771674,0,0)" xlink:href="#at"/><use transform="matrix(0.060025163186771674,0,0,0.060025163186771674,12.005032637354335,0)" xlink:href="#ae"/></g><path fill="#666" d="M0 4l72-265h28L28 4H0" id="az"/><path fill="#666" d="M33-261c38 41 65 92 65 168S71 34 33 75H2C39 34 66-17 66-93S39-220 2-261h31" id="aA"/><g id="o"><use transform="matrix(0.060025163186771674,0,0,0.060025163186771674,0,0)" xlink:href="#X"/><use transform="matrix(0.060025163186771674,0,0,0.060025163186771674,14.406039164825202,0)" xlink:href="#ah"/><use transform="matrix(0.060025163186771674,0,0,0.060025163186771674,20.40855548350237,0)" xlink:href="#ab"/><use transform="matrix(0.060025163186771674,0,0,0.060025163186771674,32.4135881208567,0)" xlink:href="#an"/><use transform="matrix(0.060025163186771674,0,0,0.060025163186771674,44.418620758211034,0)" xlink:href="#af"/><use transform="matrix(0.060025163186771674,0,0,0.060025163186771674,56.42365339556537,0)" xlink:href="#aa"/><use transform="matrix(0.060025163186771674,0,0,0.060025163186771674,68.4286860329197,0)" xlink:href="#ah"/><use transform="matrix(0.060025163186771674,0,0,0.060025163186771674,74.43120235159687,0)" xlink:href="#az"/><use transform="matrix(0.060025163186771674,0,0,0.060025163186771674,80.43371867027403,0)" xlink:href="#X"/><use transform="matrix(0.060025163186771674,0,0,0.060025163186771674,94.83975783509923,0)" xlink:href="#af"/><use transform="matrix(0.060025163186771674,0,0,0.060025163186771674,106.84479047245357,0)" xlink:href="#aa"/><use transform="matrix(0.060025163186771674,0,0,0.060025163186771674,118.8498231098079,0)" xlink:href="#Y"/><use transform="matrix(0.060025163186771674,0,0,0.060025163186771674,123.59181100156285,0)" xlink:href="#at"/><use transform="matrix(0.060025163186771674,0,0,0.060025163186771674,135.5968436389172,0)" xlink:href="#ae"/><use transform="matrix(0.060025163186771674,0,0,0.060025163186771674,142.73983805814302,0)" xlink:href="#aA"/></g><g id="p"><use transform="matrix(0.060025163186771674,0,0,0.060025163186771674,0,0)" xlink:href="#aj"/><use transform="matrix(0.060025163186771674,0,0,0.060025163186771674,12.005032637354335,0)" xlink:href="#aa"/><use transform="matrix(0.060025163186771674,0,0,0.060025163186771674,24.01006527470867,0)" xlink:href="#an"/></g><path fill="#666" d="M206 0h-36l-40-164L89 0H53L-1-190h32L70-26l43-164h34l41 164 42-164h31" id="aB"/><g id="q"><use transform="matrix(0.060025163186771674,0,0,0.060025163186771674,0,0)" xlink:href="#ar"/><use transform="matrix(0.060025163186771674,0,0,0.060025163186771674,14.406039164825202,0)" xlink:href="#aj"/><use transform="matrix(0.060025163186771674,0,0,0.060025163186771674,26.411071802179535,0)" xlink:href="#ao"/><use transform="matrix(0.060025163186771674,0,0,0.060025163186771674,37.21560117579844,0)" xlink:href="#ao"/><use transform="matrix(0.060025163186771674,0,0,0.060025163186771674,48.020130549417345,0)" xlink:href="#aB"/><use transform="matrix(0.060025163186771674,0,0,0.060025163186771674,63.56664781479122,0)" xlink:href="#at"/><use transform="matrix(0.060025163186771674,0,0,0.060025163186771674,75.57168045214554,0)" xlink:href="#ae"/><use transform="matrix(0.060025163186771674,0,0,0.060025163186771674,82.71467487137137,0)" xlink:href="#an"/></g><path fill="#666" d="M137 0h-34L2-248h35l83 218 83-218h36" id="aC"/><g id="r"><use transform="matrix(0.060025163186771674,0,0,0.060025163186771674,0,0)" xlink:href="#aC"/><use transform="matrix(0.060025163186771674,0,0,0.060025163186771674,12.785359758782366,0)" xlink:href="#aj"/><use transform="matrix(0.060025163186771674,0,0,0.060025163186771674,24.790392396136703,0)" xlink:href="#ap"/><use transform="matrix(0.060025163186771674,0,0,0.060025163186771674,29.532380287891666,0)" xlink:href="#Y"/><use transform="matrix(0.060025163186771674,0,0,0.060025163186771674,34.27436817964663,0)" xlink:href="#an"/><use transform="matrix(0.060025163186771674,0,0,0.060025163186771674,46.27940081700096,0)" xlink:href="#aj"/><use transform="matrix(0.060025163186771674,0,0,0.060025163186771674,58.284433454355295,0)" xlink:href="#ah"/><use transform="matrix(0.060025163186771674,0,0,0.060025163186771674,64.28694977303246,0)" xlink:href="#af"/></g><path fill="#666" d="M101-234c-31-9-42 10-38 44h38v23H63V0H32v-167H5v-23h27c-7-52 17-82 69-68v24" id="aD"/><g id="s"><use transform="matrix(0.060025163186771674,0,0,0.060025163186771674,0,0)" xlink:href="#aq"/><use transform="matrix(0.060025163186771674,0,0,0.060025163186771674,6.002516318677167,0)" xlink:href="#aa"/><use transform="matrix(0.060025163186771674,0,0,0.060025163186771674,18.007548956031503,0)" xlink:href="#aD"/><use transform="matrix(0.060025163186771674,0,0,0.060025163186771674,24.01006527470867,0)" xlink:href="#at"/><use transform="matrix(0.060025163186771674,0,0,0.060025163186771674,36.015097912063005,0)" xlink:href="#ae"/><use transform="matrix(0.060025163186771674,0,0,0.060025163186771674,43.158092331288834,0)" xlink:href="#ak"/><use transform="matrix(0.060025163186771674,0,0,0.060025163186771674,61.10561612413356,0)" xlink:href="#aj"/><use transform="matrix(0.060025163186771674,0,0,0.060025163186771674,73.1106487614879,0)" xlink:href="#ah"/><use transform="matrix(0.060025163186771674,0,0,0.060025163186771674,79.11316508016506,0)" xlink:href="#Y"/><use transform="matrix(0.060025163186771674,0,0,0.060025163186771674,83.85515297192002,0)" xlink:href="#at"/><use transform="matrix(0.060025163186771674,0,0,0.060025163186771674,95.86018560927435,0)" xlink:href="#aa"/></g><g id="t"><use transform="matrix(0.060025163186771674,0,0,0.060025163186771674,0,0)" xlink:href="#ai"/><use transform="matrix(0.060025163186771674,0,0,0.060025163186771674,15.546517265373863,0)" xlink:href="#at"/></g><path fill="#666" d="M137-103V0h-34v-103L8-248h37l75 118 75-118h37" id="aE"/><g id="u"><use transform="matrix(0.060025163186771674,0,0,0.060025163186771674,0,0)" xlink:href="#aE"/><use transform="matrix(0.060025163186771674,0,0,0.060025163186771674,12.425208779661737,0)" xlink:href="#af"/><use transform="matrix(0.060025163186771674,0,0,0.060025163186771674,24.43024141701607,0)" xlink:href="#ao"/></g><g id="v"><use transform="matrix(0.060025163186771674,0,0,0.060025163186771674,0,0)" xlink:href="#X"/><use transform="matrix(0.060025163186771674,0,0,0.060025163186771674,14.406039164825202,0)" xlink:href="#af"/><use transform="matrix(0.060025163186771674,0,0,0.060025163186771674,26.411071802179535,0)" xlink:href="#ap"/><use transform="matrix(0.060025163186771674,0,0,0.060025163186771674,31.153059693934498,0)" xlink:href="#af"/><use transform="matrix(0.060025163186771674,0,0,0.060025163186771674,43.158092331288834,0)" xlink:href="#ad"/><use transform="matrix(0.060025163186771674,0,0,0.060025163186771674,53.96262170490773,0)" xlink:href="#ah"/></g><path fill="#666" d="M30 0v-248h33v221h125V0H30" id="aF"/><g id="w"><use transform="matrix(0.060025163186771674,0,0,0.060025163186771674,0,0)" xlink:href="#aF"/><use transform="matrix(0.060025163186771674,0,0,0.060025163186771674,12.005032637354335,0)" xlink:href="#aj"/><use transform="matrix(0.060025163186771674,0,0,0.060025163186771674,24.01006527470867,0)" xlink:href="#aa"/><use transform="matrix(0.060025163186771674,0,0,0.060025163186771674,36.015097912063005,0)" xlink:href="#Z"/><use transform="matrix(0.060025163186771674,0,0,0.060025163186771674,48.02013054941734,0)" xlink:href="#ab"/><use transform="matrix(0.060025163186771674,0,0,0.060025163186771674,60.02516318677167,0)" xlink:href="#aj"/><use transform="matrix(0.060025163186771674,0,0,0.060025163186771674,72.03019582412601,0)" xlink:href="#Z"/><use transform="matrix(0.060025163186771674,0,0,0.060025163186771674,84.03522846148034,0)" xlink:href="#af"/></g><g id="x"><use transform="matrix(0.060025163186771674,0,0,0.060025163186771674,0,0)" xlink:href="#ar"/><use transform="matrix(0.060025163186771674,0,0,0.060025163186771674,14.406039164825202,0)" xlink:href="#ab"/><use transform="matrix(0.060025163186771674,0,0,0.060025163186771674,26.411071802179535,0)" xlink:href="#ae"/><use transform="matrix(0.060025163186771674,0,0,0.060025163186771674,33.554066221405364,0)" xlink:href="#ad"/><use transform="matrix(0.060025163186771674,0,0,0.060025163186771674,44.35859559502427,0)" xlink:href="#as"/><use transform="matrix(0.060025163186771674,0,0,0.060025163186771674,56.3636282323786,0)" xlink:href="#aj"/><use transform="matrix(0.060025163186771674,0,0,0.060025163186771674,68.36866086973293,0)" xlink:href="#ao"/><use transform="matrix(0.060025163186771674,0,0,0.060025163186771674,79.17319024335184,0)" xlink:href="#af"/></g><path fill="#666" d="M143 4C61 4 22-44 18-125c-5-107 100-154 193-111 17 8 29 25 37 43l-32 9c-13-25-37-40-76-40-61 0-88 39-88 99 0 61 29 100 91 101 35 0 62-11 79-27v-45h-74v-28h105v86C228-13 192 4 143 4" id="aG"/><g id="y"><use transform="matrix(0.060025163186771674,0,0,0.060025163186771674,0,0)" xlink:href="#Y"/><use transform="matrix(0.060025163186771674,0,0,0.060025163186771674,4.741987891754962,0)" xlink:href="#aG"/><use transform="matrix(0.060025163186771674,0,0,0.060025163186771674,21.54903358405103,0)" xlink:href="#at"/></g><path fill="#666" d="M212-179c-10-28-35-45-73-45-59 0-87 40-87 99 0 60 29 101 89 101 43 0 62-24 78-52l27 14C228-24 195 4 139 4 59 4 22-46 18-125c-6-104 99-153 187-111 19 9 31 26 39 46" id="aH"/><g id="z"><use transform="matrix(0.060025163186771674,0,0,0.060025163186771674,0,0)" xlink:href="#aH"/><use transform="matrix(0.060025163186771674,0,0,0.060025163186771674,15.546517265373863,0)" xlink:href="#aj"/><use transform="matrix(0.060025163186771674,0,0,0.060025163186771674,27.551549902728198,0)" xlink:href="#ae"/><use transform="matrix(0.060025163186771674,0,0,0.060025163186771674,34.69454432195403,0)" xlink:href="#an"/></g><g id="A"><use transform="matrix(0.060025163186771674,0,0,0.060025163186771674,0,0)" xlink:href="#ar"/><use transform="matrix(0.060025163186771674,0,0,0.060025163186771674,14.406039164825202,0)" xlink:href="#ae"/><use transform="matrix(0.060025163186771674,0,0,0.060025163186771674,21.54903358405103,0)" xlink:href="#at"/><use transform="matrix(0.060025163186771674,0,0,0.060025163186771674,33.554066221405364,0)" xlink:href="#ad"/><use transform="matrix(0.060025163186771674,0,0,0.060025163186771674,44.35859559502427,0)" xlink:href="#af"/><use transform="matrix(0.060025163186771674,0,0,0.060025163186771674,56.3636282323786,0)" xlink:href="#ao"/><use transform="matrix(0.060025163186771674,0,0,0.060025163186771674,67.16815760599751,0)" xlink:href="#ao"/></g><g id="B"><use transform="matrix(0.060025163186771674,0,0,0.060025163186771674,0,0)" xlink:href="#ar"/><use transform="matrix(0.060025163186771674,0,0,0.060025163186771674,14.406039164825202,0)" xlink:href="#aj"/><use transform="matrix(0.060025163186771674,0,0,0.060025163186771674,26.411071802179535,0)" xlink:href="#aw"/><use transform="matrix(0.060025163186771674,0,0,0.060025163186771674,37.21560117579844,0)" xlink:href="#ak"/><use transform="matrix(0.060025163186771674,0,0,0.060025163186771674,55.163124968643174,0)" xlink:href="#af"/><use transform="matrix(0.060025163186771674,0,0,0.060025163186771674,67.16815760599751,0)" xlink:href="#aa"/><use transform="matrix(0.060025163186771674,0,0,0.060025163186771674,79.17319024335184,0)" xlink:href="#ah"/></g><g id="C"><use transform="matrix(0.060025163186771674,0,0,0.060025163186771674,0,0)" xlink:href="#ay"/><use transform="matrix(0.060025163186771674,0,0,0.060025163186771674,15.546517265373863,0)" xlink:href="#af"/><use transform="matrix(0.060025163186771674,0,0,0.060025163186771674,27.551549902728198,0)" xlink:href="#ah"/><use transform="matrix(0.060025163186771674,0,0,0.060025163186771674,33.554066221405364,0)" xlink:href="#ab"/><use transform="matrix(0.060025163186771674,0,0,0.060025163186771674,45.5590988587597,0)" xlink:href="#ae"/><use transform="matrix(0.060025163186771674,0,0,0.060025163186771674,52.702093277985526,0)" xlink:href="#aa"/></g><g id="D"><use transform="matrix(0.060025163186771674,0,0,0.060025163186771674,0,0)" xlink:href="#aH"/><use transform="matrix(0.060025163186771674,0,0,0.060025163186771674,15.546517265373863,0)" xlink:href="#as"/><use transform="matrix(0.060025163186771674,0,0,0.060025163186771674,27.551549902728198,0)" xlink:href="#aj"/><use transform="matrix(0.060025163186771674,0,0,0.060025163186771674,39.55658254008253,0)" xlink:href="#aa"/><use transform="matrix(0.060025163186771674,0,0,0.060025163186771674,51.56161517743686,0)" xlink:href="#Z"/><use transform="matrix(0.060025163186771674,0,0,0.060025163186771674,63.5666478147912,0)" xlink:href="#af"/></g><g id="E"><use transform="matrix(0.060025163186771674,0,0,0.060025163186771674,0,0)" xlink:href="#ar"/><use transform="matrix(0.060025163186771674,0,0,0.060025163186771674,14.406039164825202,0)" xlink:href="#aj"/><use transform="matrix(0.060025163186771674,0,0,0.060025163186771674,26.411071802179535,0)" xlink:href="#Y"/><use transform="matrix(0.060025163186771674,0,0,0.060025163186771674,31.153059693934498,0)" xlink:href="#an"/></g><path fill="#666" d="M266 0h-40l-56-210L115 0H75L2-248h35L96-30l15-64 43-154h32l59 218 59-218h35" id="aI"/><g id="F"><use transform="matrix(0.060025163186771674,0,0,0.060025163186771674,0,0)" xlink:href="#aI"/><use transform="matrix(0.060025163186771674,0,0,0.060025163186771674,20.348530320315596,0)" xlink:href="#Y"/><use transform="matrix(0.060025163186771674,0,0,0.060025163186771674,25.09051821207056,0)" xlink:href="#ah"/><use transform="matrix(0.060025163186771674,0,0,0.060025163186771674,31.093034530747726,0)" xlink:href="#as"/></g><g id="G"><use transform="matrix(0.060025163186771674,0,0,0.060025163186771674,0,0)" xlink:href="#aH"/><use transform="matrix(0.060025163186771674,0,0,0.060025163186771674,15.546517265373863,0)" xlink:href="#aj"/><use transform="matrix(0.060025163186771674,0,0,0.060025163186771674,27.551549902728198,0)" xlink:href="#ao"/><use transform="matrix(0.060025163186771674,0,0,0.060025163186771674,38.3560792763471,0)" xlink:href="#as"/></g><g id="H"><use transform="matrix(0.060025163186771674,0,0,0.060025163186771674,0,0)" xlink:href="#aH"/><use transform="matrix(0.060025163186771674,0,0,0.060025163186771674,15.546517265373863,0)" xlink:href="#at"/><use transform="matrix(0.060025163186771674,0,0,0.060025163186771674,27.551549902728198,0)" xlink:href="#ap"/><use transform="matrix(0.060025163186771674,0,0,0.060025163186771674,32.29353779448316,0)" xlink:href="#ap"/><use transform="matrix(0.060025163186771674,0,0,0.060025163186771674,37.03552568623812,0)" xlink:href="#af"/><use transform="matrix(0.060025163186771674,0,0,0.060025163186771674,49.04055832359245,0)" xlink:href="#ad"/><use transform="matrix(0.060025163186771674,0,0,0.060025163186771674,59.845087697211355,0)" xlink:href="#ah"/></g><path fill="#666" d="M9 0v-24l116-142H16v-24h144v24L44-24h123V0H9" id="aJ"/><g id="I"><use transform="matrix(0.060025163186771674,0,0,0.060025163186771674,0,0)" xlink:href="#am"/><use transform="matrix(0.060025163186771674,0,0,0.060025163186771674,14.406039164825202,0)" xlink:href="#ab"/><use transform="matrix(0.060025163186771674,0,0,0.060025163186771674,26.411071802179535,0)" xlink:href="#ah"/><use transform="matrix(0.060025163186771674,0,0,0.060025163186771674,32.4135881208567,0)" xlink:href="#as"/><use transform="matrix(0.060025163186771674,0,0,0.060025163186771674,44.418620758211034,0)" xlink:href="#at"/><use transform="matrix(0.060025163186771674,0,0,0.060025163186771674,56.42365339556537,0)" xlink:href="#ae"/><use transform="matrix(0.060025163186771674,0,0,0.060025163186771674,63.5666478147912,0)" xlink:href="#Y"/><use transform="matrix(0.060025163186771674,0,0,0.060025163186771674,68.30863570654616,0)" xlink:href="#aJ"/><use transform="matrix(0.060025163186771674,0,0,0.060025163186771674,79.11316508016506,0)" xlink:href="#af"/></g><path fill="#666" d="M108 0H70L1-190h34L89-25l56-165h34" id="aK"/><g id="J"><use transform="matrix(0.060025163186771674,0,0,0.060025163186771674,0,0)" xlink:href="#aq"/><use transform="matrix(0.060025163186771674,0,0,0.060025163186771674,6.002516318677167,0)" xlink:href="#aa"/><use transform="matrix(0.060025163186771674,0,0,0.060025163186771674,18.007548956031503,0)" xlink:href="#aK"/><use transform="matrix(0.060025163186771674,0,0,0.060025163186771674,28.812078329650404,0)" xlink:href="#aj"/><use transform="matrix(0.060025163186771674,0,0,0.060025163186771674,40.81711096700474,0)" xlink:href="#ap"/><use transform="matrix(0.060025163186771674,0,0,0.060025163186771674,45.5590988587597,0)" xlink:href="#Y"/><use transform="matrix(0.060025163186771674,0,0,0.060025163186771674,50.301086750514656,0)" xlink:href="#an"/></g><g id="K"><use transform="matrix(0.060025163186771674,0,0,0.060025163186771674,0,0)" xlink:href="#aC"/><use transform="matrix(0.060025163186771674,0,0,0.060025163186771674,12.785359758782366,0)" xlink:href="#aj"/><use transform="matrix(0.060025163186771674,0,0,0.060025163186771674,24.790392396136703,0)" xlink:href="#ap"/><use transform="matrix(0.060025163186771674,0,0,0.060025163186771674,29.532380287891666,0)" xlink:href="#Y"/><use transform="matrix(0.060025163186771674,0,0,0.060025163186771674,34.27436817964663,0)" xlink:href="#an"/></g></defs></g></svg>