<svg xmlns="http://www.w3.org/2000/svg" xmlns:xlink="http://www.w3.org/1999/xlink" xmlns:lucid="lucid" width="1242" height="1080"><g transform="translate(-40 -10)" lucid:page-tab-id="0_0"><path d="M0 0h1608.32v2081.35H0z" fill-opacity="0"/><path d="M141.9 78.95a8 8 0 0 1 8-8h132.65a8 8 0 0 1 8 8v4.93a17.07 17.07 0 0 1-5 12.08 17.07 17.07 0 0 1-12.08 5H149.9a8 8 0 0 1-8-8z" fill="#fff"/><path d="M290.55 70.95v20l-10 10H141.9" stroke="#333" fill="none"/><path d="M141.9 78.95a8 8 0 0 1 8-8h408.43a8 8 0 0 1 8 8v930.07a8 8 0 0 1-8 8H149.9a8 8 0 0 1-8-8z" stroke="#333" fill="none"/><use xlink:href="#a" transform="matrix(1,0,0,1,149.91018232750702,70.95509116375354) translate(0 18.6)"/><use xlink:href="#b" transform="matrix(1,0,0,1,149.91018232750702,70.95509116375354) translate(91.85000000000001 18.6)"/><path d="M566.33 81a8 8 0 0 1 8-8h84a8 8 0 0 1 8 8v4.94a17.07 17.07 0 0 1-5 12.07 17.07 17.07 0 0 1-12.07 5h-74.93a8 8 0 0 1-8-8z" fill="#fff"/><path d="M666.33 73v20l-10 10h-90" stroke="#333" fill="none"/><path d="M566.33 81a8 8 0 0 1 8-8h583.17a8 8 0 0 1 8 8v928.02a8 8 0 0 1-8 8H574.33a8 8 0 0 1-8-8z" stroke="#333" fill="none"/><use xlink:href="#c" transform="matrix(1,0,0,1,574.3267461403289,73.00609589240526) translate(23.022463625561883 19.321811749447562)"/><path d="M358.9 162.7c0 12.3-9.46 22.3-21.12 22.3s-21.1-10-21.1-22.3c0-12.32 9.44-22.3 21.1-22.3 11.66 0 21.1 9.98 21.1 22.3z" stroke="#333"/><path d="M358.9 950.27c0 12.3-9.46 22.3-21.12 22.3s-21.1-10-21.1-22.3c0-12.32 9.44-22.3 21.1-22.3 11.66 0 21.1 9.98 21.1 22.3z" stroke="#333" fill="#fff"/><path d="M350.45 950.27c0 7.38-5.67 13.37-12.67 13.37s-12.67-6-12.67-13.37c0-7.4 5.7-13.38 12.68-13.38 7 0 12.67 5.98 12.67 13.37z" stroke="#333"/><path d="M271.17 272.23c-9.85 0-17.83 8-17.83 17.84v53.5c0 9.86 7.98 17.84 17.83 17.84H404.4c9.84 0 17.83-7.97 17.83-17.82v-53.5c0-9.86-8-17.85-17.84-17.85z" stroke="#333" fill="#fff"/><use xlink:href="#d" transform="matrix(1,0,0,1,261.3366105641593,280.2301964148742) translate(46.51743098820755 28.35637650110488)"/><use xlink:href="#e" transform="matrix(1,0,0,1,261.3366105641593,280.2301964148742) translate(28.47986945058266 54.28724699779025)"/><path d="M271.17 448.65c-9.85 0-17.83 8-17.83 17.84V520c0 9.85 7.98 17.84 17.83 17.84H404.4c9.84 0 17.83-8 17.83-17.84v-53.5c0-9.86-8-17.85-17.84-17.85z" stroke="#333" fill="#fff"/><use xlink:href="#f" transform="matrix(1,0,0,1,261.3366105641593,456.6549755930942) translate(9.001703996475257 28.35637650110488)"/><use xlink:href="#g" transform="matrix(1,0,0,1,261.3366105641593,456.6549755930942) translate(54.560802855234954 28.35637650110488)"/><use xlink:href="#h" transform="matrix(1,0,0,1,261.3366105641593,456.6549755930942) translate(42.31566956513353 54.28724699779025)"/><path d="M337.78 362.4v69.37" stroke="#000" fill="none"/><path d="M338.28 362.43h-1v-.52h1z" stroke="#000" stroke-width=".05"/><path d="M337.78 446.54l-4.63-14.27h9.27z" stroke="#000"/><path d="M337.78 186v69.35" stroke="#000" fill="none"/><path d="M337.8 185.5l.48-.06v.56h-1v-.57z" stroke="#000" stroke-width=".05"/><path d="M337.78 270.1l-4.63-14.25h9.27z" stroke="#000"/><path d="M271.17 587.92c-9.85 0-17.83 7.98-17.83 17.83v53.5c0 9.86 7.98 17.85 17.83 17.85H404.4c9.84 0 17.83-8 17.83-17.84v-53.5c0-9.86-8-17.84-17.84-17.84z" stroke="#333" fill="#fff"/><use xlink:href="#i" transform="matrix(1,0,0,1,261.3366105641593,595.9155914768032) translate(4.589854502247533 41.32181174944756)"/><use xlink:href="#j" transform="matrix(1,0,0,1,261.3366105641593,595.9155914768032) translate(62.15398599836156 41.32181174944756)"/><use xlink:href="#k" transform="matrix(1,0,0,1,261.3366105641593,595.9155914768032) translate(101.7105685384441 41.32181174944756)"/><path d="M337.78 538.84v32.2" stroke="#000" fill="none"/><path d="M338.28 538.85h-1v-.5h1z" stroke="#000" stroke-width=".05"/><path d="M337.78 585.8l-4.63-14.27h9.27z" stroke="#000"/><path d="M876.42 390.84a8.54 8.54 0 0 1 11.68 0L960.87 459a7.5 7.5 0 0 1 0 10.94L888.1 538.1a8.54 8.54 0 0 1-11.68 0l-72.76-68.16a7.5 7.5 0 0 1 0-10.94z" stroke="#333" fill="#fff"/><use xlink:href="#l" transform="matrix(1,0,0,1,797.8173764929605,385.3727385454823) translate(38.945901141240306 70.29724699779024)"/><use xlink:href="#j" transform="matrix(1,0,0,1,797.8173764929605,385.3727385454823) translate(41.37692025030456 96.22811749447561)"/><use xlink:href="#m" transform="matrix(1,0,0,1,797.8173764929605,385.3727385454823) translate(80.93350279038708 96.22811749447561)"/><path d="M882.26 541.4v250.45a5 5 0 0 1-5 5h-392.5" stroke="#000" fill="none"/><path d="M882.26 540.9l.5-.02v.54h-1v-.54z" stroke="#000" stroke-width=".05"/><path d="M469.98 796.85l14.27-4.63v9.27z" stroke="#000"/><path d="M882.26 387.53v-34.5a5 5 0 0 0-5-5H467.73a5 5 0 0 0-5 5V627.5a5 5 0 0 1-5 5H439.1" stroke="#000" fill="none"/><path d="M882.76 388.07l-.5-.04-.5.04v-.55h1z" stroke="#000" stroke-width=".05"/><path d="M424.34 632.5l14.27-4.63v9.27z" stroke="#000"/><path d="M423.23 657.62h183.52a5 5 0 0 0 5-5V469.47a5 5 0 0 1 5-5H784.4" stroke="#000" fill="none"/><path d="M423.24 658.12h-.5v-1h.5z" stroke="#000" stroke-width=".05"/><path d="M799.17 464.47l-14.27 4.64v-9.26z" stroke="#000"/><path d="M685.77 291.38a8 8 0 0 1 8-8H931.1a8 8 0 0 1 8 8v50.88a8 8 0 0 1-8 8H693.77a8 8 0 0 1-8-8z" stroke="#000" stroke-opacity="0" fill="#fff" fill-opacity="0"/><use xlink:href="#n" transform="matrix(1,0,0,1,690.7704357317788,288.37808392775975) translate(90.8469403060655 31.537246997790245)"/><path d="M797.82 591.34a8 8 0 0 1 8-8h237.33a8 8 0 0 1 8 8v50.9a8 8 0 0 1-8 8H805.82a8 8 0 0 1-8-8z" stroke="#000" stroke-opacity="0" fill="#fff" fill-opacity="0"/><g><use xlink:href="#o" transform="matrix(1,0,0,1,802.8173764929605,588.3440611524325) translate(98.86029959149951 31.537246997790245)"/></g><path d="M223.7 756.85c-8.84 0-16 7.17-16 16v48c0 8.84 7.16 16 16 16h228.17c8.83 0 16-7.16 16-16v-48c0-8.83-7.17-16-16-16z" stroke="#333" fill="#fff"/><g><use xlink:href="#p" transform="matrix(1,0,0,1,215.6967212083889,764.8543057467041) translate(33.57272073879777 23.35637650110488)"/><use xlink:href="#q" transform="matrix(1,0,0,1,215.6967212083889,764.8543057467041) translate(99.54037508105984 23.35637650110488)"/><use xlink:href="#r" transform="matrix(1,0,0,1,215.6967212083889,764.8543057467041) translate(54.19136429345383 49.28724699779025)"/><use xlink:href="#s" transform="matrix(1,0,0,1,215.6967212083889,764.8543057467041) translate(127.24198789175496 49.28724699779025)"/></g><path d="M337.78 837.85v73.24" stroke="#000" fill="none"/><path d="M338.28 837.87h-1v-.52h1z" stroke="#000" stroke-width=".05"/><path d="M337.78 925.85l-4.63-14.26h9.27z" stroke="#000"/><defs><path d="M233-177c-1 41-23 64-60 70L243 0h-38l-65-103H63V0H30v-248c88 3 205-21 203 71zM63-129c60-2 137 13 137-47 0-61-80-42-137-45v92" id="t"/><path d="M100-194c63 0 86 42 84 106H49c0 40 14 67 53 68 26 1 43-12 49-29l28 8c-11 28-37 45-77 45C44 4 14-33 15-96c1-61 26-98 85-98zm52 81c6-60-76-77-97-28-3 7-6 17-6 28h103" id="u"/><path d="M177-190C167-65 218 103 67 71c-23-6-38-20-44-43l32-5c15 47 100 32 89-28v-30C133-14 115 1 83 1 29 1 15-40 15-95c0-56 16-97 71-98 29-1 48 16 59 35 1-10 0-23 2-32h30zM94-22c36 0 50-32 50-73 0-42-14-75-50-75-39 0-46 34-46 75s6 73 46 73" id="v"/><path d="M24-231v-30h32v30H24zM24 0v-190h32V0H24" id="w"/><path d="M135-143c-3-34-86-38-87 0 15 53 115 12 119 90S17 21 10-45l28-5c4 36 97 45 98 0-10-56-113-15-118-90-4-57 82-63 122-42 12 7 21 19 24 35" id="x"/><path d="M59-47c-2 24 18 29 38 22v24C64 9 27 4 27-40v-127H5v-23h24l9-43h21v43h35v23H59v120" id="y"/><path d="M114-163C36-179 61-72 57 0H25l-1-190h30c1 12-1 29 2 39 6-27 23-49 58-41v29" id="z"/><path d="M85-194c31 0 48 13 60 33l-1-100h32l1 261h-30c-2-10 0-23-3-31C134-8 116 4 85 4 32 4 16-35 15-94c0-66 23-100 70-100zm9 24c-40 0-46 34-46 75 0 40 6 74 45 74 42 0 51-32 51-76 0-42-9-74-50-73" id="A"/><g id="a"><use transform="matrix(0.05,0,0,0.05,0,0)" xlink:href="#t"/><use transform="matrix(0.05,0,0,0.05,12.950000000000001,0)" xlink:href="#u"/><use transform="matrix(0.05,0,0,0.05,22.950000000000003,0)" xlink:href="#v"/><use transform="matrix(0.05,0,0,0.05,32.95,0)" xlink:href="#w"/><use transform="matrix(0.05,0,0,0.05,36.900000000000006,0)" xlink:href="#x"/><use transform="matrix(0.05,0,0,0.05,45.900000000000006,0)" xlink:href="#y"/><use transform="matrix(0.05,0,0,0.05,50.900000000000006,0)" xlink:href="#u"/><use transform="matrix(0.05,0,0,0.05,60.900000000000006,0)" xlink:href="#z"/><use transform="matrix(0.05,0,0,0.05,66.85000000000001,0)" xlink:href="#u"/><use transform="matrix(0.05,0,0,0.05,76.85000000000001,0)" xlink:href="#A"/></g><path d="M232-93c-1 65-40 97-104 97C67 4 28-28 28-90v-158h33c8 89-33 224 67 224 102 0 64-133 71-224h33v155" id="B"/><g id="b"><use transform="matrix(0.05,0,0,0.05,0,0)" xlink:href="#B"/><use transform="matrix(0.05,0,0,0.05,12.950000000000001,0)" xlink:href="#x"/><use transform="matrix(0.05,0,0,0.05,21.950000000000003,0)" xlink:href="#u"/><use transform="matrix(0.05,0,0,0.05,31.950000000000003,0)" xlink:href="#z"/></g><path fill="#666" d="M25-224v-37h50v37H25zM25 0v-190h50V0H25" id="C"/><path fill="#666" d="M67-125c0 54 23 88 75 88 28 0 53-7 68-21v-34h-60v-39h108v91C232-14 192 4 140 4 58 4 20-42 15-125 8-236 126-280 215-234c19 10 29 26 37 47l-47 15c-11-23-29-39-63-39-53 1-75 33-75 86" id="D"/><path fill="#666" d="M110-194c64 0 96 36 96 99 0 64-35 99-97 99-61 0-95-36-95-99 0-62 34-99 96-99zm-1 164c35 0 45-28 45-65 0-40-10-65-43-65-34 0-45 26-45 65 0 36 10 65 43 65" id="E"/><g id="c"><use transform="matrix(0.060025163186771674,0,0,0.060025163186771674,0,0)" xlink:href="#C"/><use transform="matrix(0.060025163186771674,0,0,0.060025163186771674,6.002516318677167,0)" xlink:href="#D"/><use transform="matrix(0.060025163186771674,0,0,0.060025163186771674,22.809562010973234,0)" xlink:href="#E"/></g><path fill="#666" d="M185-189c-5-48-123-54-124 2 14 75 158 14 163 119 3 78-121 87-175 55-17-10-28-26-33-46l33-7c5 56 141 63 141-1 0-78-155-14-162-118-5-82 145-84 179-34 5 7 8 16 11 25" id="F"/><path fill="#666" d="M100-194c63 0 86 42 84 106H49c0 40 14 67 53 68 26 1 43-12 49-29l28 8c-11 28-37 45-77 45C44 4 14-33 15-96c1-61 26-98 85-98zm52 81c6-60-76-77-97-28-3 7-6 17-6 28h103" id="G"/><path fill="#666" d="M24 0v-261h32V0H24" id="H"/><path fill="#666" d="M96-169c-40 0-48 33-48 73s9 75 48 75c24 0 41-14 43-38l32 2c-6 37-31 61-74 61-59 0-76-41-82-99-10-93 101-131 147-64 4 7 5 14 7 22l-32 3c-4-21-16-35-41-35" id="I"/><path fill="#666" d="M59-47c-2 24 18 29 38 22v24C64 9 27 4 27-40v-127H5v-23h24l9-43h21v43h35v23H59v120" id="J"/><g id="d"><use transform="matrix(0.060025163186771674,0,0,0.060025163186771674,0,0)" xlink:href="#F"/><use transform="matrix(0.060025163186771674,0,0,0.060025163186771674,14.406039164825202,0)" xlink:href="#G"/><use transform="matrix(0.060025163186771674,0,0,0.060025163186771674,26.411071802179535,0)" xlink:href="#H"/><use transform="matrix(0.060025163186771674,0,0,0.060025163186771674,31.153059693934498,0)" xlink:href="#G"/><use transform="matrix(0.060025163186771674,0,0,0.060025163186771674,43.158092331288834,0)" xlink:href="#I"/><use transform="matrix(0.060025163186771674,0,0,0.060025163186771674,53.96262170490773,0)" xlink:href="#J"/></g><path fill="#666" d="M30 0v-248h33v221h125V0H30" id="K"/><path fill="#666" d="M141-36C126-15 110 5 73 4 37 3 15-17 15-53c-1-64 63-63 125-63 3-35-9-54-41-54-24 1-41 7-42 31l-33-3c5-37 33-52 76-52 45 0 72 20 72 64v82c-1 20 7 32 28 27v20c-31 9-61-2-59-35zM48-53c0 20 12 33 32 33 41-3 63-29 60-74-43 2-92-5-92 41" id="L"/><path fill="#666" d="M117-194c89-4 53 116 60 194h-32v-121c0-31-8-49-39-48C34-167 62-67 57 0H25l-1-190h30c1 10-1 24 2 32 11-22 29-35 61-36" id="M"/><path fill="#666" d="M177-190C167-65 218 103 67 71c-23-6-38-20-44-43l32-5c15 47 100 32 89-28v-30C133-14 115 1 83 1 29 1 15-40 15-95c0-56 16-97 71-98 29-1 48 16 59 35 1-10 0-23 2-32h30zM94-22c36 0 50-32 50-73 0-42-14-75-50-75-39 0-46 34-46 75s6 73 46 73" id="N"/><path fill="#666" d="M84 4C-5 8 30-112 23-190h32v120c0 31 7 50 39 49 72-2 45-101 50-169h31l1 190h-30c-1-10 1-25-2-33-11 22-28 36-60 37" id="O"/><g id="e"><use transform="matrix(0.060025163186771674,0,0,0.060025163186771674,0,0)" xlink:href="#K"/><use transform="matrix(0.060025163186771674,0,0,0.060025163186771674,12.005032637354335,0)" xlink:href="#L"/><use transform="matrix(0.060025163186771674,0,0,0.060025163186771674,24.01006527470867,0)" xlink:href="#M"/><use transform="matrix(0.060025163186771674,0,0,0.060025163186771674,36.015097912063005,0)" xlink:href="#N"/><use transform="matrix(0.060025163186771674,0,0,0.060025163186771674,48.02013054941734,0)" xlink:href="#O"/><use transform="matrix(0.060025163186771674,0,0,0.060025163186771674,60.02516318677167,0)" xlink:href="#L"/><use transform="matrix(0.060025163186771674,0,0,0.060025163186771674,72.03019582412601,0)" xlink:href="#N"/><use transform="matrix(0.060025163186771674,0,0,0.060025163186771674,84.03522846148034,0)" xlink:href="#G"/></g><path fill="#666" d="M24-231v-30h32v30H24zM24 0v-190h32V0H24" id="P"/><path fill="#666" d="M143 4C61 4 22-44 18-125c-5-107 100-154 193-111 17 8 29 25 37 43l-32 9c-13-25-37-40-76-40-61 0-88 39-88 99 0 61 29 100 91 101 35 0 62-11 79-27v-45h-74v-28h105v86C228-13 192 4 143 4" id="Q"/><path fill="#666" d="M100-194c62-1 85 37 85 99 1 63-27 99-86 99S16-35 15-95c0-66 28-99 85-99zM99-20c44 1 53-31 53-75 0-43-8-75-51-75s-53 32-53 75 10 74 51 75" id="R"/><g id="f"><use transform="matrix(0.060025163186771674,0,0,0.060025163186771674,0,0)" xlink:href="#P"/><use transform="matrix(0.060025163186771674,0,0,0.060025163186771674,4.741987891754962,0)" xlink:href="#Q"/><use transform="matrix(0.060025163186771674,0,0,0.060025163186771674,21.54903358405103,0)" xlink:href="#R"/></g><path fill="#666" d="M266 0h-40l-56-210L115 0H75L2-248h35L96-30l15-64 43-154h32l59 218 59-218h35" id="S"/><path fill="#666" d="M210-169c-67 3-38 105-44 169h-31v-121c0-29-5-50-35-48C34-165 62-65 56 0H25l-1-190h30c1 10-1 24 2 32 10-44 99-50 107 0 11-21 27-35 58-36 85-2 47 119 55 194h-31v-121c0-29-5-49-35-48" id="T"/><g id="g"><use transform="matrix(0.060025163186771674,0,0,0.060025163186771674,0,0)" xlink:href="#S"/><use transform="matrix(0.060025163186771674,0,0,0.060025163186771674,19.928354178008195,0)" xlink:href="#G"/><use transform="matrix(0.060025163186771674,0,0,0.060025163186771674,31.93338681536253,0)" xlink:href="#H"/><use transform="matrix(0.060025163186771674,0,0,0.060025163186771674,36.67537470711749,0)" xlink:href="#I"/><use transform="matrix(0.060025163186771674,0,0,0.060025163186771674,47.47990408073639,0)" xlink:href="#R"/><use transform="matrix(0.060025163186771674,0,0,0.060025163186771674,59.48493671809072,0)" xlink:href="#T"/><use transform="matrix(0.060025163186771674,0,0,0.060025163186771674,77.43246051093546,0)" xlink:href="#G"/></g><path fill="#666" d="M114-163C36-179 61-72 57 0H25l-1-190h30c1 12-1 29 2 39 6-27 23-49 58-41v29" id="U"/><g id="h"><use transform="matrix(0.060025163186771674,0,0,0.060025163186771674,0,0)" xlink:href="#F"/><use transform="matrix(0.060025163186771674,0,0,0.060025163186771674,14.406039164825202,0)" xlink:href="#I"/><use transform="matrix(0.060025163186771674,0,0,0.060025163186771674,25.210568538444104,0)" xlink:href="#U"/><use transform="matrix(0.060025163186771674,0,0,0.060025163186771674,32.353562957669936,0)" xlink:href="#G"/><use transform="matrix(0.060025163186771674,0,0,0.060025163186771674,44.35859559502427,0)" xlink:href="#G"/><use transform="matrix(0.060025163186771674,0,0,0.060025163186771674,56.3636282323786,0)" xlink:href="#M"/></g><path fill="#666" d="M30 0v-248h187v28H63v79h144v27H63v87h162V0H30" id="V"/><g id="i"><use transform="matrix(0.060025163186771674,0,0,0.060025163186771674,0,0)" xlink:href="#V"/><use transform="matrix(0.060025163186771674,0,0,0.060025163186771674,14.406039164825202,0)" xlink:href="#M"/><use transform="matrix(0.060025163186771674,0,0,0.060025163186771674,26.411071802179535,0)" xlink:href="#J"/><use transform="matrix(0.060025163186771674,0,0,0.060025163186771674,32.4135881208567,0)" xlink:href="#G"/><use transform="matrix(0.060025163186771674,0,0,0.060025163186771674,44.418620758211034,0)" xlink:href="#U"/></g><g id="j"><use transform="matrix(0.060025163186771674,0,0,0.060025163186771674,0,0)" xlink:href="#P"/><use transform="matrix(0.060025163186771674,0,0,0.060025163186771674,4.741987891754962,0)" xlink:href="#Q"/><use transform="matrix(0.060025163186771674,0,0,0.060025163186771674,21.54903358405103,0)" xlink:href="#R"/></g><path fill="#666" d="M212-179c-10-28-35-45-73-45-59 0-87 40-87 99 0 60 29 101 89 101 43 0 62-24 78-52l27 14C228-24 195 4 139 4 59 4 22-46 18-125c-6-104 99-153 187-111 19 9 31 26 39 46" id="W"/><path fill="#666" d="M85-194c31 0 48 13 60 33l-1-100h32l1 261h-30c-2-10 0-23-3-31C134-8 116 4 85 4 32 4 16-35 15-94c0-66 23-100 70-100zm9 24c-40 0-46 34-46 75 0 40 6 74 45 74 42 0 51-32 51-76 0-42-9-74-50-73" id="X"/><g id="k"><use transform="matrix(0.060025163186771674,0,0,0.060025163186771674,0,0)" xlink:href="#W"/><use transform="matrix(0.060025163186771674,0,0,0.060025163186771674,15.546517265373863,0)" xlink:href="#L"/><use transform="matrix(0.060025163186771674,0,0,0.060025163186771674,27.551549902728198,0)" xlink:href="#U"/><use transform="matrix(0.060025163186771674,0,0,0.060025163186771674,34.69454432195403,0)" xlink:href="#X"/></g><path fill="#666" d="M205 0l-28-72H64L36 0H1l101-248h38L239 0h-34zm-38-99l-47-123c-12 45-31 82-46 123h93" id="Y"/><path fill="#666" d="M106-169C34-169 62-67 57 0H25v-261h32l-1 103c12-21 28-36 61-36 89 0 53 116 60 194h-32v-121c2-32-8-49-39-48" id="Z"/><path fill="#666" d="M9 0v-24l116-142H16v-24h144v24L44-24h123V0H9" id="aa"/><g id="l"><use transform="matrix(0.060025163186771674,0,0,0.060025163186771674,0,0)" xlink:href="#Y"/><use transform="matrix(0.060025163186771674,0,0,0.060025163186771674,14.406039164825202,0)" xlink:href="#O"/><use transform="matrix(0.060025163186771674,0,0,0.060025163186771674,26.411071802179535,0)" xlink:href="#J"/><use transform="matrix(0.060025163186771674,0,0,0.060025163186771674,32.4135881208567,0)" xlink:href="#Z"/><use transform="matrix(0.060025163186771674,0,0,0.060025163186771674,44.418620758211034,0)" xlink:href="#R"/><use transform="matrix(0.060025163186771674,0,0,0.060025163186771674,56.42365339556537,0)" xlink:href="#U"/><use transform="matrix(0.060025163186771674,0,0,0.060025163186771674,63.5666478147912,0)" xlink:href="#P"/><use transform="matrix(0.060025163186771674,0,0,0.060025163186771674,68.30863570654616,0)" xlink:href="#aa"/><use transform="matrix(0.060025163186771674,0,0,0.060025163186771674,79.11316508016506,0)" xlink:href="#G"/></g><g id="m"><use transform="matrix(0.060025163186771674,0,0,0.060025163186771674,0,0)" xlink:href="#W"/><use transform="matrix(0.060025163186771674,0,0,0.060025163186771674,15.546517265373863,0)" xlink:href="#L"/><use transform="matrix(0.060025163186771674,0,0,0.060025163186771674,27.551549902728198,0)" xlink:href="#U"/><use transform="matrix(0.060025163186771674,0,0,0.060025163186771674,34.69454432195403,0)" xlink:href="#X"/></g><path fill="#666" d="M33 0v-248h34V0H33" id="ab"/><path fill="#666" d="M108 0H70L1-190h34L89-25l56-165h34" id="ac"/><g id="n"><use transform="matrix(0.060025163186771674,0,0,0.060025163186771674,0,0)" xlink:href="#ab"/><use transform="matrix(0.060025163186771674,0,0,0.060025163186771674,6.002516318677167,0)" xlink:href="#M"/><use transform="matrix(0.060025163186771674,0,0,0.060025163186771674,18.007548956031503,0)" xlink:href="#ac"/><use transform="matrix(0.060025163186771674,0,0,0.060025163186771674,28.812078329650404,0)" xlink:href="#L"/><use transform="matrix(0.060025163186771674,0,0,0.060025163186771674,40.81711096700474,0)" xlink:href="#H"/><use transform="matrix(0.060025163186771674,0,0,0.060025163186771674,45.5590988587597,0)" xlink:href="#P"/><use transform="matrix(0.060025163186771674,0,0,0.060025163186771674,50.301086750514656,0)" xlink:href="#X"/></g><path fill="#666" d="M137 0h-34L2-248h35l83 218 83-218h36" id="ad"/><g id="o"><use transform="matrix(0.060025163186771674,0,0,0.060025163186771674,0,0)" xlink:href="#ad"/><use transform="matrix(0.060025163186771674,0,0,0.060025163186771674,12.785359758782366,0)" xlink:href="#L"/><use transform="matrix(0.060025163186771674,0,0,0.060025163186771674,24.790392396136703,0)" xlink:href="#H"/><use transform="matrix(0.060025163186771674,0,0,0.060025163186771674,29.532380287891666,0)" xlink:href="#P"/><use transform="matrix(0.060025163186771674,0,0,0.060025163186771674,34.27436817964663,0)" xlink:href="#X"/></g><g id="p"><use transform="matrix(0.060025163186771674,0,0,0.060025163186771674,0,0)" xlink:href="#F"/><use transform="matrix(0.060025163186771674,0,0,0.060025163186771674,14.406039164825202,0)" xlink:href="#G"/><use transform="matrix(0.060025163186771674,0,0,0.060025163186771674,26.411071802179535,0)" xlink:href="#H"/><use transform="matrix(0.060025163186771674,0,0,0.060025163186771674,31.153059693934498,0)" xlink:href="#G"/><use transform="matrix(0.060025163186771674,0,0,0.060025163186771674,43.158092331288834,0)" xlink:href="#I"/><use transform="matrix(0.060025163186771674,0,0,0.060025163186771674,53.96262170490773,0)" xlink:href="#J"/></g><path fill="#666" d="M127-220V0H93v-220H8v-28h204v28h-85" id="ae"/><path fill="#666" d="M135-143c-3-34-86-38-87 0 15 53 115 12 119 90S17 21 10-45l28-5c4 36 97 45 98 0-10-56-113-15-118-90-4-57 82-63 122-42 12 7 21 19 24 35" id="af"/><g id="q"><use transform="matrix(0.060025163186771674,0,0,0.060025163186771674,0,0)" xlink:href="#ae"/><use transform="matrix(0.060025163186771674,0,0,0.060025163186771674,12.365183616474965,0)" xlink:href="#U"/><use transform="matrix(0.060025163186771674,0,0,0.060025163186771674,19.508178035700794,0)" xlink:href="#L"/><use transform="matrix(0.060025163186771674,0,0,0.060025163186771674,31.513210673055127,0)" xlink:href="#M"/><use transform="matrix(0.060025163186771674,0,0,0.060025163186771674,43.51824331040946,0)" xlink:href="#af"/><use transform="matrix(0.060025163186771674,0,0,0.060025163186771674,54.322772684028365,0)" xlink:href="#L"/><use transform="matrix(0.060025163186771674,0,0,0.060025163186771674,66.3278053213827,0)" xlink:href="#I"/><use transform="matrix(0.060025163186771674,0,0,0.060025163186771674,77.1323346950016,0)" xlink:href="#J"/><use transform="matrix(0.060025163186771674,0,0,0.060025163186771674,83.13485101367877,0)" xlink:href="#P"/><use transform="matrix(0.060025163186771674,0,0,0.060025163186771674,87.87683890543373,0)" xlink:href="#R"/><use transform="matrix(0.060025163186771674,0,0,0.060025163186771674,99.88187154278806,0)" xlink:href="#M"/></g><path fill="#666" d="M197 0v-115H63V0H30v-248h33v105h134v-105h34V0h-34" id="ag"/><path fill="#666" d="M179-190L93 31C79 59 56 82 12 73V49c39 6 53-20 64-50L1-190h34L92-34l54-156h33" id="ah"/><g id="r"><use transform="matrix(0.060025163186771674,0,0,0.060025163186771674,0,0)" xlink:href="#ag"/><use transform="matrix(0.060025163186771674,0,0,0.060025163186771674,15.546517265373863,0)" xlink:href="#P"/><use transform="matrix(0.060025163186771674,0,0,0.060025163186771674,20.288505157128824,0)" xlink:href="#af"/><use transform="matrix(0.060025163186771674,0,0,0.060025163186771674,31.093034530747726,0)" xlink:href="#J"/><use transform="matrix(0.060025163186771674,0,0,0.060025163186771674,37.095550849424896,0)" xlink:href="#R"/><use transform="matrix(0.060025163186771674,0,0,0.060025163186771674,49.10058348677923,0)" xlink:href="#U"/><use transform="matrix(0.060025163186771674,0,0,0.060025163186771674,56.24357790600506,0)" xlink:href="#ah"/></g><path fill="#666" d="M140-251c81 0 123 46 123 126C263-46 219 4 140 4 59 4 17-45 17-125s42-126 123-126zm0 227c63 0 89-41 89-101s-29-99-89-99c-61 0-89 39-89 99S79-25 140-24" id="ai"/><path fill="#666" d="M115-194c55 1 70 41 70 98S169 2 115 4C84 4 66-9 55-30l1 105H24l-1-265h31l2 30c10-21 28-34 59-34zm-8 174c40 0 45-34 45-75s-6-73-45-74c-42 0-51 32-51 76 0 43 10 73 51 73" id="aj"/><g id="s"><use transform="matrix(0.060025163186771674,0,0,0.060025163186771674,0,0)" xlink:href="#ai"/><use transform="matrix(0.060025163186771674,0,0,0.060025163186771674,16.807045692296068,0)" xlink:href="#aj"/><use transform="matrix(0.060025163186771674,0,0,0.060025163186771674,28.812078329650404,0)" xlink:href="#J"/><use transform="matrix(0.060025163186771674,0,0,0.060025163186771674,34.81459464832757,0)" xlink:href="#P"/><use transform="matrix(0.060025163186771674,0,0,0.060025163186771674,39.55658254008253,0)" xlink:href="#R"/><use transform="matrix(0.060025163186771674,0,0,0.060025163186771674,51.56161517743686,0)" xlink:href="#M"/></g></defs></g></svg>